<svg width="28" height="39" viewBox="0 0 28 39" fill="none" xmlns="http://www.w3.org/2000/svg">
<path fill-rule="evenodd" clip-rule="evenodd" d="M14 31.5C12.075 31.5 10.5 33.075 10.5 35C10.5 36.925 12.075 38.5 14 38.5C15.925 38.5 17.5 36.925 17.5 35C17.5 33.075 15.925 31.5 14 31.5V31.5ZM3.5 0C1.575 0 0 1.575 0 3.5C0 5.425 1.575 7 3.5 7C5.425 7 7 5.425 7 3.5C7 1.575 5.425 0 3.5 0V0ZM3.5 10.5C1.575 10.5 0 12.075 0 14C0 15.925 1.575 17.5 3.5 17.5C5.425 17.5 7 15.925 7 14C7 12.075 5.425 10.5 3.5 10.5V10.5ZM3.5 21C1.575 21 0 22.575 0 24.5C0 26.425 1.575 28 3.5 28C5.425 28 7 26.425 7 24.5C7 22.575 5.425 21 3.5 21V21ZM24.5 7C26.425 7 28 5.425 28 3.5C28 1.575 26.425 0 24.5 0C22.575 0 21 1.575 21 3.5C21 5.425 22.575 7 24.5 7V7ZM14 21C12.075 21 10.5 22.575 10.5 24.5C10.5 26.425 12.075 28 14 28C15.925 28 17.5 26.425 17.5 24.5C17.5 22.575 15.925 21 14 21V21ZM24.5 21C22.575 21 21 22.575 21 24.5C21 26.425 22.575 28 24.5 28C26.425 28 28 26.425 28 24.5C28 22.575 26.425 21 24.5 21V21ZM24.5 10.5C22.575 10.5 21 12.075 21 14C21 15.925 22.575 17.5 24.5 17.5C26.425 17.5 28 15.925 28 14C28 12.075 26.425 10.5 24.5 10.5V10.5ZM14 10.5C12.075 10.5 10.5 12.075 10.5 14C10.5 15.925 12.075 17.5 14 17.5C15.925 17.5 17.5 15.925 17.5 14C17.5 12.075 15.925 10.5 14 10.5V10.5ZM14 0C12.075 0 10.5 1.575 10.5 3.5C10.5 5.425 12.075 7 14 7C15.925 7 17.5 5.425 17.5 3.5C17.5 1.575 15.925 0 14 0V0Z" fill="#70DCFF"/>
</svg>
