<svg width="18" height="15" viewBox="0 0 18 15" fill="none" xmlns="http://www.w3.org/2000/svg">
<path fill-rule="evenodd" clip-rule="evenodd" d="M18 1.7735C17.5 2.54274 16.875 3.20513 16.1667 3.73932V4.23077C16.1667 9.23077 12.4583 15 5.66667 15C3.58333 15 1.625 14.5299 0 13.4615C0.291667 13.5043 0.583333 13.5256 0.875 13.5256C2.60417 13.5256 4.20833 12.7564 5.45833 11.7308C3.85417 11.7094 2.47917 10.5983 2.02083 9.10256C2.25 9.1453 2.47917 9.16667 2.70833 9.16667C3.04167 9.16667 3.375 9.12393 3.6875 9.03846C2 8.69658 0.729167 7.15812 0.729167 5.32051V5.27778C1.22917 5.55556 1.79167 5.7265 2.39583 5.74786C1.39583 5.0641 0.75 3.91026 0.75 2.60684C0.75 1.90171 0.9375 1.32479 1.25 0.769231C3.08333 3.05556 5.79167 4.48718 8.85417 4.65812C8.79167 4.38034 8.77083 4.0812 8.77083 3.78205C8.77083 1.68803 10.4167 0 12.4583 0C13.5208 0 14.4792 0.470086 15.1667 1.19658C16 1.02564 16.7917 0.705128 17.5 0.277778C17.2292 1.15385 16.6458 1.90171 15.875 2.37179C16.625 2.28632 17.3333 2.07265 18 1.7735Z" fill="#161C2E"/>
</svg>
