<svg width="34" height="34" viewBox="0 0 34 34" fill="none" xmlns="http://www.w3.org/2000/svg">
<path fill-rule="evenodd" clip-rule="evenodd" d="M6.26314 18.7895C5.27893 18.7895 4.47367 19.5947 4.47367 20.5789C4.47367 21.5632 5.27893 22.3684 6.26314 22.3684C7.24735 22.3684 8.05261 21.5632 8.05261 20.5789C8.05261 19.5947 7.24735 18.7895 6.26314 18.7895V18.7895ZM6.26314 25.9473C5.27893 25.9473 4.47367 26.7526 4.47367 27.7368C4.47367 28.721 5.27893 29.5263 6.26314 29.5263C7.24735 29.5263 8.05261 28.721 8.05261 27.7368C8.05261 26.7526 7.24735 25.9473 6.26314 25.9473V25.9473ZM6.26314 11.6315C5.27893 11.6315 4.47367 12.4368 4.47367 13.421C4.47367 14.4052 5.27893 15.2105 6.26314 15.2105C7.24735 15.2105 8.05261 14.4052 8.05261 13.421C8.05261 12.4368 7.24735 11.6315 6.26314 11.6315V11.6315ZM0.894737 12.5263C0.393684 12.5263 0 12.92 0 13.4211C0 13.9221 0.393684 14.3158 0.894737 14.3158C1.39579 14.3158 1.78947 13.9221 1.78947 13.4211C1.78947 12.92 1.39579 12.5263 0.894737 12.5263V12.5263ZM6.26314 4.47367C5.27893 4.47367 4.47367 5.27893 4.47367 6.26314C4.47367 7.24735 5.27893 8.05261 6.26314 8.05261C7.24735 8.05261 8.05261 7.24735 8.05261 6.26314C8.05261 5.27893 7.24735 4.47367 6.26314 4.47367V4.47367ZM33.1053 14.3158C33.6063 14.3158 34 13.9221 34 13.4211C34 12.92 33.6063 12.5263 33.1053 12.5263C32.6042 12.5263 32.2105 12.92 32.2105 13.4211C32.2105 13.9221 32.6042 14.3158 33.1053 14.3158V14.3158ZM20.5789 8.05261C21.5632 8.05261 22.3684 7.24735 22.3684 6.26314C22.3684 5.27893 21.5632 4.47367 20.5789 4.47367C19.5947 4.47367 18.7895 5.27893 18.7895 6.26314C18.7895 7.24735 19.5947 8.05261 20.5789 8.05261V8.05261ZM20.5789 1.78947C21.08 1.78947 21.4737 1.39579 21.4737 0.894737C21.4737 0.393684 21.08 0 20.5789 0C20.0779 0 19.6842 0.393684 19.6842 0.894737C19.6842 1.39579 20.0779 1.78947 20.5789 1.78947V1.78947ZM0.894737 19.6842C0.393684 19.6842 0 20.0779 0 20.5789C0 21.08 0.393684 21.4737 0.894737 21.4737C1.39579 21.4737 1.78947 21.08 1.78947 20.5789C1.78947 20.0779 1.39579 19.6842 0.894737 19.6842V19.6842ZM13.4211 32.2105C12.92 32.2105 12.5263 32.6042 12.5263 33.1053C12.5263 33.6063 12.92 34 13.4211 34C13.9221 34 14.3158 33.6063 14.3158 33.1053C14.3158 32.6042 13.9221 32.2105 13.4211 32.2105V32.2105ZM13.4211 1.78947C13.9221 1.78947 14.3158 1.39579 14.3158 0.894737C14.3158 0.393684 13.9221 0 13.4211 0C12.92 0 12.5263 0.393684 12.5263 0.894737C12.5263 1.39579 12.92 1.78947 13.4211 1.78947V1.78947ZM13.421 8.05261C14.4052 8.05261 15.2105 7.24735 15.2105 6.26314C15.2105 5.27893 14.4052 4.47367 13.421 4.47367C12.4368 4.47367 11.6315 5.27893 11.6315 6.26314C11.6315 7.24735 12.4368 8.05261 13.421 8.05261V8.05261ZM13.4211 17.8947C11.9358 17.8947 10.7369 19.0937 10.7369 20.5789C10.7369 22.0642 11.9358 23.2632 13.4211 23.2632C14.9063 23.2632 16.1053 22.0642 16.1053 20.5789C16.1053 19.0937 14.9063 17.8947 13.4211 17.8947V17.8947ZM27.7368 18.7895C26.7526 18.7895 25.9473 19.5947 25.9473 20.5789C25.9473 21.5632 26.7526 22.3684 27.7368 22.3684C28.721 22.3684 29.5263 21.5632 29.5263 20.5789C29.5263 19.5947 28.721 18.7895 27.7368 18.7895V18.7895ZM27.7368 25.9473C26.7526 25.9473 25.9473 26.7526 25.9473 27.7368C25.9473 28.721 26.7526 29.5263 27.7368 29.5263C28.721 29.5263 29.5263 28.721 29.5263 27.7368C29.5263 26.7526 28.721 25.9473 27.7368 25.9473V25.9473ZM27.7368 11.6315C26.7526 11.6315 25.9473 12.4368 25.9473 13.421C25.9473 14.4052 26.7526 15.2105 27.7368 15.2105C28.721 15.2105 29.5263 14.4052 29.5263 13.421C29.5263 12.4368 28.721 11.6315 27.7368 11.6315V11.6315ZM27.7368 4.47367C26.7526 4.47367 25.9473 5.27893 25.9473 6.26314C25.9473 7.24735 26.7526 8.05261 27.7368 8.05261C28.721 8.05261 29.5263 7.24735 29.5263 6.26314C29.5263 5.27893 28.721 4.47367 27.7368 4.47367V4.47367ZM33.1053 19.6842C32.6042 19.6842 32.2105 20.0779 32.2105 20.5789C32.2105 21.08 32.6042 21.4737 33.1053 21.4737C33.6063 21.4737 34 21.08 34 20.5789C34 20.0779 33.6063 19.6842 33.1053 19.6842V19.6842ZM20.5789 25.9473C19.5947 25.9473 18.7895 26.7526 18.7895 27.7368C18.7895 28.721 19.5947 29.5263 20.5789 29.5263C21.5632 29.5263 22.3684 28.721 22.3684 27.7368C22.3684 26.7526 21.5632 25.9473 20.5789 25.9473V25.9473ZM20.5789 32.2105C20.0779 32.2105 19.6842 32.6042 19.6842 33.1053C19.6842 33.6063 20.0779 34 20.5789 34C21.08 34 21.4737 33.6063 21.4737 33.1053C21.4737 32.6042 21.08 32.2105 20.5789 32.2105V32.2105ZM13.4211 10.7369C11.9358 10.7369 10.7369 11.9358 10.7369 13.4211C10.7369 14.9063 11.9358 16.1053 13.4211 16.1053C14.9063 16.1053 16.1053 14.9063 16.1053 13.4211C16.1053 11.9358 14.9063 10.7369 13.4211 10.7369V10.7369ZM13.421 25.9473C12.4368 25.9473 11.6315 26.7526 11.6315 27.7368C11.6315 28.721 12.4368 29.5263 13.421 29.5263C14.4052 29.5263 15.2105 28.721 15.2105 27.7368C15.2105 26.7526 14.4052 25.9473 13.421 25.9473V25.9473ZM20.5789 17.8947C19.0937 17.8947 17.8947 19.0937 17.8947 20.5789C17.8947 22.0642 19.0937 23.2632 20.5789 23.2632C22.0642 23.2632 23.2632 22.0642 23.2632 20.5789C23.2632 19.0937 22.0642 17.8947 20.5789 17.8947V17.8947ZM20.5789 10.7369C19.0937 10.7369 17.8947 11.9358 17.8947 13.4211C17.8947 14.9063 19.0937 16.1053 20.5789 16.1053C22.0642 16.1053 23.2632 14.9063 23.2632 13.4211C23.2632 11.9358 22.0642 10.7369 20.5789 10.7369V10.7369Z" fill="#70DCFF"/>
</svg>
