<svg width="27" height="26" viewBox="0 0 27 26" fill="none" xmlns="http://www.w3.org/2000/svg">
<g clip-path="url(#clip0)">
<path d="M5.64806 13C5.64806 17.061 8.94016 20.3531 13.0012 20.3531C17.0622 20.3531 20.3543 17.061 20.3543 13C20.3543 8.93896 17.0622 5.64685 13.0012 5.64685C8.94017 5.64685 5.64806 8.93896 5.64806 13Z" fill="white"/>
<path d="M23.1168 13C23.1168 12.7817 23.2946 12.609 23.5079 12.609L25.6102 12.609C25.8286 12.609 26.0012 12.7867 26.0012 13C26.0012 13.2184 25.8235 13.391 25.6102 13.391L23.5079 13.391C23.2895 13.391 23.1168 13.2184 23.1168 13Z" fill="white"/>
<path d="M21.7052 7.74917C21.7052 7.61206 21.7763 7.48003 21.9032 7.40893L23.7212 6.35777C23.9091 6.25113 24.1478 6.31207 24.2595 6.49996C24.3661 6.68784 24.3052 6.92652 24.1173 7.03823L22.2942 8.0894C22.1064 8.19604 21.8677 8.1351 21.756 7.94721C21.7255 7.8812 21.7052 7.81518 21.7052 7.74917Z" fill="white"/>
<path d="M17.8609 3.90001C17.8609 3.83399 17.8761 3.76798 17.9117 3.70196L18.9629 1.88399C19.0695 1.6961 19.3133 1.63008 19.5011 1.7418C19.689 1.84844 19.7551 2.09219 19.6433 2.28008L18.5922 4.09805C18.4855 4.28594 18.2418 4.35196 18.0539 4.24024C17.932 4.16915 17.8609 4.03712 17.8609 3.90001Z" fill="white"/>
<path d="M12.6103 2.49336L12.6103 0.391016C12.6103 0.172656 12.7881 -2.64141e-08 13.0013 -1.70915e-08C13.2146 -7.76884e-09 13.3923 0.177734 13.3923 0.391016L13.3923 2.49336C13.3923 2.71172 13.2146 2.88437 13.0013 2.88437C12.783 2.88437 12.6103 2.71172 12.6103 2.49336Z" fill="white"/>
<path d="M6.30322 2.08204C6.30322 1.94493 6.37431 1.8129 6.50127 1.7418C6.68916 1.63516 6.92783 1.6961 7.03955 1.88399L8.09072 3.70704C8.19736 3.89493 8.13642 4.1336 7.94853 4.24532C7.76064 4.35196 7.52197 4.29102 7.41025 4.10313L6.35908 2.28516C6.32353 2.21407 6.30322 2.14805 6.30322 2.08204Z" fill="white"/>
<path d="M1.69224 6.69806C1.69224 6.63205 1.70748 6.56603 1.74303 6.50002C1.84967 6.31212 2.09342 6.24611 2.28131 6.35783L4.09929 7.409C4.28718 7.51564 4.35319 7.75939 4.24148 7.94728C4.13483 8.13517 3.89108 8.20118 3.70319 8.08947L1.88521 7.0383C1.75826 6.96212 1.69224 6.83009 1.69224 6.69806Z" fill="white"/>
<path d="M0.00112341 13C0.00112342 12.7817 0.178859 12.609 0.39214 12.609L2.49448 12.609C2.71284 12.609 2.8855 12.7867 2.8855 13C2.8855 13.2184 2.70776 13.391 2.49448 13.391L0.39214 13.391C0.178858 13.391 0.0011234 13.2184 0.00112341 13Z" fill="white"/>
<path d="M1.69231 19.302C1.69231 19.1649 1.76341 19.0328 1.89036 18.9617L3.70832 17.9106C3.89621 17.8039 4.13488 17.8649 4.2466 18.0528C4.35324 18.2406 4.2923 18.4793 4.10441 18.591L2.28645 19.6422C2.09856 19.7488 1.85989 19.6879 1.74817 19.5C1.70755 19.4391 1.69231 19.3731 1.69231 19.302Z" fill="white"/>
<path d="M6.3031 23.918C6.3031 23.8519 6.31834 23.7859 6.35389 23.7199L7.40506 21.9019C7.5117 21.714 7.75545 21.648 7.94334 21.7597C8.13123 21.8715 8.19725 22.1101 8.08553 22.298L7.03436 24.116C6.92772 24.3039 6.68396 24.3699 6.49607 24.2582C6.3742 24.1871 6.3031 24.0551 6.3031 23.918Z" fill="white"/>
<path d="M12.6103 25.609L12.6103 23.5066C12.6103 23.2883 12.788 23.1156 13.0013 23.1156C13.2145 23.1156 13.3923 23.2933 13.3923 23.5066L13.3923 25.609C13.3923 25.8273 13.2145 26 13.0013 26C12.7829 26 12.6103 25.8222 12.6103 25.609Z" fill="white"/>
<path d="M17.861 22.1C17.861 21.9629 17.932 21.8308 18.059 21.7597C18.2469 21.6531 18.4856 21.714 18.5973 21.9019L19.6485 23.7199C19.7551 23.9078 19.6942 24.1465 19.5063 24.2582C19.3184 24.3648 19.0797 24.3039 18.968 24.116L17.9117 22.2929C17.8762 22.232 17.861 22.166 17.861 22.1Z" fill="white"/>
<path d="M21.7052 18.2508C21.7052 18.1848 21.7204 18.1188 21.756 18.0527C21.8626 17.8649 22.1064 17.7988 22.2943 17.9106L24.1122 18.9617C24.3001 19.0684 24.3661 19.3121 24.2544 19.5C24.1478 19.6879 23.904 19.7539 23.7161 19.6422L21.8982 18.591C21.7763 18.5199 21.7052 18.3879 21.7052 18.2508Z" fill="white"/>
</g>
<defs>
<clipPath id="clip0">
<rect width="26" height="26" fill="white" transform="translate(26.0012) rotate(90)"/>
</clipPath>
</defs>
</svg>
