<svg width="18" height="18" viewBox="0 0 18 18" fill="none" xmlns="http://www.w3.org/2000/svg">
<path fill-rule="evenodd" clip-rule="evenodd" d="M0 6H4V18H0V6ZM9.91444 11.25V18H6.06417V9C6.06417 9 6 6.77083 6 6.375H9.7861L9.91444 7.97917C10.6845 6.85417 11.8396 6 13.3797 6C16.0749 6 18 7.875 18 11.25V18H14.1497V11.625C14.1497 9.75 13.2086 9 12.0535 9C10.8984 9 9.91444 9.75 9.91444 11.25ZM2.47685 4H2.4537C0.972222 4 0 3.11111 0 2C0 0.868687 0.99537 0 2.52315 0C4.02778 0 4.97685 0.868687 5 2C5 3.11111 4.02778 4 2.47685 4Z" fill="#161C2E"/>
</svg>
