<svg width="42" height="50" viewBox="0 0 42 50" fill="none" xmlns="http://www.w3.org/2000/svg">
<path fill-rule="evenodd" clip-rule="evenodd" d="M37.3333 0.333252H4.66667C2.07667 0.333252 0 2.43325 0 4.99992V37.6666C0 40.2333 2.07667 42.3333 4.66667 42.3333H14L21 49.3333L28 42.3333H37.3333C39.9 42.3333 42 40.2333 42 37.6666V4.99992C42 2.43325 39.9 0.333252 37.3333 0.333252V0.333252ZM20.9994 8.03335C24.4761 8.03335 27.2994 10.8567 27.2994 14.3334C27.2994 17.81 24.4761 20.6334 20.9994 20.6334C17.5228 20.6334 14.6994 17.81 14.6994 14.3334C14.6994 10.8567 17.5228 8.03335 20.9994 8.03335V8.03335ZM34.9999 32.9998H6.99992V30.8998C6.99992 26.2331 16.3333 23.6665 20.9999 23.6665C25.6666 23.6665 34.9999 26.2331 34.9999 30.8998V32.9998V32.9998Z" fill="#70DCFF"/>
</svg>
