<svg width="19" height="19" viewBox="0 0 19 19" fill="none" xmlns="http://www.w3.org/2000/svg">
<path d="M7.02698 0.0237016C4.99285 0.5071 3.21299 1.65805 1.96478 3.24636C0.739685 4.81165 3.51885e-06 6.76826 3.42628e-06 8.886C3.3156e-06 11.4181 1.01706 13.674 2.68135 15.3313C4.34563 16.9887 6.63402 18.0015 9.15356 18.0015C11.2339 18.0015 13.1525 17.3109 14.7012 16.137C16.273 14.917 17.4519 13.2136 17.9835 11.257C18.0297 11.0728 17.9835 10.8887 17.8679 10.7275C17.6599 10.4743 17.2901 10.4283 17.0358 10.6354C16.4579 11.1188 15.7876 11.4872 15.0479 11.7404C14.3544 11.9705 13.5916 12.1087 12.8057 12.1087C10.9334 12.1087 9.2229 11.349 7.99781 10.129C6.77271 8.90902 6.00991 7.20562 6.00991 5.34108C6.00991 4.5124 6.1486 3.72976 6.42599 3.01617C6.70337 2.25654 7.11944 1.56597 7.62797 0.967479C7.74354 0.806347 7.78977 0.622195 7.74354 0.438043C7.6742 0.115777 7.35059 -0.0683743 7.02698 0.0237016Z" fill="white"/>
</svg>
