<svg width="32" height="32" viewBox="0 0 32 32" fill="none" xmlns="http://www.w3.org/2000/svg">
<path fill-rule="evenodd" clip-rule="evenodd" d="M3.55556 21.3333H0V28.4444C0 30.4 1.6 32 3.55556 32H10.6667V28.4444H3.55556V21.3333V21.3333ZM3.55556 3.55556H10.6667V0H3.55556C1.6 0 0 1.6 0 3.55556V10.6667H3.55556V3.55556V3.55556ZM28.4444 0H21.3333V3.55556H28.4444V10.6667H32V3.55556C32 1.6 30.4 0 28.4444 0V0ZM28.4444 28.4444H21.3333V32H28.4444C30.4 32 32 30.4 32 28.4444V21.3333H28.4444V28.4444V28.4444ZM16 10.6667C13.0489 10.6667 10.6667 13.0489 10.6667 16C10.6667 18.9511 13.0489 21.3333 16 21.3333C18.9511 21.3333 21.3333 18.9511 21.3333 16C21.3333 13.0489 18.9511 10.6667 16 10.6667V10.6667Z" fill="#70DCFF"/>
</svg>
