<svg width="24" height="35" viewBox="0 0 24 35" fill="none" xmlns="http://www.w3.org/2000/svg">
<path fill-rule="evenodd" clip-rule="evenodd" d="M22.2856 10.2857C22.2856 4.61143 17.6742 0 11.9999 0C6.32564 0 1.71421 4.61143 1.71421 10.2857C1.71421 18 11.9999 29.1429 11.9999 29.1429C11.9999 29.1429 22.2856 18 22.2856 10.2857V10.2857ZM8.5713 10.2858C8.5713 8.40006 10.1142 6.8572 11.9999 6.8572C13.8856 6.8572 15.4284 8.40006 15.4284 10.2858C15.4284 12.1715 13.9027 13.7143 11.9999 13.7143C10.1142 13.7143 8.5713 12.1715 8.5713 10.2858V10.2858ZM0 30.8572V34.2858H24V30.8572H0V30.8572Z" fill="#80DCFB"/>
</svg>
