<svg width="1599" height="1349" viewBox="0 0 1599 1349" fill="none" xmlns="http://www.w3.org/2000/svg">
<path d="M135.495 0.0421159L138.682 3.84339L82.2338 50.3165L57.0036 20.5707C56.53 20.0138 55.8568 19.6649 55.1288 19.5989C54.4007 19.5328 53.6758 19.7549 53.1097 20.2174C52.8318 20.4413 52.6017 20.7185 52.433 21.0328C52.2642 21.3473 52.1603 21.6923 52.1274 22.0476C52.0944 22.4028 52.1331 22.7611 52.2412 23.1012C52.3493 23.4412 52.5245 23.7561 52.7565 24.0272L116.513 99.2791C96.9851 114.636 80.9387 126.342 73.6219 129.689C68.0881 132.212 61.2422 135.433 54.0012 138.839C37.181 146.728 16.1558 156.584 1.41279e-05 163.321L1.40053e-05 173.598C13.3384 168.207 30.3941 160.377 46.4741 152.859C49.7373 160.722 56.2382 176.835 58.038 184.497C59.8798 192.326 62.3524 207.136 63.4793 214.133C48.5346 225.907 33.1357 237.992 17.5939 250.237C11.1013 242.811 5.1638 236.007 1.33321e-05 230.053L1.31579e-05 244.661C3.1622 248.294 6.52624 252.154 10.0921 256.183L1.29259e-05 264.113L1.2781e-05 276.266L16.3492 263.382C27.0637 275.627 39.0564 289.276 51.5454 303.573C68.4413 322.84 86.4977 343.444 103.94 363.409L39.6704 430.268L1.13357e-05 397.469L1.12512e-05 404.551L35.8774 434.187L0.0168306 471.536L0.0168305 485.345L110.281 370.642C137.951 402.339 163.458 431.748 179.396 450.679L46.8946 563.397L0.0168299 534.089L0.0168298 540.505L45.2799 568.83L114.571 653.257C114.79 653.527 115.062 653.75 115.37 653.913C107.8 660.229 100.458 666.292 94.3948 671.271L56.9951 628.532C56.511 627.987 55.8343 627.652 55.1077 627.597C54.3812 627.542 53.6618 627.772 53.1013 628.237C52.8274 628.466 52.602 628.748 52.4385 629.065C52.275 629.382 52.1766 629.729 52.1492 630.084C52.1218 630.44 52.1658 630.798 52.2788 631.137C52.3918 631.475 52.5713 631.788 52.8069 632.056L90.1561 674.736C86.4893 677.73 83.529 680.118 81.5862 681.615C72.4445 688.705 68.8113 696.055 68.5001 704.019C62.6888 704.398 47.9627 705.449 30.1165 706.744C24.8434 701.765 14.0869 691.606 0.0168282 678.319L0.016828 691.85L16.7613 707.711C11.2695 708.115 5.64317 708.552 0.0168278 708.939L0.0168277 714.599L68.7693 709.486C69.4457 714.043 70.645 718.507 72.3436 722.79C73.6387 726.247 76.6159 731.242 80.5013 736.961C61.3095 743.689 43.3624 749.424 35.5158 750.324C29.3092 751.039 24.507 749.828 19.8646 748.642C12.8002 746.876 6.74489 745.892 0.0168273 748.928L0.0168272 759.928C6.46736 755.067 10.9499 756.186 17.4678 757.834C19.6628 758.389 22.0849 759.003 24.7929 759.432L33.3208 778.859L0.0168265 819.344L0.0168264 827.973L38.7032 780.987C39.0172 780.605 39.2195 780.143 39.2878 779.654C39.3561 779.164 39.2876 778.665 39.0901 778.211L31.0921 760.004C32.9658 760.039 34.8399 759.95 36.7016 759.735C40.9454 759.108 45.1408 758.19 49.2579 756.985L71.1241 788.657L1.95956 873.016L0.0168259 871.57L0.0168257 884.042L2.90148 880.518L29.5867 900.424C30.1501 900.842 30.8498 901.034 31.5475 900.96C32.2452 900.887 32.89 900.555 33.3544 900.029L76.2458 850.848L100.425 868.458L39.9563 940.868L0.0168254 909.137L0.0168253 921.331L33.9095 948.243L0.0168244 990.192L0.0168243 998.913L38.1986 951.658L150.347 1040.74L121.896 1070.91L0.0168241 1015.73L0.0168241 1021.7L117.96 1075.09L72.6043 1123.19C50.6287 1112.64 23.5651 1099.71 0.0168233 1088.47L0.0168232 1094.49C22.4633 1105.21 47.7525 1117.29 68.6936 1127.34L24.7256 1173.96L0.0168225 1156.01L0.0168224 1162.74L20.9579 1177.98L0.0168219 1200.19L0.0168218 1208.16L25.4153 1181.25L104.84 1239.01L112.157 1246.78C99.5418 1252.67 56.2046 1273.01 48.0216 1277.26L46.4825 1278.11C37.6772 1282.76 30.0661 1286.78 18.334 1272.28C13.7084 1266.47 7.18221 1257.98 0.0168214 1248.54L0.0168212 1257.6C5.44133 1264.71 10.3192 1271.01 14.0112 1275.57C28.6111 1293.63 39.9731 1287.63 49.1065 1282.81L50.6035 1282.02C58.9547 1277.68 106.11 1255.56 116.076 1250.9L162.239 1299.99L177.966 1319.52L143.308 1348.04L151.895 1348.04L181.389 1323.76L200.934 1348.04L207.973 1348.04L185.619 1320.29L228.51 1284.97L256.104 1325.94C252.254 1331.42 247.797 1336.44 242.816 1340.92C240.739 1342.82 238.064 1345.22 234.894 1348.04L249.191 1348.04L249.401 1347.85C254.968 1342.83 259.942 1337.18 264.228 1331.03L273.134 1332.37C272.226 1337.33 271.074 1342.47 269.669 1348L279.61 1348C280.83 1343.06 281.847 1338.35 282.671 1333.81L311.837 1338.22L310.349 1348.04L315.942 1348.04L317.346 1339.09L350.213 1344.06C350.942 1344.17 351.685 1343.99 352.282 1343.56C352.576 1343.35 352.825 1343.08 353.013 1342.77C353.201 1342.46 353.324 1342.12 353.375 1341.76C354.452 1334.41 357.143 1327.4 361.255 1321.21C361.362 1321.08 361.455 1320.93 361.533 1320.78C365.998 1314.05 371.372 1308.84 375.594 1304.8C377.487 1302.97 379.118 1301.43 380.321 1300C386.502 1292.83 388.083 1284.92 384.778 1277.72C382.255 1272.18 347.715 1246.98 333.426 1236.71L335.722 1222.12L345.411 1186.36L349.119 1183.84L397.351 1230.09L397.351 1230.14L398.133 1230.87L401.649 1234.23L401.724 1234.15L467.323 1294.19L505.169 1319.69C499.576 1329.54 494.227 1339.07 489.231 1348.04L495.522 1348.04C500.047 1339.94 504.841 1331.45 509.744 1322.81L547.236 1348.04L564.333 1348.04L563.35 1347.38L566.899 1348.04L596.603 1348.04L557.647 1340.81L597.133 1271.21L665.667 1303.05L646.601 1348.04L652.581 1348.04L670.351 1306.12L723.402 1348.04L743.586 1348.04L730.626 1345.24C738.119 1327.86 751.828 1296.74 768.051 1260.1L816.493 1277.9L785.3 1348.04L789.101 1348.04L794.77 1348.04C793.744 1347.87 792.693 1347.67 791.624 1347.44L880.687 1147.05L926.749 1164.39C910.173 1202.95 892.966 1243.39 880.267 1273.22C871.688 1293.4 865.482 1307.96 863.261 1313.05C860.643 1319.26 858.602 1325.71 857.164 1332.3L839.192 1334.24C838.732 1334.27 838.286 1334.41 837.897 1334.65C836.551 1335.49 835.147 1336.47 833.692 1337.5C828.057 1341.4 821.077 1346.22 811.371 1348.03L827.233 1348.03C830.544 1346.18 833.745 1344.15 836.82 1341.94C838.031 1341.1 839.183 1340.31 840.26 1339.62L855.978 1337.93C855.367 1341.17 854.832 1344.53 854.372 1348.03L864.069 1348.03C864.599 1344.1 865.255 1340.36 865.995 1336.81L928.658 1330.09L930.34 1348.06L935.891 1348.06C935.311 1341.76 934.714 1335.44 934.15 1329.49L1015.8 1320.68L1017.18 1348.04L1022.68 1348.04L1021.3 1320.06L1083.53 1313.33L1086.22 1348.04L1091.76 1348.04L1089.12 1312.72L1096.69 1311.88C1096.88 1311.9 1097.08 1311.9 1097.27 1311.88C1098.11 1311.79 1119.37 1309.52 1151.1 1306.14C1151.05 1306.41 1151.05 1306.7 1151.1 1306.98L1159.01 1348.04L1164.64 1348.04L1156.48 1305.99C1156.45 1305.86 1156.41 1305.72 1156.36 1305.6C1203.04 1300.62 1269.77 1293.52 1328.24 1287.31C1330.08 1304.88 1332.27 1325.48 1334.67 1348.01L1344.38 1348.01L1340.17 1308.53L1474.87 1293.75C1475.36 1293.7 1475.84 1293.52 1476.24 1293.22C1476.64 1292.92 1476.95 1292.53 1477.14 1292.07C1477.63 1290.82 1481.76 1279.76 1476.68 1273.8C1473.01 1269.48 1467.81 1268.32 1461.46 1268.32C1458.94 1268.32 1456.28 1268.51 1453.45 1268.74C1449.66 1269.05 1399.17 1274.37 1337.27 1280.94L1334.75 1256.74L1397.18 1248.73C1397.86 1248.64 1398.48 1248.29 1398.91 1247.76C1399.35 1247.23 1399.56 1246.55 1399.52 1245.87C1399.47 1245.19 1399.17 1244.55 1398.67 1244.08C1398.17 1243.61 1397.52 1243.34 1396.83 1243.34C1396.71 1243.33 1396.59 1243.33 1396.47 1243.34L1334.23 1251.34C1332.91 1238.33 1332.11 1229.82 1331.95 1227.19C1330.74 1206.63 1331.95 1194.18 1342.04 1183.27C1344.18 1180.92 1356.34 1165.95 1374.76 1142.9L1448.77 1196.58C1449.37 1197.01 1450.11 1197.19 1450.84 1197.08C1451.57 1196.97 1452.22 1196.57 1452.67 1195.98L1491.25 1143.19C1495.36 1145.05 1509.63 1151 1521.15 1148.74C1532.47 1146.52 1563.38 1138.95 1570.04 1137.31C1588.93 1150.43 1621.24 1178.04 1635.37 1196.06C1642.94 1205.73 1653.51 1219.72 1663.7 1233.23C1669.97 1241.56 1676.31 1250.05 1682.1 1257.56L1682.1 1248.5C1677.59 1242.56 1672.85 1236.25 1668.14 1230L1665.15 1226.05L1682.03 1208.16L1682.03 1200.19L1661.74 1221.67C1653.64 1210.93 1645.76 1200.51 1639.69 1192.8C1625.1 1174.2 1592.94 1146.7 1573.48 1133.15L1598.61 1102.09L1682.03 1162.75L1682.03 1156.02L1602.04 1097.85L1626.25 1067.91C1632.88 1071.06 1655.46 1081.82 1682.03 1094.5L1682.03 1088.48C1657.81 1076.92 1637.29 1067.14 1629.77 1063.56L1668.54 1015.62L1682 1021.73L1682 1015.77L1672.04 1011.26L1682.03 998.913L1682.03 990.192L1666.9 1008.89L1603.33 980.117L1663.53 906.631L1682.03 921.331L1682.03 909.137L1669.58 899.247L1682.03 884.042L1682.03 871.57L1659.81 854.994L1682.03 827.973L1682.03 819.344L1653.73 853.758C1653.5 854.039 1653.33 854.363 1653.22 854.711C1653.12 855.059 1653.09 855.425 1653.14 855.785C1653.18 856.146 1653.3 856.494 1653.49 856.808C1653.67 857.123 1653.91 857.398 1654.2 857.618L1680.52 877.238L1665.29 895.841L1608.02 850.327C1642.34 807.259 1667.37 775.924 1673.03 769.07C1675.67 765.69 1678.69 762.623 1682.03 759.928L1682.03 748.928C1677.11 751.123 1671.82 755.437 1665.49 763.107C1659.8 770.003 1634.79 801.322 1600.49 844.364L1470.56 741.166L1536.07 661.583L1609.02 720.234C1609.61 720.7 1610.36 720.911 1611.11 720.822C1611.48 720.778 1611.84 720.66 1612.16 720.475C1612.48 720.29 1612.76 720.042 1612.99 719.746L1682.03 714.599L1682.03 708.939C1646.21 711.571 1610.27 714.237 1610.27 714.237L1539.53 657.369L1569.46 621.005L1634.67 679.874C1635.23 680.343 1635.95 680.575 1636.67 680.522C1637.4 680.468 1638.08 680.134 1638.56 679.588C1638.8 679.321 1638.98 679.009 1639.09 678.671C1639.21 678.332 1639.25 677.975 1639.22 677.619C1639.2 677.263 1639.1 676.916 1638.94 676.599C1638.77 676.281 1638.55 676 1638.28 675.77L1572.94 616.75L1586.16 600.762C1586.25 600.645 1586.33 600.518 1586.4 600.401C1622.7 635.512 1659.73 670.682 1682.06 691.85L1682.06 678.319C1659.49 656.966 1628.41 627.422 1597.72 597.836L1649.23 520.01L1682.03 540.505L1682.03 534.089L1652.78 515.78L1682.03 485.345L1682.03 471.536L1642.89 512.248L1590.67 591.049C1544.26 546.199 1500.36 502.694 1490.18 489.053C1480.6 476.113 1469.48 464.39 1457.06 454.144C1472.1 442.21 1531.54 395.106 1602.62 338.928L1682.03 404.525L1682.03 397.444L1606.99 335.438C1631.18 316.339 1656.61 296.256 1682.03 276.215L1682.03 264.063C1665.15 277.359 1648.24 290.714 1631.63 303.817L1614.12 283.633L1651.25 256.847C1651.56 256.629 1651.82 256.348 1652.01 256.022C1652.2 255.697 1652.32 255.334 1652.36 254.959C1652.4 254.584 1652.36 254.204 1652.24 253.845C1652.13 253.487 1651.94 253.157 1651.68 252.878L1624.95 223.191C1624.87 223.106 1624.78 223.027 1624.69 222.955L1647.7 203.31C1649.7 206.364 1651.86 209.314 1654.17 212.149C1657.88 216.749 1668.02 228.506 1682.03 244.586L1682.03 229.986C1671.94 218.364 1664.72 209.954 1661.76 206.278C1652.03 194.202 1650.95 188.845 1651.75 186.465C1652.86 183.101 1660.07 180.864 1665.41 179.442C1671.05 177.79 1676.6 175.825 1682.03 173.555L1682.03 163.279C1674.16 166.558 1667.42 169.107 1662.86 170.326C1654.94 172.445 1647.27 175.212 1643.78 180.914L1583.8 212.737C1585.41 195.076 1586.81 176.423 1585.88 172.588C1584.12 165.238 1576.29 157.164 1559.97 158.628C1558.7 158.746 1557.08 158.838 1555.18 158.905C1554.8 158.72 1554.38 158.622 1553.96 158.619C1553.47 158.618 1553 158.746 1552.59 158.99C1531.13 159.519 1483.67 157.829 1476.21 152.489C1474.94 151.58 1473.52 150.496 1472.01 149.335C1462.3 141.884 1447.79 130.741 1425.98 130.741C1425.29 130.741 1424.6 130.741 1423.89 130.741C1421.16 130.825 1416.96 131.052 1411.62 131.388C1410.73 124.988 1408.51 105.259 1406 82.3079L1424.14 81.366C1424.5 81.3508 1424.85 81.2653 1425.17 81.1143C1425.5 80.9632 1425.79 80.7494 1426.03 80.4854C1426.27 80.2213 1426.46 79.9121 1426.58 79.5755C1426.71 79.2388 1426.76 78.8812 1426.75 78.5233L1425.97 63.6463L1454.36 56.6913C1454.82 56.5824 1455.23 56.361 1455.57 56.0477C1455.92 55.7346 1456.17 55.3396 1456.32 54.8999L1468.42 18.4346C1468.82 17.9412 1469.02 17.3196 1469 16.6853L1474.51 0.00844043L1468.71 0.00844037L1463.99 14.2633L1372.15 22.6732L1370.61 0.016862L1365.07 0.016862L1366.65 23.1778L1347.09 24.9691L1344.41 0.0168617L1334.7 0.0168616L1337.46 25.8521L1241.42 34.6405C1241.01 33.2095 1240.36 31.8606 1239.49 30.6542C1238.57 29.5272 1237.25 27.9126 1226.99 27.9126C1217.74 27.9126 1201.2 29.2245 1171.15 33.3959L1164.66 0.0168596L1159.04 0.0168595L1161.12 10.7564C1161.05 10.7521 1160.99 10.7521 1160.92 10.7564L1093.23 19.1663L1091.78 0.00843587L1086.25 0.0084358L1087.74 19.8475L1024.11 27.7527L1022.73 1.2196e-05L1017.21 1.21301e-05L1018.62 28.4255L939.238 38.2988C938.481 28.291 937.237 14.1875 935.933 1.11609e-05L930.382 1.10947e-05C931.72 14.4902 932.998 28.9218 933.746 38.98L863.329 47.7348C861.771 31.8455 862.031 15.8305 864.102 1.03043e-05L854.406 1.01887e-05C852.443 15.8217 852.193 31.8088 853.657 47.6843L776.503 33.3875L785.813 12.4551L789.438 4.29749C789.708 4.47999 790.01 4.60853 790.329 4.67591C806.771 8.31751 818.495 4.67591 827.208 0.0168556L811.329 0.0168554C805.844 0.988657 800.23 0.988657 794.745 0.0168552L785.3 0.0168551L781.65 8.23329L743.552 0.0168546L723.368 0.0168543C721.409 4.59181 720.08 7.77076 719.508 9.26771C718.078 13.489 717.116 17.8547 716.64 22.2863L648.518 9.67139L652.597 0.042122L646.618 0.042122L642.976 8.63697L596.62 0.0421214L566.899 0.042121L641.084 13.8007L631.093 45.0183L564.334 0.042121L547.244 0.0421208L509.836 66.0094L472.554 42.3187C478.298 31.184 486.372 16.4414 495.531 0.0421202L489.231 0.0421201C480.073 16.4583 472.184 30.9569 466.634 41.8646C466.54 42.0107 466.461 42.1657 466.398 42.3272C461.815 51.3594 458.871 57.8687 458.223 60.829C456.541 68.4904 442.984 136.779 477.23 175.002C507.364 208.642 524.327 216.042 524.991 216.337C525.592 216.593 526.263 216.63 526.888 216.443C527.514 216.255 528.053 215.855 528.414 215.311L588.79 122.617L620.462 142.742L484.135 326.322L441.244 271.918L441.143 271.792L337.993 149.848C351.6 147.737 380.624 143.12 391.944 140.597C397.183 139.436 400.749 137.233 402.54 134.046C405.131 129.454 403.255 124.24 402.246 121.431C402.061 120.901 401.884 120.447 401.8 120.094C401.644 119.503 401.295 118.98 400.81 118.609C400.324 118.238 399.729 118.038 399.117 118.042C398.894 118.042 398.671 118.067 398.453 118.117C398.104 118.199 397.774 118.35 397.483 118.56C397.193 118.77 396.946 119.035 396.759 119.341C396.571 119.646 396.446 119.986 396.39 120.341C396.334 120.695 396.35 121.057 396.435 121.406C396.561 121.885 396.779 122.507 397.04 123.23C397.881 125.51 399.092 128.958 397.704 131.422C396.704 133.196 394.34 134.5 390.724 135.307C386.965 136.148 381.103 137.225 374.476 138.377C368.353 128.453 373.307 105.368 375.863 96.9495C375.982 96.5558 376.009 96.1398 375.94 95.7343C375.872 95.3286 375.71 94.9443 375.468 94.6116L352.904 63.4949C352.684 63.1906 352.404 62.9345 352.082 62.7422C351.759 62.5498 351.401 62.4254 351.029 62.3763C350.902 62.368 350.776 62.368 350.65 62.3763C350.018 62.3754 349.404 62.5887 348.909 62.9818L339.994 70.0883L320.592 49.3326C320.091 48.8038 319.403 48.4906 318.675 48.4592C317.947 48.4279 317.235 48.6808 316.69 49.1644C316.423 49.4015 316.206 49.6898 316.052 50.0125C315.898 50.335 315.811 50.6851 315.795 51.042C315.78 51.3989 315.836 51.7555 315.961 52.0902C316.086 52.4251 316.276 52.7313 316.522 52.9908L335.697 73.5111L320.13 85.9158L319.903 86.1176L307.397 98.5642L301.872 89.2293L315.916 3.76726e-06L310.349 3.70087e-06L296.287 89.3469C296.193 89.9606 296.315 90.588 296.632 91.1215L303.411 102.559L300.484 105.469L262.546 60.6272C265.574 53.4115 267.592 45.4136 270.157 35.3975C271.738 29.1909 273.521 22.1517 275.901 13.9857C277.323 9.08277 278.567 4.45728 279.661 0.00842619L269.678 0.00842607C268.744 3.64148 267.718 7.41761 266.566 11.3871C264.152 19.7129 262.361 26.8276 260.738 33.1099C258.291 42.7391 256.398 50.1904 253.657 56.7418L225.062 21.2603C236.155 11.6394 244.75 4.05359 249.174 0.00842582L234.877 0.00842565C230.487 3.90222 225.138 8.59497 219.091 13.8428L207.956 0.00842533L200.934 0.00842525L214.962 17.4338C205.013 26.0372 193.474 35.9355 181.321 46.1451L146.403 4.51612L151.878 0.00842466L143.308 0.00842456L142.913 0.328005L142.643 0.00842455L135.495 0.0421159ZM63.4373 183.269C61.503 175.044 54.7581 158.384 51.4866 150.47L58.2146 147.333C65.4389 143.969 72.2595 140.74 77.7512 138.225C85.7576 134.567 102.561 122.331 122.728 106.495L153.921 143.355C129.473 162.387 100.097 185.405 68.4917 210.24C67.1966 202.553 65.1025 190.342 63.4373 183.269ZM215.836 95.8058C206.291 102.752 185.661 118.605 158.219 139.958L127.001 103.122C144.712 89.0946 164.611 72.67 183.264 56.9688L215.836 95.8058ZM324.991 149.335L294.462 175.801L260.679 132.364L290.425 108.479L324.991 149.335ZM367.109 199.113L333.199 225.613L297.818 180.115L328.515 153.498L367.109 199.113ZM328.851 229.019L271.562 273.785L211.85 203.36L270.645 154.221L328.851 229.019ZM267.239 277.166L211.253 320.897L152.879 252.651L207.746 206.867L267.239 277.166ZM550.339 425.769C526.665 437.635 495.001 455.119 464.161 472.149C451.479 479.155 439.09 485.992 427.779 492.148L368.488 389.404L462.975 315.01L550.339 425.769ZM532.266 363.939C532.767 363.879 533.242 363.681 533.637 363.367L571.036 333.933L630.512 354.747C617.393 375.503 599.395 403.104 566.596 417.939C564.258 418.999 561.766 420.162 559.119 421.429L515.446 366.075L532.266 363.939ZM574.787 329.719L675.708 177.895L724.562 208.944C690.922 262.003 648.872 327.928 640.697 339.239C638.393 342.401 635.987 346.127 633.464 350.096L574.787 329.719ZM769.792 37.6848L769.792 110.01L721.064 101.289C720.433 86.639 719.281 51.7966 721.451 28.703L769.792 37.6848ZM872.504 164.994L883.841 149.486C897.516 180.494 913.276 211.879 922.771 230.221L775.309 138.108L775.309 116.553L789.9 119.169L868.837 165.768C869.439 166.122 870.15 166.239 870.833 166.096C871.516 165.953 872.121 165.56 872.529 164.994L872.504 164.994ZM887.575 133.76L948.481 124.273C951.786 138.949 954.368 149.814 954.461 150.109C957.312 162.009 961.878 194.53 963.03 202.906C950.011 208.902 937.026 218.75 930.467 224.057C919.744 203.15 901.679 166.996 887.6 133.76L887.575 133.76ZM943.923 76.0004L1020.74 72.771L1022.42 107.252L952.686 118.126C949.717 104.384 946.454 89.0778 943.973 76.0004L943.923 76.0004ZM1095.4 49.0047C1116.35 45.3631 1138.41 42.0496 1158.67 39.4088L1166.55 84.8224L1098.89 95.3684L1095.4 49.0047ZM1408.05 433.153L1401.78 483.612L1352.52 510.6L1352.47 510.507C1349.87 505.915 1347.42 501.576 1345.29 497.396C1336.78 480.719 1308.76 435.272 1298.05 419.125C1297.07 417.645 1294 410.572 1290.18 400.859L1379.16 393.761C1384.1 410.051 1393.64 423.061 1408.1 433.153L1408.05 433.153ZM1400.33 685.45L1283.27 592.411L1362.5 544.584C1363.03 546.549 1363.41 548.555 1363.61 550.58C1365.75 573.514 1354.64 608.878 1344.8 618.524C1344.52 618.798 1344.3 619.131 1344.16 619.499C1344.02 619.867 1343.97 620.261 1344 620.653C1344.03 621.045 1344.15 621.425 1344.34 621.766C1344.54 622.108 1344.8 622.402 1345.13 622.628L1410.88 672.945L1400.33 685.45ZM1519.21 792.012C1513.15 798.967 1499.59 814.542 1483.04 833.608L1459.61 815.947L1495.41 773.132L1519.21 792.012ZM1558.23 823.003L1524.08 864.581L1487.42 836.913C1504.06 817.763 1517.63 802.163 1523.5 795.418L1558.23 823.003ZM1572.53 834.348L1516.24 904.89L1503.29 898.372L1526.3 870.435C1526.46 870.303 1526.6 870.154 1526.73 869.989C1526.84 869.856 1526.93 869.715 1527.01 869.568L1562.53 826.409L1572.53 834.348ZM1535.43 926.066L1487.63 986.088L1458.8 973.397L1509.81 907.741L1515.77 910.743L1538.47 922.189L1535.43 926.066ZM1597.32 1094.9L1534.93 1063.6L1545.03 1051.27L1581.79 1072.3C1582.42 1072.66 1583.16 1072.76 1583.87 1072.58C1584.57 1072.4 1585.18 1071.95 1585.55 1071.32C1585.74 1071.02 1585.86 1070.68 1585.91 1070.32C1585.96 1069.97 1585.93 1069.61 1585.84 1069.26C1585.75 1068.92 1585.59 1068.59 1585.37 1068.31C1585.15 1068.03 1584.87 1067.8 1584.56 1067.62L1548.52 1047.04L1560.77 1032.08L1621.26 1065.33L1597.32 1094.9ZM1484.72 1142.76L1415.43 1091.99L1424.47 1080.67L1494.09 1129.9L1484.72 1142.76ZM1473.93 1157.52L1402.52 1108.21L1412.07 1096.26L1481.52 1147.15L1473.93 1157.52ZM1370.76 1132.54L1357.24 1121.18L1377.33 1096.2L1377.4 1096.09L1389.33 1079.61L1404.31 1090.58C1391.89 1106.13 1380.55 1120.33 1370.76 1132.54ZM1407.71 1086.28L1392.52 1075.15L1399.1 1066.06C1399.5 1065.52 1399.67 1064.85 1399.6 1064.19C1399.52 1063.52 1399.2 1062.91 1398.69 1062.48L1373.16 1040.12L1377.21 1029.84C1377.29 1029.64 1377.34 1029.42 1377.36 1029.2C1399.23 1033.61 1428.43 1038.78 1443.89 1040.93C1431.26 1056.81 1419.08 1072.08 1407.71 1086.32L1407.71 1086.28ZM1388.1 1071.91L1366.79 1056.29L1371 1045.51L1393.13 1064.9L1388.1 1071.91ZM1312.28 1152.82L1254.25 1162.91L1239.43 1157.45C1238.84 1157.23 1238.2 1157.22 1237.61 1157.4C1237.01 1157.59 1236.5 1157.98 1236.15 1158.49L1223.42 1177.52L1218.15 1167.36C1217.98 1167.02 1217.74 1166.73 1217.45 1166.49C1217.16 1166.25 1216.83 1166.08 1216.47 1165.98C1216.1 1165.87 1215.72 1165.85 1215.34 1165.9C1214.97 1165.95 1214.61 1166.08 1214.28 1166.27C1214.04 1166.42 1189.67 1180.96 1173.16 1180.21C1157.85 1179.49 1135.32 1175.01 1130.53 1174.03L1104.81 1072.8C1127.81 1076.45 1144.11 1079.01 1144.53 1079.14C1144.57 1079.14 1144.62 1079.14 1144.66 1079.14C1145.17 1081.83 1146.19 1083.6 1147.79 1084.73C1151.26 1087.17 1155.97 1085.33 1159.23 1083.74C1161.69 1082.53 1169.32 1079.29 1178.93 1075.19L1185.99 1072.18L1312.28 1152.82ZM1325.45 1191.93C1324.35 1194.93 1323.53 1198.03 1323 1201.18L1300.52 1204.79L1298.43 1161.33C1298.42 1161.15 1298.4 1160.98 1298.36 1160.81L1317.5 1157.45L1323.99 1190.05C1324.07 1190.46 1324.25 1190.83 1324.5 1191.16C1324.75 1191.48 1325.08 1191.75 1325.45 1191.93ZM1181.63 1270.96L1181.63 1229.32L1295.36 1211.08L1297.52 1256.07L1181.63 1270.96ZM583.088 1192.16L626.61 1208.13L594.812 1264.14L553.905 1245.15C566.436 1223 577.066 1203.91 583.046 1192.16L583.088 1192.16ZM585.518 1187.26C586.284 1185.66 586.906 1184.28 587.36 1183.17C592.07 1171.64 610.623 1150.48 630.773 1129.87L663.909 1142.38L629.285 1203.39L585.518 1187.26ZM687.39 1076.89L699.038 1080.35L666.575 1137.6L634.894 1125.65C656.399 1103.95 678.711 1083.68 687.39 1076.89ZM256.222 1144.94C246.802 1146.17 222.581 1149.34 199.815 1152.32L201.169 1112.79L258.358 1138.67C257.492 1140.7 256.778 1142.8 256.222 1144.94ZM201.371 1106.88L202.212 1081.94L262.967 1130.23C262.176 1131.39 261.427 1132.58 260.746 1133.79L201.371 1106.88ZM152.088 889.256L237.677 838.401C244.229 843.144 251.975 843.599 259.039 844.019C260.334 844.103 261.655 844.179 262.983 844.288L273.269 882.133L273.328 882.301L280.56 902.586L211.673 975.643L152.088 889.256ZM182.625 631.198L224.911 601.401C226.643 637.421 227.939 678.478 228.376 692.758L182.625 631.198ZM136.563 386.217L210.504 328.441L301.703 435.062L221.025 498.573C216.678 486.426 210.596 474.97 202.969 464.564C196.762 455.868 169.716 424.331 136.563 386.217ZM76.0104 316.919L148.699 256.183L206.955 324.303L132.947 382.113C114.848 361.256 95.0508 338.684 76.0104 316.919ZM222.884 504.082L364.173 392.836L422.977 494.772C408.57 502.568 396.25 509.069 387.814 512.98C350.515 530.397 321.282 537.823 282.234 524.257C249.157 512.769 236.71 524.644 229.629 536.477C228.263 525.513 226.008 514.679 222.884 504.082ZM570.734 426.543C582.329 421.275 593.036 414.239 602.473 405.686C607.427 407.502 616.829 410.951 628.444 415.223C623.297 431.959 608.091 449.611 598.823 452.403C596.981 452.958 593.071 454.926 587.823 457.71C580.59 448.543 573.004 438.922 565.242 429.116C567.126 428.191 568.959 427.333 570.7 426.543L570.734 426.543ZM648.586 344.739C649.696 343.209 651.386 340.736 653.564 337.482L673.387 344.529C672.739 347.355 671.604 352.359 670.511 357.321C669.552 361.727 668.829 365.26 668.316 367.808L667.971 369.591L638.241 360.575L639.747 358.195C643.035 352.964 645.911 348.456 648.586 344.739ZM815.274 174.22L754.401 221.416L735.655 209.499C753.317 181.587 768.32 157.871 774.207 148.544L815.274 174.22ZM753.493 227.337C754.077 227.707 754.777 227.848 755.458 227.733C756.14 227.618 756.755 227.256 757.185 226.715L820.084 177.222L1009.89 295.701L992.163 344.167C991.968 344.695 991.944 345.271 992.095 345.813C992.246 346.355 992.564 346.836 993.004 347.187C1039.44 383.728 1053.88 434.086 1035.9 496.883C1033.88 503.791 1032.41 510.846 1031.49 517.984L784.072 360.306C785.603 352.989 784.61 347.599 773.24 344.479C771.558 344.008 768.278 342.948 764.14 341.594C755.184 338.667 745.848 335.707 736.538 333.041C736.435 332.986 736.328 332.939 736.219 332.898C736.001 332.823 735.775 332.775 735.546 332.755C713.15 326.322 690.922 321.334 674.152 321.334C670.597 321.304 667.045 321.586 663.539 322.176C680.864 295.533 708.81 251.65 732.594 214.133L753.493 227.337ZM933.057 229.019C940.222 223.132 958.001 209.474 973.047 204.807C977.395 203.453 987.924 202.788 1001.64 202.578C1001.67 202.755 1001.71 202.93 1001.77 203.099L1009.1 224.124C1006.49 227.244 990.262 259.74 985.696 269.445L938.944 240.246C937.893 238.287 935.841 234.393 933.057 229.027L933.057 229.019ZM996.418 169.149L1117.52 135.854L1120.05 146.551C1119.96 146.981 1119.98 147.428 1120.11 147.846C1120.2 148.152 1120.35 148.438 1120.55 148.687L1126.58 173.917C1124.13 173.917 1118.26 173.816 1118.23 173.816C1117.65 173.816 1079.67 174.893 1049.63 175.851L1049.6 175.851C1034.09 176.339 1020.71 176.81 1015.7 177.079C1010.36 177.408 1005.11 178.704 1000.23 180.906L996.418 169.149ZM1022.82 112.676L1028.93 154.583L994.745 163.985L980.254 119.311L1022.82 112.676ZM1167.52 90.1292L1171.89 115.283L1121.59 129.109L1114.27 98.4297L1167.52 90.1292ZM1172.82 120.649L1175.12 133.919L1192.21 232.433L1193.34 238.985C1190.2 239.632 1184.67 240.969 1174.56 243.433L1152.28 138.242C1152.2 137.87 1152.05 137.519 1151.82 137.212C1151.6 136.905 1151.31 136.648 1150.98 136.459C1150.55 136.217 1150.07 136.089 1149.57 136.089C1149.29 136.089 1149.01 136.129 1148.73 136.207L1124.99 143.473L1122.81 134.348L1172.82 120.649ZM1217.3 129.731C1219.32 152.951 1222.93 190.485 1226.08 223.922L1197.19 228.834L1181.03 135.669L1217.3 129.731ZM1256.63 205.135L1288.74 201.426L1292.78 243.475C1281.68 244.316 1266.62 245.477 1260.89 245.797C1259.5 232.316 1258.05 218.473 1256.63 205.135ZM1255.65 248.816L1255.77 249.985L1255.86 251.044L1259.5 288.048L1237.64 292.48C1237.64 291.765 1237.59 290.983 1237.54 290.109C1237.4 286.745 1237.12 281.799 1236.7 275.45C1235.98 264.778 1234.86 249.917 1233.34 231.298L1233.08 228.195L1253.13 224.78C1254 232.887 1254.84 240.927 1255.64 248.824L1255.65 248.816ZM1283.66 399.168L1283.75 399.404C1287.23 408.419 1290.31 415.753 1292.16 419.588L1248.81 445.49L1226.05 366.134C1226.25 366.075 1226.45 365.997 1226.64 365.899L1265.63 344.235C1269.62 360.718 1277.3 382.702 1283.66 399.177L1283.66 399.168ZM1339.22 497.564L1237.27 555.761C1235.93 553.339 1234.27 550.622 1232.33 547.755L1331.86 484.436C1334.79 489.474 1337.32 493.982 1339.22 497.547L1339.22 497.564ZM1263.67 589.047C1263.84 596.616 1264.46 623.881 1264.94 651.18L1199.13 655.78C1195.4 627.901 1192.77 607.549 1192.14 602.604L1233.78 565.298L1263.67 589.047ZM1320.72 634.36C1320.77 637.724 1320.85 642.131 1321 647.261L1270.49 650.793C1270.07 627.666 1269.58 604.631 1269.31 593.53L1320.72 634.36ZM1405.34 781.811L1376.75 815.627L1363.06 805.409L1390.73 770.794L1405.34 781.811ZM1447.14 874.976C1431.3 893.276 1415.48 911.593 1402.57 926.714L1350.94 886.489L1393.44 834.852L1447.14 874.976ZM1498.32 895.891L1455.13 874.135C1464.99 862.74 1474.79 851.428 1483.82 841.05L1520.59 868.803L1498.32 895.891ZM1504.77 905.226L1408.19 1029.57C1405.32 1029.06 1402.41 1028.54 1399.51 1028.01C1398.34 1020.63 1401.49 1008.56 1411.29 998.972C1421.38 989.107 1486.53 901.484 1489.23 897.843C1489.31 897.733 1489.38 897.617 1489.43 897.498L1504.77 905.226ZM1447.83 1036.03C1440.82 1035.08 1428.22 1033.07 1414.31 1030.65L1455.35 977.829L1484.11 990.495L1447.83 1036.03ZM1478.29 1013.2L1540.21 1048.52L1529.91 1061.09L1465.75 1028.9L1478.29 1013.2ZM1452.01 878.601C1452.14 878.693 1452.28 878.777 1452.42 878.853L1484.52 895.025C1481.86 898.616 1459.38 928.816 1439.18 955.257L1406.88 930.069C1419.85 914.932 1435.69 896.589 1451.57 878.256L1452.01 878.601ZM1250.37 953.23L1214.84 963.642L1197.96 968.587C1199.38 956.342 1200.63 946.494 1201.46 941.826C1204.42 925.192 1197.79 891.989 1195.24 880.291L1226.36 873.563L1227.06 876.994C1232.38 902.535 1241.29 929.489 1250.37 953.222L1250.37 953.23ZM1225.21 1003.93L1192.26 1020.75C1193.87 1005.35 1195.63 988.695 1197.27 974.449L1213.88 969.579L1225.21 1003.93ZM1182.07 1066.27C1181.98 1066.36 1181.9 1066.46 1181.83 1066.56C1181.52 1067.07 1181.4 1067.66 1181.47 1068.24C1179.79 1068.96 1178.19 1069.64 1176.68 1070.29C1166.59 1074.59 1159.3 1077.69 1156.71 1078.97C1152.33 1081.1 1151.16 1080.54 1150.96 1080.41C1150.27 1079.92 1148.85 1077.42 1150.65 1064.87C1151.54 1058.65 1155.41 1025.45 1160.02 985.323L1191.52 976.072C1187.78 1009.12 1183.32 1053.5 1182.07 1066.26L1182.07 1066.27ZM989.043 1048.46C1001.22 1025.99 1008.28 1013.51 1046.31 1001.59C1081.53 990.537 1140.56 962.902 1158 954.593C1151.99 1007.14 1146.29 1056.46 1145.19 1064.15C1144.69 1067.41 1144.38 1070.7 1144.28 1074C1134.76 1072.37 1042.33 1057.9 989.043 1048.46ZM890.342 1007.19C883.9 1002.39 847.661 974.39 798.058 935.982L849.637 840.243L849.772 839.949C850.159 838.965 859.233 815.56 860.301 795.713C860.747 787.362 865.835 748.491 871.503 706.736C871.599 706.557 871.672 706.368 871.722 706.172C871.806 705.787 871.806 705.388 871.722 705.003C878.156 657.613 885.262 607.011 887.121 593.378L947.749 636.521C944.966 645.924 918.423 735.447 898.601 800.994C898.496 801.156 898.414 801.331 898.357 801.515C898.278 801.746 898.235 801.987 898.231 802.23C891.646 823.987 885.834 843.002 881.924 855.415C880.014 858.165 863.421 881.981 855.6 889.458C846.231 898.398 836.181 917.917 831.017 928.749C824.718 941.978 829.663 946.073 836.787 950.051L837.165 950.262C840.095 951.96 842.831 953.973 845.323 956.266C848.266 958.882 851.555 962.153 855.55 966.182C861.361 972.068 874.666 982.8 885.288 989.982C888.636 992.339 892.165 994.429 895.842 996.23C903.815 999.779 968.396 1024.64 987.277 1031.9C984.871 1035.87 982.584 1040.1 980.128 1044.61L979.035 1046.63C965.949 1044.23 956.428 1042.27 952.963 1041.16C933.2 1034.7 911.519 1022.94 890.334 1007.19L890.342 1007.19ZM876.322 1003.35C873.547 1009.56 865.524 1027.52 854.456 1052.27L789.228 1025.56L817.822 958.184C843.742 978.25 864.304 994.136 876.348 1003.35L876.322 1003.35ZM602.835 887.717L579.11 963.339C565.233 960.387 548.674 956.821 530.592 952.885C532.88 945.476 540.457 923.089 545.419 908.632C545.618 908.045 545.608 907.407 545.39 906.826C545.172 906.245 544.761 905.757 544.225 905.445L520.382 891.384L525.815 873.117L602.835 887.717ZM658.072 922.198C660.15 921.567 661.764 921.508 662.277 922.03C665.019 924.855 659.443 939.976 655.751 949.984L654.658 952.944C648.224 970.496 632.665 972.851 620.757 971.749C618.141 971.505 604.66 968.78 584.518 964.516L601.338 911.029C609.84 914.233 644.011 926.445 658.064 922.189L658.072 922.198ZM357.328 1089.16L445.205 1110.34L428.023 1168.13L382.373 1159.4L357.328 1089.16ZM282.478 879.383L272.504 842.556C277.499 840.176 286.069 835.407 291.704 828.578L418.2 852.622C414.785 875.018 410.959 900.29 407.115 925.789C351.609 913.527 303.478 902.821 289.795 899.768L282.478 879.383ZM388.008 1090.98C389.505 1080.88 395.467 1040.78 402.717 992.345L473.992 1013.51L446.752 1105.18L388.008 1090.98ZM404.138 982.867L411.707 932.407C438.266 938.244 466.247 944.366 492.848 950.253L476.7 1004.42L404.138 982.867ZM412.548 927.008C414.979 910.836 417.409 894.773 419.73 879.467L454.212 883.941L454.212 903.856C454.218 904.511 454.461 905.142 454.895 905.634C455.329 906.125 455.925 906.443 456.575 906.53L480.855 910.012L472.193 940.161C452.278 935.771 432.009 931.306 412.523 927.008L412.548 927.008ZM406.333 931.213L398.815 981.303L309.407 954.752L291.964 905.849C309.432 909.717 354.729 919.792 406.308 931.188L406.333 931.213ZM397.393 990.781L388.655 1049.31L372.584 1046.34C372.417 1046.31 372.248 1046.3 372.079 1046.29C371.44 1046.29 370.82 1046.51 370.325 1046.91C369.829 1047.32 369.489 1047.88 369.362 1048.51C369.298 1048.86 369.305 1049.22 369.382 1049.57C369.459 1049.92 369.604 1050.25 369.81 1050.54C370.016 1050.84 370.277 1051.09 370.58 1051.28C370.883 1051.47 371.221 1051.6 371.574 1051.66L387.831 1054.65L382.617 1089.68L355.149 1083.05L313.335 965.795L397.393 990.781ZM454.582 1112.64L507.784 1125.47L484.236 1178.92L437.501 1169.98L454.582 1112.64ZM456.129 1107.43L483.227 1016.29L547.421 1035.35L509.996 1120.42L456.129 1107.43ZM485.935 1007.19L502.25 952.314C530.323 958.444 556.369 964.088 576.848 968.444L551.273 1026.6L485.935 1007.19ZM503.781 947.074L518.751 896.724L539.431 908.977C530.306 935.578 526.564 946.763 525.176 951.742L503.781 947.074ZM494.328 945.005L477.55 941.33L486.944 908.532C487.047 908.16 487.07 907.77 487.011 907.388C486.951 907.007 486.811 906.643 486.599 906.32C486.38 905.998 486.096 905.724 485.766 905.517C485.436 905.31 485.067 905.174 484.682 905.117L459.687 901.476L459.687 881.527C459.681 880.864 459.434 880.226 458.991 879.732C458.548 879.238 457.94 878.922 457.282 878.845L420.521 874.118C421.581 867.087 422.624 860.25 423.633 853.657L516.287 871.267L494.328 945.005ZM424.415 848.291C430.142 810.775 434.6 782.324 435.853 776.109L539.574 797.125C538.615 798.454 538.018 799.304 537.892 799.48L537.446 800.111L537.228 800.843L517.834 866.061L424.415 848.291ZM363.862 672.776L387.52 760.828L373.753 758.036L351.239 675.854C355.606 674.812 359.828 673.797 363.904 672.81L363.862 672.776ZM393.558 762.048L369.262 671.507C373.946 670.363 378.387 669.269 382.533 668.227C396.594 688.806 408.503 705.684 414.491 712.917C429.368 730.872 434.97 749.5 431.538 769.734L393.558 762.048ZM418.789 709.503C412.977 702.497 401.64 686.468 388.176 666.797C401.388 663.433 410.976 660.725 415.088 659.119C419.579 657.353 423.498 656.116 427.022 655.015L427.072 655.015L470.628 688.839C470.531 689.042 470.463 689.257 470.427 689.479L462.571 776.025L436.929 770.836C440.756 748.92 434.818 728.812 418.789 709.503ZM391.969 521.532C400.463 517.571 412.716 511.138 427.005 503.409L471.924 626.867C446.853 637.177 428.141 644.721 424.07 645.991C420.429 647.135 416.299 648.43 411.455 650.322C407.25 651.953 396.872 654.83 382.457 658.471C352.601 614.555 315.176 557.409 303.335 539.319C334.318 544.054 361.163 535.913 391.969 521.532ZM673.295 371.188C673.564 369.607 674.051 367.16 674.665 364.25L719.844 369.801L714.739 383.753L692.722 377.075L673.295 371.188ZM659.224 328.903C673.9 323.016 705.943 329.98 731.753 337.246L721.753 364.578L675.809 358.935C676.928 353.797 678.214 348.103 679.299 343.385C679.448 342.738 679.351 342.058 679.028 341.477C678.705 340.896 678.178 340.456 677.55 340.24L656.659 332.806L659.224 328.903ZM762.475 346.699C762.694 346.766 762.887 346.833 763.097 346.901C762.366 350.349 760.213 357.043 754.418 358.91C754.075 359.014 753.757 359.186 753.481 359.415C753.206 359.644 752.979 359.926 752.815 360.245C752.65 360.563 752.551 360.911 752.523 361.268C752.495 361.625 752.539 361.984 752.652 362.324C752.89 363.012 753.388 363.578 754.039 363.902C754.69 364.226 755.442 364.282 756.134 364.057C764.258 361.441 767.294 353.267 768.379 348.608C769.809 349.062 770.969 349.449 771.827 349.659C780.826 352.123 780.237 354.318 777.277 364.847L776.554 367.48C775.713 370.423 770.919 382.365 764.081 398.714L720.021 385.359L737.068 338.768C747.522 341.821 756.588 344.739 762.475 346.699ZM990.388 272.422C994.358 264.273 1011.34 232.055 1013.19 228.144C1013.25 228.147 1013.31 228.147 1013.37 228.144C1013.63 228.057 1013.86 227.932 1014.08 227.774C1016.6 227.909 1022.28 229.826 1027 231.416C1028.68 231.979 1030.45 232.576 1032.3 233.182C1036.24 234.477 1037.11 236.546 1037.43 238.051C1038.88 244.779 1020.42 275.677 1012.2 286.105L990.388 272.422ZM1007.38 202.528C1019.15 202.452 1032.83 202.645 1046.72 202.99C1046.04 221.938 1043.99 230.583 1041.98 234.376C1040.82 231.979 1038.53 229.473 1034.05 228.01C1032.2 227.404 1030.45 226.818 1028.79 226.252C1022.51 224.133 1017.76 222.552 1014.29 222.383L1007.38 202.528ZM1126.29 148.788L1147.51 142.296L1169.21 244.771C1167.86 245.107 1166.45 245.455 1165.01 245.813C1159.96 247.058 1154.86 248.336 1150.35 249.413L1126.29 148.788ZM1207.86 322.621C1207.88 322.718 1207.9 322.814 1207.92 322.907L1237.75 426.879L1079.98 328.332L1096.44 305.843C1096.77 305.384 1096.95 304.83 1096.95 304.262C1096.95 297.534 1101.23 283.238 1104.84 277.914C1105.5 277.064 1105.98 276.084 1106.24 275.037C1106.49 273.991 1106.53 272.903 1106.34 271.842C1105.73 269.058 1103.49 267.099 1100.45 265.114L1135.07 258.723C1135.29 258.723 1135.52 258.698 1135.74 258.647C1155.99 253.601 1185.42 246.402 1194.3 244.35L1207.86 322.621ZM1034.84 300.167C1039.26 291.757 1048.29 275.139 1056.07 261.246L1078.91 277.065L1053.24 311.663L1034.84 300.167ZM1063.88 247.647C1068.92 251.011 1081.59 259.421 1088.59 264.021L1082.16 272.692L1058.76 256.486C1060.61 253.231 1062.35 250.229 1063.89 247.647L1063.88 247.647ZM1134.38 206.438L1144.95 250.716L1134.69 253.239L1093.78 260.808C1087.49 256.696 1072.13 246.511 1066.71 242.887C1067.56 241.466 1068.5 240.104 1069.53 238.808C1075.41 232.181 1071.87 210.744 1070.46 203.596C1101.59 204.765 1129.22 206.203 1134.38 206.48L1134.38 206.438ZM1057.9 314.531L1093.23 266.964C1093.64 267.217 1094.07 267.469 1094.45 267.721C1097.49 269.597 1100.64 271.539 1100.95 272.961C1100.97 273.669 1100.72 274.361 1100.26 274.895C1096.21 280.849 1091.78 295.314 1091.46 303.354L1075.32 325.405L1057.9 314.531ZM1127.71 179.308L1127.86 179.308L1133.03 200.972C1123.04 200.442 1085.65 198.541 1052.39 197.473C1052.48 192.528 1052.48 187.129 1052.39 181.276C1085.21 180.376 1127.17 179.367 1127.75 179.35L1127.71 179.308ZM1064.75 203.469C1067.04 214.495 1068.71 231.508 1065.33 235.301C1063.31 237.572 1058.47 245.679 1052.92 255.485C1052.92 255.535 1052.82 255.577 1052.77 255.636C1052.62 255.859 1052.5 256.102 1052.42 256.36C1044.19 270.951 1034.53 288.956 1030.14 297.215L1016.81 288.881C1024.52 278.789 1040.18 253.954 1042.64 241.432C1048.35 238.009 1051.4 226.042 1052.24 203.083C1056.46 203.251 1060.65 203.377 1064.79 203.511L1064.75 203.469ZM1241.53 440.259L1244.15 449.392L1238.94 460.325C1238.78 460.674 1238.69 461.055 1238.69 461.439C1238.69 461.824 1238.78 462.205 1238.94 462.554L1250 487.422L1250 506.622L1232.75 516.714L1198.71 462.47C1198.46 462.074 1198.11 461.749 1197.7 461.524C1197.29 461.299 1196.83 461.181 1196.36 461.183L1161.51 461.183L1153.94 454.354L1141.43 443.135C1141.07 442.806 1140.62 442.58 1140.14 442.479L1047.19 424.65C1041.98 393.239 1025.58 366.302 998.025 344.134L1014.67 298.628L1241.53 440.259ZM1329.05 479.676L1229.14 543.239C1228.7 542.625 1228.23 542.011 1227.76 541.397L1234.1 522.273L1323.25 469.938L1329.05 479.676ZM1225.85 548.562C1225.95 548.719 1226.07 548.865 1226.2 548.999C1228.83 552.918 1231.09 556.089 1232.99 558.595L1209.98 579.199L1136.82 470.123C1141.65 466.616 1146.71 463.134 1151.77 459.846L1158.39 465.817L1222.49 543.348C1223.58 545.03 1224.62 546.616 1225.6 548.108C1225.68 548.284 1225.77 548.451 1225.89 548.604L1225.85 548.562ZM1294.11 689.378L1297.6 728.652C1297.64 729.035 1297.75 729.407 1297.94 729.742C1298.13 730.077 1298.39 730.368 1298.7 730.595C1298.81 730.67 1309.3 738.281 1319.73 745.732C1325.86 750.106 1330.77 753.554 1334.34 755.993C1336.1 757.212 1337.54 758.171 1338.65 758.886L1324.04 776.269L1302.07 759.87L1275.75 740.216C1275.27 739.852 1274.68 739.657 1274.07 739.66C1273.7 739.665 1273.33 739.742 1272.98 739.888C1272.73 737.003 1272.4 734.001 1272.07 731.108C1271.35 724.842 1270.69 718.922 1270.97 714.7C1271.18 711.74 1271.18 702.926 1271.07 691.211L1294.11 689.378ZM1298.06 845.314L1282.99 833.54L1324.92 783.67L1339.1 794.249C1325.98 810.649 1310.97 829.277 1298.06 845.314ZM1343.48 797.571L1355.25 806.393L1314.1 857.853L1302.33 848.678C1315.35 832.615 1330.36 813.92 1343.49 797.571L1343.48 797.571ZM1299.11 805.88C1298.86 805.384 1298.48 804.973 1298 804.703L1278.21 793.433L1300.8 765.681L1320.51 780.39L1299.11 805.88ZM1265.47 714.305C1265.15 719.006 1265.84 725.153 1266.58 731.671C1267.76 742.125 1269.1 753.966 1265.89 758.902C1264.56 760.963 1261.29 765.714 1257.15 771.727C1238.65 798.589 1228.28 814.206 1223.16 823.028C1218.96 796.596 1214.42 765.95 1210.17 736.044L1260.07 736.044C1260.79 736.044 1261.48 735.759 1261.99 735.251C1262.5 734.743 1262.78 734.054 1262.78 733.336C1262.78 732.618 1262.5 731.929 1261.99 731.421C1261.48 730.914 1260.79 730.628 1260.07 730.628L1209.39 730.628C1207.7 718.955 1206.14 707.434 1204.62 696.375L1265.53 691.623C1265.66 703.002 1265.66 711.487 1265.47 714.305ZM1203.9 690.992C1202.46 680.48 1201.1 670.447 1199.85 661.146L1265.04 656.579C1265.22 667.016 1265.38 677.251 1265.49 686.182L1203.9 690.992ZM1193.96 658.766L1193.96 658.841C1193.96 658.942 1193.96 659.035 1194.01 659.136C1195.43 669.749 1197.01 681.388 1198.69 693.616C1198.64 694.025 1198.7 694.439 1198.86 694.819C1204.96 739.324 1212.42 791.617 1219.04 832.077L1219.04 832.514C1219.07 832.774 1219.14 833.029 1219.24 833.271C1221.4 846.441 1223.44 858.324 1225.36 868.223L1172.08 879.761L1179.08 817.982C1179.12 817.631 1179.08 817.275 1178.98 816.936C1178.88 816.597 1178.72 816.281 1178.5 816.006L1166.34 800.918L1136.19 658.791C1136.12 658.513 1136 658.248 1135.85 658.009C1145.54 646.487 1152.67 638.203 1153.83 636.858C1153.88 636.827 1153.92 636.793 1153.96 636.757L1163.04 628.633L1187.14 607.045C1188.24 615.539 1190.71 634.478 1193.96 658.766ZM952.509 639.927L1039.31 701.69L984.14 827.04L904.479 800.691C923.234 738.609 947.606 656.453 952.509 639.927ZM1148.83 634.15C1127.41 655.746 1071.24 725.078 1061.67 743.798C1060.32 746.43 1059.15 748.76 1058.11 750.669C1054.1 758.179 1038.34 798.908 1022.79 839.814L1003.1 833.296C1002.73 832.828 1002.23 832.489 1001.66 832.329C1001.42 832.263 1001.17 832.229 1000.92 832.228C1000.67 832.23 1000.43 832.266 1000.19 832.338L989.337 828.747L1089.16 601.914C1114.18 615.925 1142.34 630.786 1148.83 634.15ZM1165.65 887.078L1165.57 887.078L1081.15 859.157L1145.34 728.685L1161.08 802.794C1161.17 803.179 1161.35 803.538 1161.6 803.845L1173.43 818.537C1172.79 824.306 1169.66 852.101 1165.65 887.078ZM1143.51 720.015C1143.44 720.098 1143.37 720.191 1143.33 720.292L1075.82 857.374L1028.07 841.58C1043.51 800.868 1059.18 760.45 1063.01 753.2C1064.04 751.275 1065.25 748.92 1066.62 746.245C1072.81 734.135 1107.68 691.581 1131.45 663.24L1143.51 720.015ZM949.625 995.456L973.972 930.582C985.914 934.88 1007.61 942.55 1029.99 950.438L1000.43 1010.46L949.625 995.456ZM951.744 914.292L987.201 833.742L997.487 837.106C992.255 855.558 985.149 880.342 982.651 888.466L980.069 887.28C979.725 887.121 979.353 887.034 978.974 887.022C978.596 887.011 978.219 887.075 977.866 887.212C977.516 887.349 977.198 887.556 976.932 887.821C976.665 888.086 976.457 888.402 976.318 888.751L963.653 920.709C959.558 918.812 955.581 916.669 951.744 914.292ZM1032.78 848.821L1014.8 903.317L1006.28 899.398C1011.95 884.261 1018.97 865.557 1026.14 846.626L1032.78 848.821ZM1001.26 897.086L987.647 890.812C988.883 887.145 991.011 879.719 995.46 864.245C998.386 854.052 1001.28 843.885 1002.7 838.881L1020.9 844.894C1013.84 863.631 1006.91 882.049 1001.29 897.086L1001.26 897.086ZM968.985 923.005C968.892 923.005 968.8 922.938 968.707 922.896L980.372 893.461L983.088 894.714L999.32 902.199C994.064 916.243 990.212 926.588 988.883 930.179C979.724 926.89 972.593 924.334 969.01 923.005L968.985 923.005ZM994.106 932.012C995.376 928.598 999.152 918.405 1004.37 904.495L1015.3 909.541C1015.66 909.699 1016.04 909.78 1016.43 909.78C1016.83 909.78 1017.21 909.699 1017.57 909.541C1017.93 909.389 1018.26 909.159 1018.52 908.869C1018.79 908.578 1018.98 908.234 1019.1 907.859L1038.02 850.503L1073.4 862.21L1032.39 945.468C1018.72 940.716 1005.28 935.956 994.131 932.012L994.106 932.012ZM981.919 832.001L947.026 911.298C943.889 909.221 940.912 907.144 938.153 905.218C932.35 901.173 927.346 897.649 923.2 895.833C921.064 894.891 917.835 893.781 914.084 892.469C903.445 888.819 885.624 882.722 882.344 875.649L882.285 875.497C882.246 875.382 882.198 875.269 882.142 875.161C881.746 874.088 881.783 872.903 882.243 871.856C884.135 867.18 892.503 840.05 902.881 805.788L981.919 832.001ZM876.751 876.33L846.071 949.765C844.133 948.196 842.068 946.789 839.898 945.56L839.52 945.35C834.095 942.323 831.379 940.8 836.021 931.053C840.05 922.643 850.394 902.005 859.452 893.36C863.901 889.113 870.738 880.274 876.449 872.52C876.291 873.798 876.394 875.094 876.751 876.33ZM850.461 953.55L880.317 882.066C883.967 885.774 889.795 888.911 896.094 891.594L856.937 959.807C854.574 957.46 852.446 955.375 850.461 953.55ZM860.966 963.827L901.241 893.68C905.034 895.126 908.811 896.421 912.292 897.607C915.909 898.852 919.02 899.92 920.946 900.769C923.066 901.766 925.107 902.921 927.052 904.226C915.345 917.631 892.108 969.167 885.7 983.641C877.035 977.579 868.772 970.96 860.966 963.827ZM890.325 986.786C902.688 958.739 923.318 915.722 931.577 907.27L934.941 909.625C943.855 915.857 954.948 923.602 967.025 928.076L968.766 928.715L943.998 994.826C943.706 995.001 943.45 995.229 943.241 995.499L935.403 1006.09C917.591 999.165 901.763 992.95 898.163 991.352C895.446 990.018 892.826 988.492 890.325 986.786ZM940.71 1008.1L945.941 1001.04C946.461 1000.98 946.953 1000.77 947.354 1000.44L998 1015.4L995.695 1020.07C993.757 1022.36 991.951 1024.75 990.287 1027.25C981.617 1023.91 960.575 1015.85 940.71 1008.1ZM1035.3 952.322C1058.28 960.421 1081.22 968.469 1094.35 973.078C1076.2 980.739 1057.62 988.081 1043.33 992.563C1026.94 997.71 1015.65 1003.19 1007.23 1009.38L1035.3 952.322ZM1037.71 947.419L1078.74 864.026L1163.83 892.174C1164.23 892.303 1164.66 892.337 1165.07 892.275L1159.19 944.013C1152.83 947.024 1128.48 958.444 1101.75 969.924C1090.56 965.997 1064.22 956.746 1037.73 947.419L1037.71 947.419ZM1171.43 885.446L1189.83 881.46C1192.31 892.898 1198.77 925.41 1196.01 940.901C1195.11 945.989 1193.74 956.88 1192.19 970.277L1160.7 979.528C1164.23 948.681 1168.13 914.444 1171.42 885.446L1171.43 885.446ZM1162.44 621.846C1159.22 612.99 1151.01 591.781 1144.03 584.943C1142.74 583.673 1140.86 580.89 1138.62 577.097L1162.9 558.696C1163.47 558.274 1163.84 557.647 1163.94 556.951C1164.05 556.256 1163.87 555.547 1163.46 554.979L1114.75 488.027C1120.39 482.866 1126.28 477.993 1132.41 473.428L1205.87 582.933L1162.44 621.846ZM1135.9 572.32C1124.45 551.598 1106.97 513.173 1103.76 503.636C1102.98 501.323 1105.76 497.11 1110.79 491.862L1157.42 555.963L1135.9 572.32ZM1228.83 520.868L1223.73 536.233L1166.24 466.683L1194.84 466.683L1228.83 520.868ZM1138.25 447.702L1147.63 456.112C1131.82 466.464 1094.26 492.653 1098.52 505.335C1101.52 514.266 1120.38 556.333 1132.54 577.534C1132.58 577.607 1132.62 577.677 1132.66 577.744C1135.7 583.026 1138.3 586.995 1140.12 588.77C1146.22 594.749 1154.6 616.136 1158.02 625.773L1153.06 630.205C1153 630.159 1152.93 630.116 1152.85 630.079C1152.43 629.877 1118.24 611.931 1089.71 595.893C1089.51 595.721 1089.28 595.579 1089.04 595.472C1089 595.469 1088.97 595.469 1088.93 595.472C1072.11 586.037 1057.48 577.316 1053.01 573.38C1040.92 562.707 1029.07 541.018 1041.29 498.304C1048.3 473.815 1050.55 451.164 1048.02 430.352L1138.25 447.702ZM1030.98 524.005C1028.92 553.86 1040.76 569.898 1049.32 577.45C1053.92 581.512 1068.09 590.006 1084.41 599.249L1041.52 696.618L827.451 544.206C834.524 535.064 868.585 474.126 866.331 463.866C865.246 458.938 860.629 455.254 852.875 452.453C844.852 449.552 821.169 438.754 799.993 428.906L824.55 392.373L1030.96 523.946L1030.98 524.005ZM543.14 792.323L468.038 777.118L475.607 692.742C500.543 712.084 532.67 737.053 567.983 764.461C559.144 771.921 549.103 784.435 543.14 792.323ZM580.001 766.85C591.431 754.941 590.094 734.051 588.571 710.175L588.462 708.493C588.159 703.658 589.303 694.037 591.448 681.582C599.235 682.179 615.551 683.365 633.776 684.441L623.683 800.817C608.907 789.254 594.206 777.85 580.001 766.85ZM705.438 680.673C703.579 680.842 701.359 680.968 698.844 681.043C693.445 651.911 683.101 596.81 656.5 549.302L719.777 545.551L741.786 683.028C725.311 681.136 711.939 680.051 705.438 680.673ZM786.915 498.237C787.001 497.89 787.017 497.529 786.963 497.175C786.908 496.821 786.783 496.482 786.596 496.176C786.409 495.871 786.163 495.606 785.873 495.397C785.583 495.188 785.253 495.038 784.905 494.957C778.009 493.275 772.979 485.572 767.647 477.431C766.184 475.194 764.679 472.89 763.089 470.652C758.55 464.29 752.894 458.805 746.395 454.463C751.887 441.647 757.328 428.872 762.256 417.241C775.906 423.7 836.627 452.361 850.949 457.533C856.836 459.652 860.621 462.159 860.991 465.237C861.899 472.805 828.242 534.383 822.986 541.027L814.71 535.14C814.22 534.789 813.631 534.603 813.028 534.61L812.86 534.61L709.105 540.766C713.697 530.203 728.868 495.268 744.192 459.56C749.75 463.432 754.6 468.231 758.531 473.747C760.053 475.9 761.542 478.171 762.971 480.358C768.909 489.432 774.518 498.018 783.542 500.222C784.253 500.404 785.006 500.297 785.638 499.925C786.27 499.553 786.729 498.946 786.915 498.237ZM747.446 683.718L725.311 545.223L812.212 540.068L882.067 589.771C881.739 592.697 873.783 649.094 866.541 702.32C852.118 699.73 791.162 689.142 747.446 683.718ZM819.899 389.438L794.938 426.576C781.213 420.185 769.254 414.533 764.367 412.229L767.26 405.349L790.935 412.532C791.625 412.745 792.372 412.681 793.016 412.353C793.66 412.025 794.15 411.458 794.383 410.774L804.643 379.708L819.899 389.438ZM799.849 376.655L789.959 406.569L769.371 400.32C776.209 383.938 781.053 371.945 781.894 368.867L782.609 366.277L782.752 365.756L799.849 376.655ZM762.004 403.743C756.067 417.872 748.91 434.675 741.652 451.612C739.954 450.7 738.201 449.894 736.404 449.199C733.04 447.878 707.81 438.602 680.056 428.384L693.832 383.063L762.004 403.743ZM734.385 454.203C736.143 454.886 737.854 455.684 739.507 456.591C722.3 496.706 705.16 536.132 703.007 541.086L653.48 544.054C648.726 535.997 643.441 528.266 637.661 520.91L591.195 462.041C595.661 459.644 598.907 458.046 600.446 457.6C612.389 453.992 628.116 434.549 633.624 417.14C672.067 431.252 729.171 452.252 734.352 454.236L734.385 454.203ZM630.1 526.671C636.739 535.163 642.703 544.161 647.938 553.583L615.879 567.039C620.244 548.167 624.062 531.952 626.333 521.961L630.1 526.671ZM653.48 564.171C674.926 607.061 684.102 654.502 689.047 681.144C674.749 681.069 655.65 680.186 637.871 679.16C637.605 679.042 637.321 678.968 637.03 678.941C636.946 678.941 636.862 678.941 636.778 678.941C636.518 678.941 636.26 678.98 636.013 679.059C617.51 677.965 600.64 676.737 592.381 676.115C597.099 649.691 605.257 612.923 612.616 580.822C630.815 573.413 645.474 567.434 653.48 564.171ZM578.816 709.09L578.925 710.772C580.397 733.765 581.566 752.174 572.374 760.938C549.33 743.05 527.623 726.196 508.364 711.235C508.331 710.888 508.231 710.551 508.07 710.243L480.418 634.259C517.119 619.584 565.435 600.005 602.717 584.842C591.027 634.881 577.907 694.819 578.816 709.09ZM500.366 705.028L433.136 652.828C441.546 649.674 456.684 643.712 475.338 636.277L500.366 705.028ZM575.78 770.483L642.219 822.069L553.182 794.972C559.405 786.983 568.404 776.168 575.78 770.483ZM628.873 804.762C628.91 804.63 628.935 804.495 628.948 804.358L639.293 684.702C665.061 686.157 693.226 687.225 705.968 686.03C729.095 683.844 846.929 704.33 865.818 707.678C860.217 748.953 855.221 787.151 854.776 795.401C853.792 813.634 845.432 835.828 844.684 837.838L793.651 932.592C745.672 895.412 686.027 849.141 628.873 804.762ZM1232.5 875.876C1230.15 864.565 1227.45 849.418 1224.62 832.027C1226.36 826.14 1251.06 790.246 1261.73 774.73C1265.89 768.683 1269.17 763.898 1270.55 761.779C1273.07 757.868 1273.61 751.88 1273.33 745.161L1296.42 762.401L1261.44 805.291C1261.21 805.568 1261.04 805.886 1260.94 806.229C1260.84 806.571 1260.81 806.93 1260.85 807.285C1260.89 807.639 1261 807.982 1261.18 808.292C1261.36 808.603 1261.59 808.875 1261.87 809.093C1262.45 809.544 1263.17 809.753 1263.9 809.675C1264.62 809.596 1265.29 809.236 1265.75 808.672L1274.74 797.647L1295.24 809.32C1295.46 809.442 1295.7 809.536 1295.94 809.597L1276.95 832.195C1276.71 832.47 1276.54 832.79 1276.43 833.135C1276.33 833.479 1276.29 833.842 1276.33 834.2C1276.37 834.559 1276.48 834.906 1276.66 835.22C1276.83 835.535 1277.07 835.81 1277.36 836.03L1294.64 849.486C1285 861.453 1276.81 871.578 1271.93 877.6C1252.2 901.812 1255.79 919.464 1263.61 930.751C1258.86 932.06 1254.04 933.099 1249.17 933.862C1242.52 915.108 1236.48 895.101 1232.5 875.901L1232.5 875.876ZM1274.66 883.007C1275.16 882.343 1275.68 881.687 1276.22 881.023C1281.13 875.001 1289.32 864.859 1298.93 852.9L1310.7 862.084L1285.96 893.066C1280.01 887.473 1276.15 883.815 1275.99 883.68C1275.61 883.348 1275.15 883.124 1274.66 883.033L1274.66 883.007ZM1289.97 896.85L1315.08 865.448L1326.85 874.656L1300.07 906.345L1289.97 896.85ZM1304.12 910.087L1331.22 878.02L1343.11 887.339L1315.6 920.818L1304.12 910.087ZM1319.62 924.502L1347.46 890.677L1362.8 902.628C1351.42 918.085 1338.72 934.207 1334.38 938.084C1329.74 933.879 1324.72 929.228 1319.62 924.527L1319.62 924.502ZM1338.32 941.675C1342.26 938.059 1350.23 928.984 1367.13 906L1381.73 917.379L1352.97 954.652C1349.68 951.935 1344.49 947.301 1338.32 941.7L1338.32 941.675ZM1360.35 960.589C1359.41 959.807 1358.36 958.957 1357.25 958.066L1386.05 920.734L1399.01 930.826C1384.71 947.512 1374.57 959.563 1372.86 962.035C1370.8 965.038 1369.5 965.786 1368.78 965.887C1367.1 966.165 1364.13 963.709 1360.35 960.614L1360.35 960.589ZM1346.61 883.1L1334.74 873.849L1377.63 823.053L1388.99 831.539L1346.61 883.1ZM1330.42 870.485L1318.48 861.234L1359.69 809.69L1373.27 819.782L1330.42 870.485ZM1386.41 767.464L1358.72 802.104L1346.94 793.29L1374.75 758.642L1386.41 767.464ZM1370.35 755.337L1342.51 790.011L1328.43 779.498L1357.13 745.362L1370.35 755.337ZM1342.17 754.647C1336.24 750.854 1316.22 736.54 1302.99 726.945L1299.63 688.923L1323.23 687.082C1324.7 702.96 1327.02 716.701 1330.66 720.074C1336.93 725.885 1348.06 736.759 1353.08 741.679L1342.17 754.647ZM1322.75 681.691L1271.02 685.728C1270.92 676.771 1270.76 666.561 1270.58 656.167L1321.17 652.635C1321.48 661.574 1321.97 671.885 1322.75 681.716L1322.75 681.691ZM1320.53 465.287L1255.54 503.426L1255.54 486.909C1255.54 486.535 1255.46 486.165 1255.31 485.824L1244.52 461.553L1249.28 451.528L1294.93 424.255C1301.06 433.624 1311.15 449.796 1320.53 465.312L1320.53 465.287ZM1264.42 338.852C1263.26 339.349 1261.5 340.223 1261.18 340.391L1224.53 360.853L1213.27 321.604L1210.16 303.657L1260.04 293.565L1260.88 301.807C1261.93 313.404 1262.68 322.831 1262.98 328.659C1263.21 332.088 1263.69 335.495 1264.42 338.852ZM1232.15 293.641L1209.24 298.283L1198.12 234.183L1226.59 229.338C1229.51 260.413 1231.93 286.946 1232.15 293.674L1232.15 293.641ZM999.909 187.104C1004.87 184.436 1010.35 182.859 1015.97 182.478C1020.41 182.235 1032.38 181.848 1046.9 181.436C1046.98 187.322 1046.96 192.587 1046.9 197.305C1035.28 196.96 1024.4 196.742 1015.69 196.742C1004.75 196.742 994.585 196.96 986.486 197.507C990.322 193.295 994.865 189.786 999.909 187.137L999.909 187.104ZM688.492 381.457L674.808 426.484C647.694 416.518 619.302 406.081 606.855 401.523C618.831 389.749 627.796 376.831 635.214 365.301L688.492 381.457ZM579.278 462.411C553.333 477.044 510.955 502.972 500.417 509.431L477.962 475.413C506.556 459.661 535.024 444.027 556.386 433.363L579.278 462.411ZM497.263 514.62C497.661 515.224 498.278 515.65 498.985 515.807C499.691 515.964 500.431 515.84 501.048 515.461C519.054 504.376 558.993 480.139 582.684 466.75L619.756 513.711C618.318 519.808 612.633 542.818 605.938 571.143C568.749 586.709 516.186 608.651 476.978 624.789L431.849 500.785C443.363 494.528 455.995 487.548 468.93 480.4L473.135 478.078L497.263 514.62ZM231.546 553.179C232.606 551.413 233.582 549.495 234.608 547.494C240.932 535.073 247.484 522.264 279.005 533.197C284.554 535.131 290.216 536.724 295.959 537.965C301.375 546.174 343.459 610.694 376.856 659.909C360.507 663.98 339.961 668.849 317.91 673.954L233.582 582.286C232.976 570.924 232.253 560.807 231.546 553.179ZM311.779 675.35C287.516 680.951 261.772 686.779 238.022 692.069C237.551 676.679 236.054 628.994 234.061 590.839L311.779 675.35ZM345.873 677.133L368.858 761.03C368.998 761.517 369.269 761.956 369.641 762.3C370.013 762.644 370.472 762.88 370.969 762.981L430.479 775.024C429.175 781.542 424.726 809.934 419.016 847.274L294.958 823.726C295.27 823.129 295.564 822.515 295.799 821.893C301.199 808.664 294.37 782.938 288.357 760.24L287.633 757.515C282.587 738.365 262.815 729.636 246.601 729.636C245.042 729.635 243.486 729.736 241.941 729.939L234.524 702.606C270.46 694.592 311.678 685.232 345.873 677.133ZM246.634 739.122C257.155 739.122 274.278 744.656 278.315 759.903L279.038 762.636C284.404 782.862 291.081 808.05 286.86 818.386C284.252 824.777 276.011 830.16 270.039 833.221L244.473 739.164C245.112 739.164 245.818 739.122 246.617 739.122L246.634 739.122ZM260.359 834.592C260.107 834.592 259.863 834.592 259.619 834.55C248.737 833.902 241.546 833.481 236.508 820.875C229.419 803.096 222.716 777.185 224.28 764.184C225.432 754.571 229.402 747.028 235.407 742.671L260.359 834.592ZM227.51 824.323C228.921 828.039 230.948 831.491 233.506 834.533L148.993 884.765L124.108 848.67L157.47 808.714L218.99 798.143C221.288 807.037 224.133 815.78 227.51 824.323ZM282.596 908.405L300.879 959.664L243.607 1022.02L214.827 980.285L282.596 908.405ZM236.971 1029.31L200.808 1068.66L161.196 1037.2L208.099 987.459L236.971 1029.31ZM196.813 1077.67L195.972 1104.42L151.079 1084.1C152.761 1081.57 155.376 1078.96 159.565 1075.22C165.452 1069.94 170.203 1063.15 172.97 1058.67L196.813 1077.67ZM205.088 1072.05L240.116 1033.9L290.039 1106.3C282.2 1110.99 274.85 1116.39 268.912 1122.75L205.088 1072.05ZM246.786 1026.63L302.948 965.475L344.637 1082.29C341.365 1083.68 337.27 1085.24 332.737 1086.96C323.006 1090.65 310.568 1095.37 298.508 1101.62L246.786 1026.63ZM336.227 1095.74C340.55 1094.1 344.494 1092.61 347.833 1091.2L372.827 1161.34L353.24 1174.52L340.112 1161.91L303.949 1109.44C315.025 1103.84 326.673 1099.41 336.227 1095.74ZM426.467 1173.31L417.258 1204.3L403.482 1218.55L384.484 1165.28L426.467 1173.31ZM426.719 1206.34L435.97 1175.13L482.024 1183.94L463.707 1225.59L426.719 1206.34ZM468.627 1228.18L487.6 1185.04L517.035 1190.66L486.717 1237.58L468.627 1228.18ZM489.837 1179.95L513.234 1126.75L552.24 1136.11L520.189 1185.73L489.837 1179.95ZM515.454 1121.71L552.753 1036.88L606.14 1052.73L555.36 1131.29L515.454 1121.71ZM556.605 1028.15L582.365 969.596C603.331 974.028 617.443 976.879 620.21 977.165C639.789 978.99 653.85 971.042 659.83 954.803L660.915 951.851C667.416 934.258 671.007 923.215 666.247 918.321C664.128 916.143 660.822 915.714 656.415 917.042C645.314 920.406 615.349 910.609 602.902 905.874L608.907 886.859C609.119 886.19 609.062 885.464 608.748 884.836C608.434 884.208 607.888 883.727 607.225 883.495C607.099 883.273 606.92 883.085 606.703 882.949L527.329 867.836L546.252 804.207C546.857 803.366 548.06 801.684 549.683 799.522L652.833 830.95C653.138 831.024 653.454 831.044 653.766 831.009C702.873 869.114 752.105 907.295 792.676 938.715C792.762 938.789 792.852 938.86 792.945 938.925L813.272 954.694L784.123 1023.48L743.494 1006.84C742.869 1006.59 742.173 1006.56 741.534 1006.78C740.895 1007 740.357 1007.44 740.02 1008.03L703.806 1071.88L556.605 1028.15ZM723.688 1077.76L723.52 1077.71L709.222 1073.51L743.653 1012.8L782.037 1028.47L755.966 1089.93L723.688 1077.76ZM752.282 1098.68L726.211 1160.07L671.739 1139.53L704.403 1081.92L720.509 1086.7L752.282 1098.68ZM669.073 1144.33L724.125 1165.11L697.322 1228.34L634.499 1205.28L669.073 1144.33ZM729.289 1167.04L792.701 1190.95C783.198 1212.34 773.803 1233.5 765.065 1253.19L702.503 1230.2L729.289 1167.04ZM731.408 1162.03L757.479 1100.64L822.111 1124.99C813.322 1144.72 804.105 1165.42 794.946 1186.02L731.408 1162.03ZM761.129 1091.88L787.117 1030.57L852.244 1057.23L825.921 1116.29L761.129 1091.88ZM857.349 1059.32L904.992 1078.82L879.375 1136.43L831.085 1118.23L857.349 1059.32ZM859.561 1054.36C870.023 1030.9 877.735 1013.62 880.788 1006.79C883.732 1009.05 885.834 1010.64 886.978 1011.5C898.804 1020.36 911.348 1028.22 924.479 1035L907.213 1073.88L859.561 1054.36ZM929.415 1037.44C936.503 1040.87 943.807 1043.83 951.281 1046.31C954.646 1047.4 963.829 1049.29 976.512 1051.61C972.492 1059.83 965.579 1075.07 957.169 1094.31L912.318 1075.95L929.415 1037.44ZM986.368 1053.42C1018.2 1059.06 1064.52 1066.51 1098.81 1071.92L1139.18 1230.75L962.879 1167.88L939.516 1159.08C960.39 1110.66 979.792 1066.31 986.385 1053.39L986.368 1053.42ZM1141.68 1240.52L1150.43 1274.96L1086.84 1283.13L1084.92 1257.97L1141.68 1240.52ZM1146.61 1237.53C1146.7 1237.08 1146.68 1236.61 1146.54 1236.17C1146.43 1235.84 1146.26 1235.54 1146.03 1235.27L1131.96 1179.93C1139.82 1181.48 1158.88 1185.03 1172.85 1185.68C1173.9 1185.73 1174.97 1185.72 1176.07 1185.68L1176.07 1271.03C1176.07 1271.24 1176.1 1271.45 1176.15 1271.65L1155.97 1274.25L1146.61 1237.53ZM1181.59 1223.84L1181.59 1185.06C1194.73 1182.84 1208.84 1175.6 1214.54 1172.44L1220.65 1184.22C1220.87 1184.64 1221.2 1185 1221.6 1185.26C1222.01 1185.52 1222.47 1185.67 1222.95 1185.69C1223.43 1185.72 1223.91 1185.62 1224.35 1185.4C1224.78 1185.19 1225.15 1184.87 1225.42 1184.47L1239.54 1163.35L1252.99 1168.32C1253.46 1168.49 1253.96 1168.53 1254.45 1168.45L1292.94 1161.72L1295.05 1205.63L1181.59 1223.84ZM1191.59 1027.18L1226.91 1009.14L1238.2 1043.35C1221.32 1051.14 1202.71 1059.2 1187.66 1065.63C1188.36 1058.55 1189.85 1044 1191.59 1027.18ZM1219.17 968.015L1252.34 958.293C1264.49 989.41 1276.52 1014.12 1280.23 1021.57C1279.38 1022.09 1278.45 1022.63 1277.57 1023.19C1270.12 1027.98 1257.53 1034.33 1243.25 1041.01L1219.17 968.015ZM1251.13 939.421C1254.18 938.908 1259.49 937.638 1269 934.913C1269.44 934.793 1269.84 934.564 1270.16 934.248C1270.49 933.932 1270.73 933.539 1270.86 933.105C1271 932.676 1271.03 932.219 1270.94 931.777C1270.85 931.336 1270.64 930.925 1270.35 930.582C1260.07 918.489 1260.58 903.536 1271.73 887.053C1271.85 887.244 1272 887.422 1272.16 887.582C1273.64 888.979 1292.88 907.144 1312.28 925.141L1307.48 935.595C1307.26 936.078 1307.19 936.617 1307.28 937.141C1307.36 937.666 1307.6 938.152 1307.97 938.538L1371.05 1005.75L1364.13 1020.97C1359.65 1019.95 1355.97 1019.02 1353.43 1018.23C1343.03 1014.98 1313.12 1005.67 1285.1 1019.01C1272.36 993.118 1261.02 966.561 1251.12 939.455L1251.13 939.421ZM1369.64 1022.14L1376.85 1006.33C1377.07 1005.85 1377.14 1005.31 1377.06 1004.78C1376.97 1004.26 1376.73 1003.77 1376.36 1003.39L1313.29 936.192L1316.55 929.077C1332.02 943.374 1346.77 956.83 1351.75 960.656C1353.65 962.111 1355.34 963.499 1356.8 964.727C1362 968.999 1365.44 971.808 1369.55 971.253C1372.33 970.866 1374.76 968.957 1377.44 965.063C1379.07 962.691 1389.13 950.766 1403.32 934.19L1435.86 959.546C1422.69 976.736 1411.07 991.504 1407.4 995.103C1396.91 1005.35 1393.11 1017.98 1393.83 1026.93C1385.16 1025.35 1376.75 1023.7 1369.63 1022.17L1369.64 1022.14ZM1462.29 1033.23L1593.83 1099.23L1568.91 1130.04C1566.93 1128.76 1565.16 1127.69 1563.63 1126.87C1558.16 1123.93 1549.98 1117.62 1541.31 1110.97C1524.82 1098.28 1506.14 1083.9 1494.06 1082.79C1479.18 1081.4 1453.35 1067.08 1442.34 1058.28C1448.84 1050.13 1455.49 1041.8 1462.29 1033.27L1462.29 1033.23ZM1543.71 1044.24L1481.73 1008.85L1492.94 994.826L1555.88 1029.39L1543.71 1044.24ZM1496.39 990.419L1527.29 951.658L1594.57 982.127L1559.4 1025.1L1496.39 990.419ZM1479.47 837.678L1450.76 870.838L1427.94 853.8L1456.11 820.101L1479.47 837.678ZM1423.54 850.469L1396.93 830.639L1424.97 796.579L1451.77 816.805L1423.54 850.469ZM1392.52 827.309L1381.2 818.899L1409.8 785.099L1420.61 793.257L1392.52 827.309ZM1376.54 753.167C1376.39 752.958 1376.21 752.771 1376.01 752.612C1375.78 752.437 1375.53 752.298 1375.26 752.2L1360.63 741.157L1374.78 724.338L1437.11 773.115L1424.01 789.018L1376.54 753.167ZM1378.29 720.149L1388.23 708.325C1388.33 708.435 1388.43 708.539 1388.55 708.636L1449.94 757.548L1440.61 768.893L1378.29 720.149ZM1392.03 704.431C1391.92 704.351 1391.81 704.278 1391.69 704.213L1398.51 696.097L1460.18 745.076L1453.37 753.335L1392.03 704.431ZM1372.69 718.316C1372.49 718.456 1372.31 718.62 1372.16 718.804C1372.02 718.971 1371.91 719.154 1371.82 719.351L1356.56 737.482C1351.37 732.386 1340.58 721.857 1334.41 716.146C1331.96 713.876 1329.92 701.143 1328.52 683.97C1327.41 670.649 1326.65 654.653 1326.33 638.8L1394.24 692.742L1372.69 718.316ZM1360.79 539.185L1278.72 588.728L1255.23 570.125L1350.42 517.984C1354.44 525.199 1358.29 532.449 1360.77 539.252L1360.79 539.185ZM1250.62 566.399L1241.77 559.377L1341.75 502.307C1343.59 505.781 1345.59 509.33 1347.69 513.055L1347.76 513.173L1250.62 566.399ZM1377.82 388.362L1288.2 395.51C1282.15 379.699 1274.95 359.087 1271.13 343.553L1371.21 335.707C1373.81 359.011 1375.6 374.788 1376.18 379.346C1376.6 382.497 1377.14 385.525 1377.81 388.429L1377.82 388.362ZM1370.65 330.333L1269.94 338.289C1269.22 335.032 1268.74 331.726 1268.5 328.399C1268.23 322.932 1267.56 314.455 1266.63 304.01L1366.82 295.6C1368.19 308.308 1369.48 320.006 1370.64 330.392L1370.65 330.333ZM1366.19 290.125L1266.11 298.535C1264.86 284.844 1263.22 268.386 1261.45 251.112C1262.29 251.061 1263.31 251.002 1264.45 250.927C1267.96 250.7 1272.64 250.363 1277.32 250.01C1285.41 249.413 1293.48 248.774 1295.52 248.614L1363.92 269.437L1366.19 290.125ZM1298.37 243.871L1294.24 200.77L1355.63 193.672L1363.29 263.617L1298.37 243.871ZM1293.71 195.379L1289.07 147.031C1289.05 146.809 1288.99 146.591 1288.91 146.383C1307.02 144.886 1328.93 143.103 1349.93 141.438L1355.03 188.29L1293.71 195.379ZM1283.62 146.82C1283.59 147.057 1283.59 147.298 1283.62 147.535L1288.28 196.018L1256.12 199.735L1253.11 171.487L1250.77 149.57C1255.95 149.15 1268.05 148.132 1283.61 146.845L1283.62 146.82ZM1244.94 147.317L1244.94 147.384C1245.68 154.423 1246.62 162.824 1247.56 172.05C1248.59 181.663 1249.71 192.167 1250.87 203.058L1252.6 219.423L1232.64 222.787C1229.66 189.61 1223.21 132.742 1222.77 128.773L1242.75 125.493L1242.91 127.545C1243.2 130.783 1243.92 137.805 1244.93 147.342L1244.94 147.317ZM1180.11 130.345L1164.21 38.6773C1169.61 37.996 1174.85 37.3652 1179.88 36.7933L1191.86 128.403L1180.11 130.345ZM1108.8 99.2285L1116.28 130.522L1101.9 134.475L1099.37 100.7L1108.8 99.2285ZM1096.46 135.711C1096.45 135.795 1096.45 135.879 1096.46 135.963L1034.22 153.06L1028.19 111.776L1093.79 101.558L1096.46 135.711ZM974.746 120.195L989.884 166.97C989.818 167.36 989.841 167.76 989.951 168.14C990.077 168.57 990.311 168.961 990.632 169.275L995.233 183.462C988.797 187.167 983.227 192.202 978.892 198.23C976.333 198.494 973.801 198.972 971.323 199.66C970.314 199.971 969.296 200.333 968.278 200.711C966.857 190.443 962.61 160.545 959.809 148.881C958.346 142.784 956.227 133.743 953.922 123.432L974.746 120.195ZM769.826 134.634L726.934 107.874L769.826 115.544L769.826 134.634ZM766.016 143.456C760.314 152.506 745.293 176.255 727.506 204.353L678.727 173.362L718.364 113.727L766.016 143.456ZM305.984 431.673L214.827 325.06L270.796 281.328L361.297 388.134L305.984 431.673ZM149.329 248.53L103.461 194.883C124.074 178.711 143.249 163.766 160.044 150.647L204.155 202.704L149.329 248.53ZM58.8874 297.383C46.4405 283.179 34.5486 269.63 23.8931 257.436C49.8718 236.975 75.4048 216.892 99.1549 198.264L145.141 252.028L72.4108 312.782L58.8874 297.383ZM195.047 469.997C211.16 492.56 217.905 513.383 221.766 552.506C222.766 562.716 223.725 578.039 224.583 594.968L179.362 626.825L102.452 523.324L182.903 454.867C188.848 461.982 193.07 467.221 195.055 469.997L195.047 469.997ZM118.868 649.868L50.9651 567.123L95.1181 529.556L159.876 616.691C152.635 622.763 135.764 636.874 119.297 650.641C119.202 650.36 119.057 650.098 118.868 649.868ZM163.172 621.072L172.794 634.04C172.879 634.248 172.993 634.443 173.13 634.621C173.25 634.777 173.388 634.918 173.542 635.041L219.074 696.307C178.454 705.356 147.429 712.126 146.563 712.286L145.806 712.522C145.612 712.597 141.281 714.305 134.418 716.954L97.9943 675.325C118.019 658.934 151.634 630.744 163.172 621.072ZM77.541 720.923C75.5562 715.633 74.2358 710.899 74.0256 706.5L74.0256 706.366C73.706 698.872 76.6243 692.372 85.026 685.845C87.0023 684.315 90.0215 681.884 93.764 678.832L128.977 719.073C117.472 723.48 101.527 729.484 85.8586 735.052C81.8469 729.274 78.7941 724.253 77.541 720.923ZM86.2118 745.051C100.425 764.503 120.096 787.504 121.29 788.901C121.769 789.452 122.443 789.795 123.171 789.856C123.898 789.917 124.62 789.692 125.184 789.229C125.462 789.004 125.691 788.726 125.859 788.411C126.027 788.096 126.13 787.751 126.161 787.395C126.193 787.039 126.152 786.681 126.042 786.342C125.932 786.002 125.755 785.688 125.521 785.419C125.235 785.082 105.799 762.367 91.5942 743.134C118.506 733.53 145.141 723.068 149.052 721.529C154.098 720.427 185.476 713.581 225.113 704.709L232.8 733.042C222.867 738.542 216.341 749.231 214.684 763.065C213.751 770.853 215.138 781.66 217.703 792.862L155.511 803.542C154.853 803.648 154.255 803.989 153.829 804.501L120.853 843.985L58.9295 754.142C67.1798 751.594 76.6159 748.415 86.2118 745.051ZM77.4905 844.995C76.9261 844.587 76.23 844.404 75.538 844.482C74.8461 844.56 74.2079 844.892 73.748 845.415L30.8566 894.571L6.35803 876.296L74.2947 793.349L114.486 851.638L103.949 864.253L77.4905 844.995ZM117.758 856.323L141.828 891.232C135.68 899.802 118.792 922.744 108.339 931.07C97.7504 939.48 75.859 956.3 67.4657 962.683L44.2623 944.282L117.758 856.323ZM71.8305 966.182C80.8714 959.269 101.552 943.416 111.778 935.267C122.249 926.932 138.052 905.832 145.099 896.034L204.937 982.825L156.915 1033.76L71.8305 966.182ZM154.645 1044.15L168.589 1055.23C166.066 1059.36 161.474 1066.16 155.805 1071.2C150.953 1075.53 147.933 1078.65 145.957 1081.78L127.169 1073.27L154.645 1044.15ZM123.225 1077.47L143.669 1086.72C143.078 1088.64 142.65 1090.61 142.391 1092.61C141.138 1101.35 146.436 1118.31 146.663 1119.02C146.889 1119.72 147.378 1120.29 148.025 1120.63C148.672 1120.96 149.424 1121.03 150.12 1120.81C150.461 1120.71 150.779 1120.55 151.056 1120.32C151.332 1120.1 151.562 1119.82 151.732 1119.51C151.901 1119.2 152.007 1118.86 152.044 1118.5C152.081 1118.15 152.047 1117.79 151.945 1117.45C150.507 1112.88 146.966 1099.64 147.858 1093.37C148.056 1091.9 148.354 1090.44 148.749 1089L195.728 1110.29L194.29 1153.05C173.862 1155.73 155.772 1158.1 152.382 1158.6C145.991 1159.51 135.562 1154.22 121.181 1146.83C118.68 1145.56 116.054 1144.23 113.301 1142.83C108.356 1140.31 94.9835 1133.88 77.8101 1125.63L123.225 1077.47ZM73.8742 1129.82C91.7204 1138.39 105.69 1145.14 110.761 1147.69C113.508 1149.07 116.124 1150.4 118.607 1151.67C131.122 1158.05 140.272 1162.71 147.589 1163.84C154.611 1170.85 154.981 1173.54 150.423 1180.73C145.52 1188.42 113.94 1224.55 106.278 1233.28L29.1914 1177.22L73.8742 1129.82ZM182.196 1316.03L166.536 1296.55L166.394 1296.4L110.424 1236.89C118.086 1228.16 149.952 1191.74 155.132 1183.59C160.599 1174.99 159.893 1169.79 154.931 1163.71C160.818 1162.87 177.352 1160.74 195.644 1158.33C196.017 1158.53 196.431 1158.65 196.855 1158.67C197.225 1158.68 197.595 1158.63 197.942 1158.5C198.288 1158.37 198.605 1158.17 198.873 1157.91C220.807 1155.03 244.506 1151.94 255.221 1150.54C254.642 1155.67 254.892 1160.86 255.961 1165.91C261.342 1192.48 264.961 1219.38 266.793 1246.43L182.196 1316.03ZM285.421 1301.11C285.085 1285.4 282.394 1269.06 277.726 1248.03L327.346 1239.98L316.656 1307.75L285.421 1301.11ZM232.766 1281.47L267.18 1253.14C267.861 1265.25 268.021 1274.68 268.021 1280.59C268.021 1293.9 267.129 1307.1 259.308 1320.86L232.766 1281.47ZM267.415 1326.04C271.459 1319.11 274.302 1311.54 275.826 1303.65C275.858 1311.49 275.264 1319.31 274.051 1327.04L267.415 1326.04ZM283.58 1328.48C284.705 1321.24 285.329 1313.94 285.447 1306.61L315.807 1313.07L312.695 1332.9L283.58 1328.48ZM318.153 1333.75L321.215 1314.27L354.737 1321.4C351.694 1326.65 349.54 1332.36 348.363 1338.31L318.153 1333.75ZM379.757 1279.92C382.129 1285.09 380.842 1290.97 376.107 1296.46C375.107 1297.68 373.517 1299.18 371.743 1300.95C367.79 1304.76 362.491 1309.88 357.857 1316.54L322.081 1308.97L332.501 1242.79C355.175 1259.12 378.008 1276.69 379.757 1279.92ZM341.466 1182.44C340.922 1182.8 340.528 1183.35 340.356 1183.98L330.365 1220.85L330.306 1221.13L328.22 1234.36L276.549 1242.77L276.044 1240.56C274.079 1214.86 270.529 1189.3 265.414 1164.03C260.797 1141.33 276.095 1125.52 295.463 1114.08L332.636 1168.03L345.099 1179.99L341.466 1182.44ZM357.26 1178.38L374.728 1166.61L390.161 1209.95L357.26 1178.38ZM473.076 1286.59L408.394 1227.28L424.028 1211.11L486.364 1243.53C486.977 1243.85 487.688 1243.93 488.357 1243.76C489.027 1243.58 489.608 1243.17 489.988 1242.59L611.623 1054.39L681.107 1075.02C670.174 1084.1 648.712 1103.78 628.41 1124.43C628.07 1124.64 627.782 1124.93 627.569 1125.27C606.687 1146.57 587.201 1168.73 582.154 1181.17C577.302 1193.03 553.106 1235.48 527.489 1280.41C521.602 1290.77 515.639 1301.19 509.828 1311.38L473.076 1286.59ZM551.954 1339.72L514.462 1314.49C520.399 1304 526.488 1293.38 532.375 1283.05C538.851 1271.69 545.234 1260.49 551.247 1249.89L592.087 1268.89L551.954 1339.72ZM599.807 1266.47L631.766 1210.05L695.178 1233.34L667.778 1298.05L599.807 1266.47ZM725.63 1342.84L672.554 1300.95L700.383 1235.28L762.862 1258.23C746.832 1294.46 733.2 1325.34 725.63 1342.84ZM770.254 1255.13C778.984 1235.42 788.37 1214.28 797.865 1192.9L846.172 1211.12L818.705 1272.92L770.254 1255.13ZM848.384 1206.18L800.077 1187.95L827.233 1126.93L875.507 1145.12L848.384 1206.18ZM884.547 1138.37L910.097 1080.91L954.965 1099.29C947.606 1116.11 939.196 1135.45 930.492 1155.68L884.547 1138.37ZM867.324 1331.22C868.544 1326.29 870.155 1321.47 872.143 1316.79C874.38 1311.66 880.553 1297.08 889.181 1276.89C894.631 1264.09 901.199 1248.65 908.34 1231.91C918.869 1236.51 945.268 1248.01 961.382 1254.82L925.967 1292.54C925.702 1292.81 925.501 1293.14 925.377 1293.5C925.254 1293.87 925.211 1294.25 925.252 1294.63C925.252 1294.96 926.564 1307.92 928.162 1324.66L867.324 1331.22ZM933.654 1324.07C932.334 1310.26 931.223 1299.04 930.853 1295.31L966.773 1257.07C968.909 1257.91 970.7 1258.69 972.021 1259.21C982.836 1263.41 1005.85 1267 1013.23 1268.06L1015.55 1315.24L933.654 1324.07ZM1021.05 1314.64L1018.61 1265.57C1018.57 1264.93 1018.31 1264.34 1017.88 1263.88C1017.44 1263.42 1016.86 1263.12 1016.23 1263.04C1015.93 1263 986.141 1258.94 974.073 1254.2C963.787 1250.17 923.806 1232.76 910.476 1226.94C918.533 1208.06 927.22 1187.75 935.782 1167.84L959.759 1176.88L1131.22 1238.02L1081.55 1253.01C1080.88 1253.11 1080.26 1253.46 1079.83 1253.99C1079.41 1254.52 1079.19 1255.2 1079.24 1255.88L1083.19 1307.94L1021.05 1314.64ZM1453.92 1274.14C1464.19 1273.29 1469.3 1273.55 1472.42 1277.26C1474.45 1279.65 1473.53 1285.17 1472.49 1288.59L1339.61 1303.18L1337.84 1286.36C1399.73 1279.76 1450.22 1274.44 1453.92 1274.14ZM1327.67 1281.96C1243.17 1290.92 1141.4 1301.79 1107.62 1305.38C1107.53 1305.37 1107.43 1305.37 1107.34 1305.38C1107.28 1305.38 1107.22 1305.38 1107.15 1305.38L1088.65 1307.37L1087.23 1288.56L1325.19 1257.97C1325.91 1264.99 1326.74 1273.03 1327.67 1281.96ZM1322.29 1227.76C1322.45 1230.44 1323.28 1239.19 1324.65 1252.59L1302.97 1255.37L1300.8 1210.2L1322.29 1206.76C1321.78 1213.75 1321.78 1220.78 1322.29 1227.78L1322.29 1227.76ZM1328.68 1185.18L1322.43 1153.79L1322.43 1153.7C1322.4 1153.56 1322.35 1153.42 1322.3 1153.29L1322.23 1153.15C1322.18 1153.04 1322.12 1152.93 1322.05 1152.82L1321.94 1152.68C1321.87 1152.58 1321.79 1152.49 1321.7 1152.41L1321.58 1152.29C1321.47 1152.2 1321.36 1152.12 1321.24 1152.05C1321.22 1152.02 1321.19 1152 1321.16 1151.98L1192 1069.67C1222.62 1056.56 1263.62 1038.62 1280.6 1027.71C1299.29 1015.68 1322.57 1014.25 1351.76 1023.37C1355.39 1024.5 1362.77 1026.2 1371.95 1028.11L1360.85 1056.27C1360.64 1056.82 1360.61 1057.43 1360.77 1058C1360.94 1058.57 1361.29 1059.07 1361.77 1059.41L1384.87 1076.34L1372.91 1092.89L1351.23 1119.86C1350.79 1120.4 1350.58 1121.1 1350.65 1121.8C1350.72 1122.5 1351.06 1123.14 1351.6 1123.59L1367.31 1136.79C1348.95 1159.69 1336.81 1174.71 1334.77 1176.93C1332.45 1179.45 1330.41 1182.22 1328.68 1185.18ZM1378.13 1138.69C1384.49 1130.75 1391.52 1121.95 1399.1 1112.47L1470.71 1161.92L1449.68 1190.63L1378.13 1138.69ZM1519.98 1143.47C1510.9 1145.25 1499.03 1140.71 1494.46 1138.74L1500.21 1130.86C1500.42 1130.57 1500.57 1130.24 1500.65 1129.89C1500.73 1129.55 1500.74 1129.19 1500.68 1128.84C1500.63 1128.48 1500.5 1128.15 1500.31 1127.85C1500.12 1127.55 1499.87 1127.28 1499.58 1127.08L1427.9 1076.4C1431.51 1071.88 1435.19 1067.27 1438.93 1062.57C1450.71 1071.96 1476.96 1086.66 1493.53 1088.21C1504 1089.18 1522.79 1103.64 1537.89 1115.26C1547.14 1122.35 1555.1 1128.49 1560.96 1131.65C1561.8 1132.11 1562.77 1132.66 1563.78 1133.29C1552.65 1136 1529.26 1141.65 1519.98 1143.47ZM1663.37 1013.25L1624.74 1061.02L1564.29 1027.79L1599.77 984.465L1663.37 1013.25ZM1659.23 903.225L1598.17 977.77L1530.79 947.268L1543.03 931.894C1564.06 905.479 1584.16 880.232 1602.04 857.795L1659.23 903.225ZM1541.95 917.85L1521.22 907.413L1576.81 837.754L1594.57 851.857C1578.48 871.965 1560.64 894.369 1541.95 917.85ZM1491.12 769.692L1455.24 812.583L1428.42 792.332L1464.49 748.516L1491.12 769.692ZM1582.58 596.742C1582.3 596.901 1582.04 597.112 1581.83 597.365L1533.71 655.822C1533.64 655.889 1533.56 655.948 1533.49 656.024L1533.31 656.301L1466.26 737.76L1404.69 688.839L1526.22 544.281C1526.49 543.958 1526.68 543.574 1526.78 543.161C1526.87 542.748 1526.86 542.319 1526.76 541.91C1543.27 558.486 1562.75 577.534 1582.58 596.742L1582.58 596.742ZM1482.38 494.646C1488.2 502.45 1504.08 519.144 1524.82 539.959C1524.58 539.892 1524.34 539.858 1524.09 539.858C1523.69 539.854 1523.28 539.941 1522.91 540.111C1522.54 540.281 1522.22 540.53 1521.96 540.842L1414.4 668.765L1350.82 619.987C1361.75 606.254 1371.1 571.538 1369.11 550.076C1368.11 539.328 1361.9 527.251 1355.23 515.326L1405.75 487.649C1406.12 487.445 1406.44 487.153 1406.69 486.799C1406.93 486.445 1407.08 486.039 1407.13 485.614L1413.26 436.483C1414.21 437.072 1415.2 437.652 1416.2 438.207C1436.67 449.687 1460.54 465.354 1482.37 494.646L1482.38 494.646ZM1420.98 429.991C1400.26 418.385 1388.75 401.456 1385.79 378.236C1384.34 366.891 1375.39 286.063 1365.19 192.595L1428.87 185.228L1526.43 215.613L1521.96 244.535L1480.3 279.293C1479.9 279.628 1479.61 280.071 1479.46 280.568C1479.31 281.066 1479.31 281.596 1479.46 282.094L1482.24 291.656L1472.62 300.705C1472.36 300.955 1472.15 301.256 1472 301.59C1471.86 301.924 1471.78 302.284 1471.78 302.648L1471.78 331.023C1471.78 331.495 1471.91 331.959 1472.14 332.368L1483.82 352.308L1488.59 371.651C1488.66 371.928 1488.78 372.192 1488.93 372.433L1497.2 385.628C1497.58 386.237 1498.18 386.671 1498.88 386.839L1509.68 389.472L1514.67 396.275C1480.59 423.254 1456.24 442.53 1449.29 448.063C1440.27 441.427 1430.81 435.39 1420.99 429.991L1420.98 429.991ZM1574.89 245.654C1574.85 246.021 1574.88 246.392 1575 246.744C1575.11 247.096 1575.29 247.421 1575.54 247.697L1580.58 253.483L1561.7 269.614L1556.66 262.953L1556.66 218.591L1577.5 220.088C1576.67 229.12 1575.75 238.127 1574.92 245.654L1574.89 245.654ZM1606.01 282.783L1583.71 298.872L1564.96 273.978L1584.12 257.604L1606.01 282.783ZM1551.13 263.844C1551.13 264.427 1551.32 264.993 1551.67 265.459L1557.49 273.179L1554.18 275.997L1527.4 245.132L1531.78 216.774L1551.12 218.162L1551.13 263.844ZM1551.8 281.614L1556.3 286.795L1487.08 347.077L1477.28 330.257L1477.28 303.758L1487.19 294.381C1487.55 294.043 1487.81 293.614 1487.94 293.139C1488.07 292.664 1488.06 292.163 1487.93 291.69L1485.18 282.245L1524.17 249.716L1551.8 281.572L1551.8 281.614ZM1518.94 392.894L1513.52 385.527C1513.13 385.005 1512.58 384.633 1511.95 384.476L1501.27 381.878L1493.82 369.986L1489.44 352.258L1559.88 290.924L1595.69 332.192C1567.66 354.402 1541.38 375.175 1518.99 392.894L1518.94 392.894ZM1627.27 307.256L1600.04 328.76L1557.81 280.092L1560.83 277.511L1580.96 304.229C1581.4 304.805 1582.05 305.187 1582.77 305.294C1583.49 305.4 1584.22 305.224 1584.81 304.801L1609.65 286.887L1627.27 307.256ZM1645.48 254.274L1610.46 279.504L1603.25 271.195L1636.95 244.762L1645.48 254.274ZM1620.74 226.807L1633.29 240.734L1599.65 267.107L1588.27 254.022L1620.5 226.496C1620.64 226.639 1620.71 226.74 1620.79 226.841L1620.74 226.807ZM1641.77 188.121C1641.77 191.208 1642.78 194.639 1644.8 198.575L1584.67 249.934L1580.47 245.073C1580.89 241.079 1581.99 230.844 1583.1 219.255L1641.77 188.121ZM1580.37 173.875C1581.1 176.919 1579.74 195.261 1577.93 214.672L1556.58 213.133L1556.58 164.279C1558.14 164.22 1559.41 164.145 1560.34 164.061C1573.23 162.925 1579.24 168.636 1580.49 173.875L1580.37 173.875ZM1468.52 153.641C1470.07 154.827 1471.52 155.945 1472.87 156.912C1482.01 163.447 1529.32 164.767 1551.08 164.422L1551.08 212.704L1529.89 211.173L1430.96 180.208C1430.49 179.876 1429.93 179.697 1429.36 179.695C1429.25 179.695 1429.14 179.695 1429.03 179.695L1364.51 187.154L1359.46 140.656C1388.77 138.368 1414.78 136.451 1423.99 136.173C1445.02 135.551 1459.22 146.433 1468.59 153.641L1468.52 153.641ZM1404.26 117.276C1404.86 122.507 1405.38 126.855 1405.77 129.891L1406.02 131.817C1393.58 132.658 1376.85 133.911 1358.93 135.316L1353.49 85.1L1400.43 82.6611C1402.05 97.1261 1403.35 108.757 1404.33 117.276L1404.26 117.276ZM1405.33 76.9928C1403.46 59.845 1401.48 41.3853 1399.81 25.5999L1418.31 23.9179L1421.04 76.1856L1405.33 76.9928ZM1425.6 58.2135L1424.67 40.2752L1455.29 40.2752L1451.45 51.8725L1425.6 58.2135ZM1457.08 34.8591L1424.38 34.8591L1423.79 23.4049L1462.03 19.8978L1457.08 34.8591ZM1394.32 26.1044C1395.1 33.4967 1397.4 55.2027 1399.81 77.2787L1352.87 79.7177L1347.56 30.385L1394.32 26.1044ZM1349.26 136.081C1333.61 137.317 1317.48 138.604 1302.8 139.823L1293.95 35.2881L1337.94 31.2597C1341.58 64.4368 1345.45 100.339 1349.34 136.081L1349.26 136.081ZM1288.45 35.7926L1297.29 140.277C1274.94 142.119 1256.73 143.641 1250.07 144.205C1249.23 136.022 1248.59 129.992 1248.34 127.141C1247.87 121.91 1247.5 112.743 1247.15 102.13C1246.16 75.0922 1245.11 52.5116 1242.66 39.9807L1288.45 35.7926ZM1235.17 34.1779C1235.83 35.2523 1236.31 36.429 1236.58 37.6597L1236.58 37.7774C1236.61 38.1056 1236.71 38.4248 1236.85 38.7193C1239.75 51.0735 1240.89 82.3499 1241.63 102.281C1241.88 109.009 1242.1 115.115 1242.35 120.077L1197.23 127.503L1185.28 36.1795C1212.12 33.3285 1231.95 32.2772 1235.25 34.1779L1235.17 34.1779ZM1161.31 16.1724C1161.56 16.1525 1161.81 16.0929 1162.04 15.9957L1165.57 34.1947C1165.08 34.262 1164.61 34.3294 1164.12 34.3966C1137.2 38.2652 1106.58 42.2767 1094.98 43.7905L1093.53 24.599L1161.31 16.1724ZM1088.05 25.2803L1093.39 96.1926L1027.91 106.402L1024.28 33.236L1088.05 25.2803ZM1018.78 33.8836L1020.46 67.3635L942.913 70.6266C941.231 61.157 940.029 53.2684 939.818 48.6347C939.76 47.2974 939.667 45.6491 939.541 43.7316L1018.78 33.8836ZM934.032 44.4213C934.15 46.1032 934.234 47.6506 934.285 48.8617C934.84 61.3168 941.686 94.065 947.236 118.975L885.439 128.605C880.174 115.889 875.582 103.745 872.336 93.2828C868.3 80.1968 865.468 66.7692 863.876 53.1676L934.032 44.4213ZM863.009 96.0076C867.34 110.027 873.892 126.662 881.251 143.667L869.477 159.805L792.297 114.24C792.009 114.071 791.693 113.955 791.364 113.896L775.284 111.019L775.284 38.694L854.162 53.3273C855.799 67.8012 858.786 82.0901 863.085 96.0076L863.009 96.0076ZM724.705 11.202C725.252 9.76392 726.53 6.71107 728.406 2.32118L779.405 13.313L770.927 32.3782L722.073 23.3208C722.506 19.1973 723.388 15.1334 724.705 11.202ZM646.55 14.8182L716.051 27.6854C713.772 51.0398 714.866 85.3944 715.53 100.692L691.595 85.7476L635.819 48.2225L646.55 14.8182ZM551.811 3.1117L627.081 53.8068L587.133 115.149L514.47 68.9697L551.811 3.1117ZM481.376 171.495C448.905 135.257 462.033 69.407 463.623 62.0147C464.144 59.6263 466.449 54.4458 470.065 47.2301L507.137 70.7778L481.906 115.275C481.731 115.586 481.62 115.928 481.579 116.283C481.539 116.638 481.569 116.997 481.67 117.339C481.77 117.682 481.938 118.001 482.163 118.277C482.389 118.554 482.668 118.783 482.983 118.95C483.621 119.302 484.372 119.39 485.074 119.193C485.775 118.996 486.372 118.531 486.734 117.899L511.787 73.7297L544.082 94.2584C543.841 94.4651 543.639 94.7128 543.485 94.99L494.664 185.514C490.577 181.436 486.12 176.793 481.376 171.495ZM525.109 210.366C521.274 208.196 512.149 202.334 498.474 189.265C498.849 189.029 499.159 188.702 499.374 188.315L548.354 97.5383C548.442 97.3879 548.51 97.2267 548.556 97.0588L584.181 119.707L525.109 210.366ZM631.614 56.8762L686.28 93.7117L713.638 110.792L674.085 170.402L591.767 118.084L631.614 56.8762ZM625.071 145.719L671.058 174.935L569.102 328.399C569.032 328.503 568.97 328.613 568.917 328.727C568.817 328.78 568.721 328.842 568.631 328.912L530.786 358.666L511.56 361.122L487.625 330.779L625.071 145.719ZM433.616 277.754L459.603 310.704L365.586 384.712L275.094 277.906L370.616 203.268L433.616 277.754ZM323.696 90.045L350.078 69.0203L370.17 96.773C368.538 102.609 362.601 126.258 368.732 139.436C355.452 141.682 340.726 143.978 333.864 145.037L303.966 109.716L323.696 90.045ZM286.885 104.342L255.095 129.849C254.543 130.289 254.187 130.928 254.104 131.629C254.021 132.329 254.216 133.034 254.649 133.592L267.34 149.898L208.36 199.181L164.375 147.266C194.239 124.038 215.971 107.37 223.944 101.735C241.891 89.0695 251.588 79.7345 257.735 69.8781L286.885 104.342ZM220.925 24.8766L251.024 62.2587C245.743 71.9889 237.324 80.4241 220.285 92.6268L187.436 53.4619C199.605 43.2186 211.11 33.3959 220.941 24.885L220.925 24.8766ZM177.133 49.7026C158.328 65.5133 138.388 81.963 120.786 95.873L85.7997 54.4795L142.231 8.0315L177.133 49.7026Z" fill="white" fill-opacity="0.07"/>
</svg>
