<svg xmlns="http://www.w3.org/2000/svg" xmlns:xlink="http://www.w3.org/1999/xlink" viewBox="0 0 1754.16 1161.58"><defs><style>.cls-1{fill:#2dcffc;}.cls-2{fill:#fff;}.cls-3{fill:#d6e2ea;}.cls-15,.cls-16,.cls-32,.cls-4{opacity:0.25;}.cls-4{fill:url(#Dégradé_sans_nom_22);}.cls-5{fill:#1b5156;opacity:0.4;}.cls-6{fill:#bcc4c7;}.cls-7{fill:#a2a9ac;}.cls-8{fill:#ced8dd;}.cls-9{fill:#ecf0f1;}.cls-10{fill:#d4d8da;}.cls-11{fill:#364860;}.cls-12{fill:#d8d4d1;}.cls-13{fill:#c1c5c7;}.cls-14{fill:#7c8689;}.cls-15{fill:url(#Dégradé_sans_nom_22-2);}.cls-16{fill:url(#Dégradé_sans_nom_22-3);}.cls-17{fill:#bbbbbc;}.cls-18{fill:#ededed;}.cls-19{fill:#e8e8e8;}.cls-20{fill:#ccc;}.cls-21{fill:#a3a3a3;}.cls-22{fill:url(#Dégradé_sans_nom_21);}.cls-23{fill:#fafafa;}.cls-24{fill:#b2b2b2;}.cls-25{fill:#878787;}.cls-26{fill:#898989;}.cls-27{fill:#757575;}.cls-28{fill:url(#Dégradé_sans_nom_21-2);}.cls-29{fill:#c4c4c4;opacity:0.44;}.cls-30{fill:#d3d3d3;}.cls-31{fill:#37797a;}.cls-32{fill:url(#Dégradé_sans_nom_22-4);}</style><linearGradient id="Dégradé_sans_nom_22" x1="691.51" y1="878.77" x2="542.39" y2="620.49" gradientUnits="userSpaceOnUse"><stop offset="0.3" stop-color="#007f89" stop-opacity="0"/><stop offset="0.7" stop-color="#024c55"/></linearGradient><linearGradient id="Dégradé_sans_nom_22-2" x1="470.03" y1="1796.44" x2="320.92" y2="1538.17" gradientTransform="matrix(0.84, 0.22, 0.22, 0.7, 210.07, -289.26)" xlink:href="#Dégradé_sans_nom_22"/><linearGradient id="Dégradé_sans_nom_22-3" x1="-3653.11" y1="2896.9" x2="-3802.23" y2="2638.62" gradientTransform="matrix(0.35, 0.05, 0.05, 0.32, 2092.17, 121.43)" xlink:href="#Dégradé_sans_nom_22"/><linearGradient id="Dégradé_sans_nom_21" x1="2405.86" y1="-1901.92" x2="2790.33" y2="-1901.92" gradientTransform="matrix(0.55, 0.89, 0.89, -0.46, 1318.78, -2329.65)" gradientUnits="userSpaceOnUse"><stop offset="0.5" stop-color="#b5b5b5"/><stop offset="0.5" stop-color="#e9e9ea"/><stop offset="1" stop-color="#787878"/></linearGradient><linearGradient id="Dégradé_sans_nom_21-2" x1="2659.92" y1="-1872.54" x2="2869.14" y2="-1872.54" xlink:href="#Dégradé_sans_nom_21"/><linearGradient id="Dégradé_sans_nom_22-4" x1="-9868.51" y1="12677.75" x2="-10017.63" y2="12419.48" gradientTransform="matrix(0.2, 0.07, 0.07, 0.15, 2309.86, -41.62)" xlink:href="#Dégradé_sans_nom_22"/></defs><g id="Layer_2" data-name="Layer 2"><g id="Layer_1-2" data-name="Layer 1"><rect class="cls-1" width="1754.16" height="1161.58"/><rect class="cls-2" x="536.98" y="371.03" width="4.64" height="6.83"/><path class="cls-2" d="M541.62,359.31H537V347.59h4.64Zm0-23.44H537V324.15h4.64Z"/><polygon class="cls-2" points="541.62 312.43 536.98 312.43 536.98 304.33 543.82 299.97 546.31 303.88 541.62 306.87 541.62 312.43"/><path class="cls-2" d="M557.47,296.77,555,292.86l11.15-7.1,2.49,3.91Zm22.31-14.21-2.49-3.91,11.16-7.11,2.49,3.91Zm22.32-14.22-2.49-3.91,11.15-7.11,2.49,3.91Zm22.31-14.21-2.49-3.91,11.16-7.11,2.49,3.91Zm22.32-14.22-2.5-3.91,11.16-7.11,2.49,3.91ZM669,225.69l-2.49-3.91,11.16-7.11,2.49,3.91Zm22.31-14.21-2.49-3.91L700,200.46l2.49,3.91Zm22.32-14.22-2.49-3.91,11.16-7.11,2.49,3.91ZM736,183l-2.49-3.91,11.16-7.1,2.49,3.91Zm22.32-14.21-2.49-3.91L767,157.81l2.49,3.91Zm22.31-14.22-2.49-3.91,11.16-7.11,2.49,3.91Z"/><polygon class="cls-2" points="802.93 140.4 800.44 136.49 807.37 132.07 814.54 136.09 812.27 140.13 807.52 137.47 802.93 140.4"/><path class="cls-2" d="M864.94,169.71l-13.16-7.4,2.27-4,13.16,7.39Zm-26.33-14.79-13.17-7.39,2.27-4.05,13.17,7.4Z"/><rect class="cls-2" x="879.91" y="173.33" width="4.64" height="6.83" transform="translate(296.25 859.54) rotate(-60.69)"/><rect class="cls-2" x="1097.62" y="750.56" width="6.83" height="4.64" transform="translate(326.27 1838.63) rotate(-88.85)"/><path class="cls-2" d="M1103.69,736.5l-4.64-.1.26-13,4.64.09Zm.52-26-4.64-.09.27-13,4.63.09Zm.52-26-4.63-.09.26-13,4.64.09Zm.53-26-4.64-.09.26-13,4.64.09Z"/><polygon class="cls-2" points="1105.78 632.37 1101.14 632.28 1101.31 624.18 1108.21 619.95 1110.64 623.9 1105.89 626.81 1105.78 632.37"/><path class="cls-2" d="M1122,616.93,1119.6,613l11.38-7,2.42,4ZM1144.78,603l-2.42-4,11.38-7,2.43,4ZM1167.55,589l-2.42-3.95,11.38-7,2.42,4Zm22.76-13.95-2.42-4,11.38-7,2.43,4Zm22.77-13.94-2.42-3.95,11.38-7,2.42,4Zm22.76-13.95-2.42-4,11.38-7,2.43,4Zm22.77-13.94-2.42-4,11.38-7,2.42,4Zm22.76-14-2.42-3.95,11.38-7,2.42,4Zm22.77-13.94-2.42-3.95,11.38-7,2.42,4Zm22.76-13.95-2.42-3.95,11.38-7,2.42,3.95Zm22.77-13.94-2.43-4,11.39-7,2.42,4Z"/><rect class="cls-2" x="1370.72" y="457.45" width="6.83" height="4.64" transform="translate(-37.77 785.58) rotate(-31.49)"/><rect class="cls-2" x="898.19" y="385.1" width="6.83" height="4.64" transform="translate(-71.34 515.3) rotate(-30.74)"/><path class="cls-2" d="M918.37,380.15l-2.37-4,12.64-7.52,2.37,4Zm25.27-15-2.37-4,12.64-7.51,2.37,4Zm25.27-15-2.37-4,12.64-7.52,2.37,4Zm25.28-15-2.37-4,12.64-7.51,2.36,4Zm25.27-15-2.37-4,12.64-7.51,2.37,4Z"/><rect class="cls-2" x="1043.07" y="298.97" width="6.83" height="4.64" transform="translate(-7.08 576.81) rotate(-30.72)"/><rect class="cls-2" x="1204.65" y="905.28" width="4.64" height="6.83"/><path class="cls-2" d="M1209.31,890.84h-4.64V876.39h4.64Zm0-28.9h-4.64l0-14.45h4.63Zm0-28.89h-4.63V818.6h4.64Zm0-28.9h-4.64V789.7h4.64Zm0-28.89h-4.63V760.81h4.63Zm0-28.9h-4.64V731.91h4.64Zm0-28.89h-4.63V703h4.63Zm0-28.9h-4.63V674.12h4.64Z"/><polygon class="cls-2" points="1209.5 659.68 1204.86 659.67 1204.87 651.56 1211.75 647.25 1214.21 651.18 1209.5 654.13 1209.5 659.68"/><path class="cls-2" d="M1225.23,644.28l-2.46-3.93,11-6.91,2.46,3.93Zm22-13.81-2.46-3.93,11-6.91,2.46,3.93Zm22-13.81-2.46-3.93,11-6.91,2.46,3.93Zm22-13.81-2.46-3.93,11-6.91,2.46,3.93Zm22-13.81-2.46-3.93,11-6.91,2.46,3.93Zm22-13.81L1333,571.3l11-6.9,2.46,3.92Zm22-13.81-2.46-3.93,11-6.9,2.46,3.92Zm22-13.81-2.46-3.93,11-6.9,2.46,3.93Zm22-13.81-2.46-3.93,11-6.9,2.46,3.93Zm22-13.81-2.46-3.93,11-6.9,2.46,3.93Z"/><rect class="cls-2" x="1443.9" y="500.09" width="6.83" height="4.64" transform="translate(-45.95 844.88) rotate(-32.06)"/><rect class="cls-2" x="1257.76" y="385.53" width="4.64" height="6.83" transform="matrix(0.51, -0.86, 0.86, 0.51, 286.63, 1278.59)"/><path class="cls-2" d="M1431.06,492,1419,484.94l2.34-4,12.09,7.1Zm-24.17-14.19-12.09-7.1,2.35-4,12.09,7.1Zm-24.17-14.2-12.09-7.09,2.35-4,12.08,7.1Zm-24.18-14.19-12.09-7.1,2.35-4,12.09,7.09Zm-24.17-14.19-12.09-7.1,2.35-4,12.08,7.1Zm-24.18-14.2-12.08-7.1,2.34-4,12.09,7.09ZM1286,406.87l-12.09-7.1,2.35-4,12.09,7.1Z"/><rect class="cls-2" x="1444.95" y="495.44" width="4.64" height="6.83" transform="matrix(0.51, -0.86, 0.86, 0.51, 284.25, 1494.27)"/><path class="cls-3" d="M953.65,128.52a121.72,121.72,0,0,1-3.91-23.7c-2.93-52,35.18-76.39,85.1-54.66,40.61,17.74,76.58,60.61,90.12,103.91,10.85-2.59,24.2-.65,38.66,6.62,35.7,17.94,64.6,61.41,64.48,97a53.59,53.59,0,0,1-2.07,15.14c29.28,19.24,51.66,56.6,51.57,88.2-.1,34.62-27.41,49.11-60.9,32.28a102.5,102.5,0,0,1-11.57-6.92l-237-119a87.31,87.31,0,0,1-12.25-5c-36.58-18.37-66.19-63-66.08-99.55C889.87,127,918.26,112.12,953.65,128.52Z"/><path class="cls-3" d="M263.11,166.18a67.42,67.42,0,0,1-2.14-13c-1.61-28.48,19.29-41.87,46.65-30,22.27,9.73,42,33.23,49.41,57,6-1.42,13.26-.36,21.19,3.62,19.57,9.84,35.42,33.67,35.35,53.18a29.85,29.85,0,0,1-1.13,8.3c16.05,10.55,28.32,31,28.27,48.35-.06,19-15,26.92-33.39,17.7a55.58,55.58,0,0,1-6.34-3.79L271,242.28a48.27,48.27,0,0,1-6.71-2.75C244.27,229.46,228,205,228.1,185,228.15,165.36,243.72,157.19,263.11,166.18Z"/><path class="cls-2" d="M253.6,170.59a66.66,66.66,0,0,1-2.14-13c-1.61-28.48,19.28-41.87,46.65-30,22.26,9.73,42,33.23,49.4,57,5.95-1.42,13.27-.36,21.2,3.62,19.57,9.84,35.41,33.67,35.35,53.18a29.47,29.47,0,0,1-1.14,8.3c16.05,10.55,28.32,31,28.27,48.35-.05,19-15,26.92-33.39,17.7a59.63,59.63,0,0,1-6.34-3.79L261.52,246.69a48.27,48.27,0,0,1-6.71-2.75c-20.05-10.07-36.28-34.51-36.23-54.58C218.64,169.77,234.2,161.6,253.6,170.59Z"/><path class="cls-2" d="M936.29,136.56a123.25,123.25,0,0,1-3.91-23.7c-2.93-52,35.18-76.39,85.1-54.66,40.61,17.75,76.58,60.61,90.13,103.91,10.84-2.59,24.19-.65,38.65,6.62,35.7,17.94,64.61,61.41,64.48,97a53.54,53.54,0,0,1-2.07,15.14c29.29,19.24,51.66,56.6,51.57,88.2-.1,34.62-27.41,49.11-60.9,32.28a102.5,102.5,0,0,1-11.57-6.92l-237-119a86.72,86.72,0,0,1-12.24-5c-36.59-18.37-66.2-63-66.09-99.55C872.52,135.07,900.9,120.16,936.29,136.56Z"/><path class="cls-4" d="M644.17,882.19,378.53,737.11c-10.28-6.9-13.62-13.75-.91-21.49l173.12-95c12.71-7.74,33.73-8.27,42.76-3.38L857.91,763.59c9,4.89,6,15.23-6.7,23L676.67,882.23C664,890,653.2,887.08,644.17,882.19Z"/><path class="cls-5" d="M651.87,663.57a6.23,6.23,0,0,0,0-2.11v-14h-5.23v8.4c-1.72,2.18-3,2.38-6.75,4.69L465.35,756.26c-12.71,7.74-23.48,4.85-32.5,0L167.2,611.14c-.42-.29-.77-.5-1.07-.7v-9h-7.95l.31,14.44c.12,4.15,4.32,8.14,10.19,12.08l264,144c9.07,4.91,19.9,7.8,32.71,0L641.29,675c6.45-3.94,9.87-7.77,10.55-11.26h0Z"/><path class="cls-6" d="M652,659.72a6.49,6.49,0,0,0,0-2.11v-14h-5.23v8.39c-1.73,2.18-3,2.38-6.76,4.69L465.46,752.41c-12.71,7.74-23.47,4.85-32.5,0L167.32,607.29l-1.08-.7v-9H158.3l.3,14.44c.12,4.15,4.33,8.14,10.19,12.08l264,144c9.08,4.91,19.91,7.8,32.71,0l175.89-96.86c6.45-3.94,9.86-7.77,10.54-11.26h0Z"/><path class="cls-7" d="M652,643.66h-5.23v8.39c-1.73,2.18-3,2.38-6.76,4.69L465.46,752.41c-6.68,4.07-12.83,5.2-18.46,4.64v15.73c5.65.53,11.82-.63,18.52-4.73l175.89-96.86c6.45-3.94,9.86-7.77,10.54-11.26h0v-.21a6.49,6.49,0,0,0,0-2.11Z"/><path class="cls-8" d="M442.69,772a27.51,27.51,0,0,0,12.82.18V756.53a27.49,27.49,0,0,1-12.82-.23Z"/><path class="cls-9" d="M433.08,753.87,167.44,608.79c-10.28-6.9-13.62-13.75-.91-21.49l173.12-95c12.71-7.74,33.73-8.27,42.76-3.38L646.82,635.27c9,4.89,6,15.23-6.7,23L465.58,753.91C452.88,761.65,442.11,758.76,433.08,753.87Z"/><path class="cls-10" d="M350.44,684.94l-67.35-35.39a2.4,2.4,0,0,1,.18-4.43L330,619.78a8.71,8.71,0,0,1,6.38.05l66.41,35.88c1.38.71,1.11,3.07-.59,4L356,684.59A6.87,6.87,0,0,1,350.44,684.94Z"/><path class="cls-10" d="M505.15,689.61,276.82,562.68c-6.1-3.37-5-9,2.4-12.61l63.85-34.71c7.42-3.57,18.49-3.73,24.6-.37l229.4,127.73c6.11,3.37,5,9-2.39,12.61l-64.93,33.91C522.32,692.81,511.25,693,505.15,689.61Z"/><path class="cls-11" d="M346.25,540.85a2.28,2.28,0,0,1-1.82-.2l-14.23-7.82c-.59-.33-.73-.77-.32-1l10-5.09a2.24,2.24,0,0,1,1.82.2l14.23,7.82c.59.33.73.76.32,1Z"/><path class="cls-11" d="M367.29,552.42a2.25,2.25,0,0,1-1.82-.21l-14.22-7.82c-.6-.32-.74-.76-.32-1l10-5.1a2.27,2.27,0,0,1,1.83.21L377,546.35c.59.32.74.76.32,1Z"/><path class="cls-11" d="M363.39,566.8a2.28,2.28,0,0,1-1.82-.2l-14.23-7.82c-.59-.33-.73-.76-.32-1l10-5.1a2.24,2.24,0,0,1,1.82.2l14.23,7.82c.59.33.73.76.31,1Z"/><path class="cls-11" d="M389.51,564.63a2.27,2.27,0,0,1-1.83-.21l-14.22-7.82c-.59-.32-.73-.76-.32-1l10-5.1a2.25,2.25,0,0,1,1.82.21l14.23,7.82c.59.32.73.76.32,1Z"/><path class="cls-11" d="M384.44,578.37a2.25,2.25,0,0,1-1.82-.21l-14.23-7.82c-.59-.32-.74-.76-.32-1l10-5.1a2.27,2.27,0,0,1,1.83.21l14.23,7.82c.59.32.73.76.32,1Z"/><path class="cls-11" d="M410.55,576.19a2.28,2.28,0,0,1-1.82-.2l-14.23-7.82c-.59-.33-.73-.76-.31-1l10-5.1a2.28,2.28,0,0,1,1.82.2l14.23,7.82c.59.33.73.76.32,1Z"/><path class="cls-11" d="M381.35,592.33a2.24,2.24,0,0,1-1.82-.2l-14.23-7.82c-.59-.33-.73-.76-.32-1l10-5.1a2.3,2.3,0,0,1,1.83.2L391,586.26c.59.33.74.76.32,1Z"/><path class="cls-11" d="M406.65,590.58a2.24,2.24,0,0,1-1.82-.21l-14.23-7.82c-.59-.32-.74-.76-.32-1l10-5.1a2.27,2.27,0,0,1,1.83.21l14.23,7.82c.59.32.73.76.31,1Z"/><path class="cls-11" d="M432.76,588.4a2.28,2.28,0,0,1-1.82-.2l-14.22-7.82c-.59-.33-.74-.76-.32-1l10-5.09a2.3,2.3,0,0,1,1.83.2l14.22,7.82c.6.33.73.76.32,1Z"/><path class="cls-11" d="M402.39,603.9a2.25,2.25,0,0,1-1.82-.21l-14.22-7.81c-.59-.33-.74-.77-.32-1l10-5.09a2.26,2.26,0,0,1,1.83.2l14.22,7.82c.6.33.74.76.32,1Z"/><path class="cls-11" d="M428.86,602.79a2.29,2.29,0,0,1-1.82-.21l-14.23-7.82c-.59-.33-.73-.76-.32-1l10-5.1a2.24,2.24,0,0,1,1.82.21l14.23,7.82c.59.32.74.76.32,1Z"/><path class="cls-11" d="M455,600.61a2.28,2.28,0,0,1-1.82-.2l-14.23-7.82c-.59-.33-.73-.76-.32-1l10-5.09a2.28,2.28,0,0,1,1.82.2l14.23,7.82c.59.33.73.76.31,1Z"/><path class="cls-11" d="M424.61,616.11a2.28,2.28,0,0,1-1.82-.2l-14.23-7.83c-.59-.32-.73-.76-.32-1l10-5.09a2.24,2.24,0,0,1,1.82.2L434.28,610c.59.32.73.76.31,1Z"/><path class="cls-11" d="M449.91,614.35a2.27,2.27,0,0,1-1.82-.2l-14.23-7.82c-.59-.33-.74-.76-.32-1l10-5.1a2.3,2.3,0,0,1,1.83.2l14.22,7.82c.59.33.74.76.32,1Z"/><path class="cls-11" d="M476,612.18a2.25,2.25,0,0,1-1.82-.21L460,604.16c-.6-.33-.74-.77-.32-1l10-5.1a2.31,2.31,0,0,1,1.83.21l14.22,7.82c.59.32.73.76.32,1Z"/><path class="cls-11" d="M446.82,628.32a2.25,2.25,0,0,1-1.82-.21l-14.22-7.81c-.6-.33-.74-.77-.32-1l10-5.09a2.22,2.22,0,0,1,1.83.2l14.22,7.82c.59.32.74.76.32,1Z"/><path class="cls-11" d="M472.12,626.56a2.28,2.28,0,0,1-1.82-.2l-14.23-7.82c-.59-.33-.74-.76-.32-1l10-5.09a2.26,2.26,0,0,1,1.83.2l14.23,7.82c.59.33.74.76.32,1Z"/><path class="cls-11" d="M497.07,623.75a2.27,2.27,0,0,1-1.83-.21L481,615.72c-.59-.33-.72-.76-.31-1l10-5.1a2.26,2.26,0,0,1,1.81.2l14.23,7.83c.6.32.74.76.33,1Z"/><path class="cls-11" d="M467.87,639.88a2.2,2.2,0,0,1-1.82-.2l-14.23-7.82c-.59-.32-.74-.76-.32-1l10-5.1a2.25,2.25,0,0,1,1.82.21l14.23,7.82c.59.32.73.75.31,1Z"/><path class="cls-11" d="M493.17,638.13a2.27,2.27,0,0,1-1.83-.21l-14.22-7.82c-.59-.32-.74-.76-.32-1l10-5.09a2.26,2.26,0,0,1,1.83.2l14.22,7.82c.6.33.74.76.32,1Z"/><path class="cls-11" d="M519.28,636a2.24,2.24,0,0,1-1.82-.2l-14.22-7.82c-.6-.32-.74-.76-.32-1l10-5.1a2.25,2.25,0,0,1,1.82.21L529,629.88c.59.33.73.77.32,1Z"/><path class="cls-11" d="M490.08,652.09a2.2,2.2,0,0,1-1.82-.2L474,644.07c-.59-.33-.73-.76-.31-1l10-5.1a2.27,2.27,0,0,1,1.83.21L499.75,646c.59.32.74.75.32,1Z"/><path class="cls-11" d="M515.38,650.34a2.25,2.25,0,0,1-1.82-.21l-14.23-7.82c-.59-.32-.73-.76-.32-1l10-5.09a2.24,2.24,0,0,1,1.82.2l14.23,7.82c.59.32.73.76.32,1Z"/><path class="cls-11" d="M540.33,647.52a2.27,2.27,0,0,1-1.83-.21l-14.22-7.81c-.6-.33-.73-.76-.32-1l10-5.09a2.28,2.28,0,0,1,1.82.2L550,641.45c.59.33.74.76.32,1Z"/><path class="cls-11" d="M511.13,663.66a2.26,2.26,0,0,1-1.83-.2l-14.22-7.82c-.59-.33-.74-.76-.32-1l10-5.09a2.26,2.26,0,0,1,1.83.2l14.22,7.82c.6.33.75.76.33,1Z"/><path class="cls-11" d="M547.87,668.2a3.79,3.79,0,0,1-2.56-.61l-24.19-13.3c-1-.55-1.48-1.17-1.07-1.38l10-5.1a3.85,3.85,0,0,1,2.57.61l24.19,13.3c1,.56,1.48,1.17,1.06,1.38Z"/><path class="cls-11" d="M562.54,659.73a2.27,2.27,0,0,1-1.83-.21l-14.22-7.81c-.6-.33-.73-.76-.32-1l10-5.09a2.28,2.28,0,0,1,1.82.2l14.22,7.82c.6.33.74.76.33,1Z"/><path class="cls-11" d="M532.17,675.23a2.16,2.16,0,0,1-1.75-.17l-13.2-7.26c-.55-.3-.66-.71-.25-.93l10-5.09a2.12,2.12,0,0,1,1.75.16l13.2,7.26c.55.3.66.72.25.93Z"/><path class="cls-11" d="M577.89,652.51a3.7,3.7,0,0,1-2.54-.6l-23.89-13.13c-1-.54-1.45-1.16-1-1.37l10-5.1a3.77,3.77,0,0,1,2.54.61l23.89,13.13c1,.54,1.45,1.15,1,1.36Z"/><path class="cls-11" d="M545.75,634.84a2.3,2.3,0,0,1-1.83-.2l-14.22-7.82c-.6-.33-.73-.76-.32-1l10-5.1a2.28,2.28,0,0,1,1.82.2l14.22,7.82c.59.33.74.76.33,1Z"/><path class="cls-11" d="M523.54,622.63a2.26,2.26,0,0,1-1.83-.2l-14.23-7.82c-.59-.33-.73-.76-.32-1l10-5.09a2.28,2.28,0,0,1,1.82.2l14.23,7.82c.59.33.74.76.32,1Z"/><path class="cls-11" d="M502.49,611.07a2.27,2.27,0,0,1-1.83-.21L486.44,603c-.59-.32-.74-.76-.32-1l10-5.1a2.27,2.27,0,0,1,1.83.21L512.16,605c.59.32.73.76.32,1Z"/><path class="cls-11" d="M480.27,598.86a2.25,2.25,0,0,1-1.82-.21l-14.23-7.82c-.59-.32-.73-.76-.32-1l10-5.1a2.24,2.24,0,0,1,1.82.21l14.23,7.82c.59.32.74.76.32,1Z"/><path class="cls-11" d="M459.23,587.29a2.28,2.28,0,0,1-1.82-.2l-14.23-7.83c-.59-.32-.73-.76-.32-1l10-5.09a2.2,2.2,0,0,1,1.82.2l14.23,7.82c.59.32.74.76.32,1Z"/><path class="cls-11" d="M437,575.08a2.28,2.28,0,0,1-1.82-.2L421,567.06c-.58-.33-.73-.77-.32-1l10-5.1a2.31,2.31,0,0,1,1.83.21L446.69,569c.59.33.73.76.31,1Z"/><path class="cls-11" d="M414.81,562.87a2.3,2.3,0,0,1-1.83-.2l-14.23-7.82c-.59-.33-.73-.77-.32-1l10-5.09a2.24,2.24,0,0,1,1.82.2l14.23,7.82c.59.33.74.76.33,1Z"/><path class="cls-11" d="M393.75,551.3a2.25,2.25,0,0,1-1.81-.2l-14.23-7.82c-.6-.33-.73-.76-.32-1l10-5.1a2.25,2.25,0,0,1,1.82.21l14.23,7.82c.59.32.73.75.31,1Z"/><path class="cls-11" d="M371.54,539.09a3.54,3.54,0,0,1-2.5-.58l-23.38-12.84c-1-.54-1.42-1.14-1-1.36l10-5.09a3.67,3.67,0,0,1,2.51.58l23.38,12.85c1,.53,1.42,1.14,1,1.35Z"/><path class="cls-11" d="M341.18,554.59a3.67,3.67,0,0,1-2.51-.58L315.3,541.16c-1-.53-1.43-1.14-1-1.35l10-5.1a3.64,3.64,0,0,1,2.51.59l23.38,12.85c1,.53,1.42,1.13,1,1.35Z"/><path class="cls-11" d="M315.88,556.35a2.25,2.25,0,0,1-1.82-.21l-14.23-7.82c-.58-.32-.73-.76-.32-1l10-5.1a2.31,2.31,0,0,1,1.83.21l14.22,7.82c.59.32.74.76.32,1Z"/><path class="cls-11" d="M338.1,568.56a2.27,2.27,0,0,1-1.83-.21l-14.22-7.82c-.59-.32-.74-.76-.32-1l10-5.1a2.27,2.27,0,0,1,1.83.21l14.23,7.82c.58.32.73.76.31,1Z"/><path class="cls-11" d="M359.14,580.13a2.31,2.31,0,0,1-1.83-.21l-14.22-7.82c-.59-.33-.73-.76-.32-1l10-5.1a2.28,2.28,0,0,1,1.82.2l14.22,7.82c.6.33.75.77.33,1Z"/><path class="cls-11" d="M463.05,653.5c-.42.21-.38.85-1.82.06l-125.63-69c-1.38-.76-2.75-2.13-2.33-2.34l9.77-5c.42-.21,3.51,1.17,4.58,1.76l125.1,68.76c1.36.74.52.6.1.81Z"/><path class="cls-11" d="M516.68,683.13a1.63,1.63,0,0,1-1.54.06l-20-11c-.54-.3-1.08-1.07-.67-1.28l9.77-5a4.14,4.14,0,0,1,2.39.41l20,11c.53.29.24.6-.18.81Z"/><path class="cls-11" d="M489.8,668.35a1.4,1.4,0,0,1-1.42.13l-20-11c-.54-.3-1.2-1.14-.79-1.35l9.77-5a4.52,4.52,0,0,1,2.51.47l20,11c.53.29.12.53-.3.74Z"/><path class="cls-11" d="M300.56,564.21c-.42.21-.7.66-1.1.44l-14.77-8.12c-.4-.22-.95-1.13-.54-1.34l9.77-5a4.34,4.34,0,0,1,2.26.46L311,558.79c.4.21-.21.22-.62.43Z"/><path class="cls-11" d="M327.41,579c-.41.21-.18.94-.72.65l-20-11c-.54-.3-.74-1-.32-1.22l9.77-5a3,3,0,0,1,2,.35l20,11c.54.3-.58,0-1,.23Z"/><path class="cls-12" d="M374.62,487.08,654,640.77c2.43,1.33,7.58,1.47,10.94-.15,4.3-2.09,6.59-6.56,6.59-9.52l3.73-211.3c0-5.27-4.53-12.06-10.06-15.09l-279-148c-9.84-4.84-20.4,4.09-20.4,9.37V465.77c0,5.33.41,9.9,2.05,13.52A18.84,18.84,0,0,0,374.62,487.08Z"/><path class="cls-2" d="M379.05,489.52,653.21,638.35c5.41,3,9.84,1.17,9.84-4.06L667,426.15c0-5.22-4.42-11.95-9.83-14.95L378.15,261c-9.12-4.51-12.34,1.29-12.34,6.52l.1,202.51c0,3.5,1.6,8.48,3.38,11.82S376.35,488,379.05,489.52Z"/><path class="cls-11" d="M378.15,485.57,651.06,636.79c5.41,3,9.84,1.18,9.84-4l3.73-205.32c0-5.23-4.43-12-9.84-14.95L378.15,263.73c-5.41-3-9.83-1.18-9.83,4V467.23c0,3.5.26,7.33,2,10.67A20.76,20.76,0,0,0,378.15,485.57Z"/><polygon class="cls-11" points="387.44 473.38 642.63 613.8 646.36 425.52 387.44 286.37 387.44 473.38"/><path class="cls-13" d="M283.12,646.37,329.86,621a8.68,8.68,0,0,1,6.37.05L402.65,657a1.56,1.56,0,0,1,.71.77,1.94,1.94,0,0,0-.71-2.46l-66.42-35.88a8.68,8.68,0,0,0-6.37,0l-46.74,25.34c-1.59.84-1.8,2.08-1.4,3.06A2.94,2.94,0,0,1,283.12,646.37Z"/><path class="cls-10" d="M322.21,693.34l1.4-.85c1.17-.7,1.42-2.4.53-2.86L281,666.15a5.45,5.45,0,0,0-4.25.17l-1.85,1.13Z"/><polygon class="cls-14" points="530.86 728.41 620.41 678.51 620.41 674.11 530.86 724.01 530.86 728.41"/><path class="cls-15" d="M959.57,1060.59,704.4,901.1c-10.15-7.07-14.46-12.59-5.47-15.22l124.81-28.44c9-2.62,26.56,1.6,35.22,7l254.41,160.09c8.66,5.4,8.39,12-.61,14.58l-125.84,28.63C977.92,1070.36,968.23,1066,959.57,1060.59Z"/><path class="cls-16" d="M941.25,868l-99.19-58.48c-3.89-2.67-5.38-5-1.32-6.86l55.75-22c4.06-1.86,11.35-1,14.72.93L1010,840.42c3.36,2,2.8,5.12-1.26,7l-56.21,22.17C948.5,871.42,944.62,870,941.25,868Z"/><rect class="cls-17" x="899.2" y="898.18" width="4.89" height="12.26"/><rect class="cls-17" x="516.23" y="791.75" width="5.54" height="8.46"/><path class="cls-17" d="M790.76,958.29l-269.85-150c-7.22-4-5.94-10.68,2.83-14.9l75.47-41c8.77-4.22,21.85-4.42,29.07-.44l271.13,151c7.22,4,5.94,10.69-2.83,14.9l-76.75,40.08C811.06,962.07,798,962.26,790.76,958.29Z"/><path class="cls-18" d="M790.76,947.79l-269.85-150c-7.22-4-5.94-10.69,2.83-14.9l75.47-41c8.77-4.22,21.85-4.41,29.07-.43l271.13,151c7.22,4,5.94,10.68-2.83,14.9l-76.75,40.08C811.06,951.57,798,951.77,790.76,947.79Z"/><path class="cls-11" d="M603,772a2.7,2.7,0,0,1-2.16-.24L584,762.5c-.7-.39-.87-.91-.38-1.16l11.8-6a2.7,2.7,0,0,1,2.16.24l16.81,9.25c.7.38.87.89.38,1.14Z"/><path class="cls-11" d="M627.84,785.65a2.7,2.7,0,0,1-2.16-.24l-16.81-9.24c-.7-.39-.87-.91-.38-1.16l11.8-6a2.7,2.7,0,0,1,2.16.24l16.81,9.25c.7.38.87.89.38,1.14Z"/><path class="cls-11" d="M623.22,802.65a2.72,2.72,0,0,1-2.15-.24l-16.81-9.25c-.71-.38-.87-.89-.38-1.14l11.8-6a2.71,2.71,0,0,1,2.16.24l16.81,9.25c.7.38.86.89.37,1.14Z"/><path class="cls-11" d="M654.09,800.08a2.7,2.7,0,0,1-2.16-.24l-16.81-9.25c-.7-.38-.86-.89-.37-1.15l11.8-6a2.68,2.68,0,0,1,2.15.24l16.81,9.25c.7.38.88.9.39,1.15Z"/><path class="cls-11" d="M648.1,816.32a2.68,2.68,0,0,1-2.15-.24l-16.82-9.25c-.7-.38-.87-.89-.38-1.14l11.8-6a2.7,2.7,0,0,1,2.16.24l16.82,9.25c.69.38.87.9.37,1.15Z"/><path class="cls-11" d="M679,813.74a2.66,2.66,0,0,1-2.16-.23L660,804.26c-.7-.38-.86-.89-.37-1.15l11.8-6a2.68,2.68,0,0,1,2.15.24l16.81,9.24c.71.39.87.9.38,1.15Z"/><path class="cls-11" d="M644.45,832.83a2.67,2.67,0,0,1-2.16-.25l-16.81-9.24c-.7-.38-.87-.9-.38-1.15l11.81-6a2.6,2.6,0,0,1,2.15.24l16.82,9.24c.7.38.87.9.38,1.15Z"/><path class="cls-11" d="M674.34,830.75a2.66,2.66,0,0,1-2.14-.24l-16.82-9.25c-.7-.38-.87-.9-.38-1.15l11.8-6a2.7,2.7,0,0,1,2.16.24l16.82,9.25c.69.38.86.89.37,1.14Z"/><path class="cls-11" d="M705.21,828.18a2.68,2.68,0,0,1-2.15-.24l-16.81-9.24c-.7-.39-.87-.91-.38-1.16l11.8-6a2.7,2.7,0,0,1,2.16.24L716.64,821c.7.39.87.9.38,1.15Z"/><path class="cls-11" d="M669.32,846.49a2.64,2.64,0,0,1-2.15-.24L650.35,837c-.69-.38-.87-.9-.38-1.15l11.81-6a2.7,2.7,0,0,1,2.16.24l16.81,9.24c.7.39.87.9.37,1.15Z"/><path class="cls-11" d="M700.6,845.18a2.68,2.68,0,0,1-2.15-.24l-16.82-9.25c-.7-.38-.86-.89-.37-1.14l11.8-6a2.68,2.68,0,0,1,2.15.24L712,838c.69.38.87.9.38,1.15Z"/><path class="cls-11" d="M731.47,842.6a2.63,2.63,0,0,1-2.15-.23l-16.82-9.25c-.7-.38-.87-.89-.37-1.15l11.8-6a2.68,2.68,0,0,1,2.15.24l16.82,9.25c.69.38.86.89.37,1.14Z"/><path class="cls-11" d="M695.57,860.92a2.64,2.64,0,0,1-2.15-.24l-16.81-9.24c-.7-.38-.87-.9-.38-1.15l11.8-6a2.7,2.7,0,0,1,2.16.24L707,853.75c.69.39.86.9.36,1.15Z"/><path class="cls-11" d="M725.47,858.85a2.68,2.68,0,0,1-2.15-.24l-16.81-9.25c-.7-.38-.87-.89-.38-1.14l11.8-6a2.7,2.7,0,0,1,2.16.24l16.81,9.25c.7.38.87.89.38,1.15Z"/><path class="cls-11" d="M756.34,856.28a2.7,2.7,0,0,1-2.16-.24l-16.81-9.24c-.7-.39-.86-.9-.37-1.15l11.8-6a2.67,2.67,0,0,1,2.16.25l16.8,9.24c.7.38.87.89.38,1.14Z"/><path class="cls-11" d="M721.83,875.36a2.67,2.67,0,0,1-2.16-.25l-16.8-9.24c-.71-.38-.88-.9-.39-1.15l11.81-6a2.66,2.66,0,0,1,2.16.24l16.81,9.24c.7.38.87.9.37,1.15Z"/><path class="cls-11" d="M751.73,873.28a2.68,2.68,0,0,1-2.15-.24l-16.82-9.25c-.7-.38-.87-.9-.38-1.15l11.8-6a2.7,2.7,0,0,1,2.16.24l16.82,9.25c.69.38.87.9.37,1.15Z"/><path class="cls-11" d="M781.22,870a2.66,2.66,0,0,1-2.16-.24l-16.82-9.25c-.7-.38-.86-.89-.37-1.14l11.8-6a2.68,2.68,0,0,1,2.15.24l16.82,9.25c.7.39.87.9.38,1.15Z"/><path class="cls-11" d="M746.7,889a2.65,2.65,0,0,1-2.15-.25l-16.82-9.24c-.69-.38-.87-.9-.38-1.15l11.81-6a2.7,2.7,0,0,1,2.16.24l16.81,9.24c.7.39.87.9.37,1.15Z"/><path class="cls-11" d="M776.6,887a2.68,2.68,0,0,1-2.15-.24l-16.82-9.24c-.69-.39-.87-.9-.38-1.15l11.81-6a2.64,2.64,0,0,1,2.15.25L788,879.78c.7.38.87.9.38,1.15Z"/><path class="cls-11" d="M807.47,884.38a2.7,2.7,0,0,1-2.16-.24L788.5,874.9c-.7-.39-.86-.9-.37-1.15l11.8-6a2.64,2.64,0,0,1,2.15.24l16.81,9.24c.7.38.87.9.38,1.15Z"/><path class="cls-11" d="M773,903.46a2.68,2.68,0,0,1-2.15-.24L754,894c-.7-.38-.87-.89-.38-1.14l11.81-6a2.68,2.68,0,0,1,2.15.24l16.82,9.24c.7.39.86.9.37,1.15Z"/><path class="cls-11" d="M802.86,901.38a2.7,2.7,0,0,1-2.16-.24l-16.81-9.24c-.7-.39-.87-.9-.38-1.15l11.8-6a2.62,2.62,0,0,1,2.16.24l16.81,9.24c.7.38.87.9.38,1.15Z"/><path class="cls-11" d="M832.34,898.05a2.7,2.7,0,0,1-2.16-.24l-16.81-9.24c-.7-.39-.86-.9-.37-1.15l11.8-6a2.71,2.71,0,0,1,2.16.25l16.8,9.24c.7.38.87.9.38,1.15Z"/><path class="cls-11" d="M797.83,917.13a2.67,2.67,0,0,1-2.16-.25l-16.81-9.24c-.7-.38-.87-.9-.38-1.15l11.8-6a2.7,2.7,0,0,1,2.16.24L809.26,910c.7.39.87.9.38,1.16Z"/><path class="cls-11" d="M841.26,922.49c-.49.25-1.84-.07-3-.72l-28.59-15.72c-1.18-.65-1.75-1.38-1.26-1.63l11.8-6c.5-.26,1.86.07,3,.72l28.59,15.72c1.19.65,1.75,1.37,1.25,1.63Z"/><path class="cls-11" d="M858.59,912.48a2.71,2.71,0,0,1-2.16-.24L839.63,903c-.71-.39-.87-.9-.38-1.15l11.8-6a2.67,2.67,0,0,1,2.16.25l16.8,9.24c.71.38.88.9.39,1.14Z"/><path class="cls-11" d="M822.7,930.8a2.53,2.53,0,0,1-2.07-.2L805,922c-.65-.35-.78-.85-.29-1.1l11.8-6a2.56,2.56,0,0,1,2.07.19l15.6,8.58c.65.36.79.85.29,1.1Z"/><path class="cls-11" d="M876.74,904c-.49.25-1.83-.07-3-.71L845.5,887.72c-1.16-.64-1.72-1.37-1.23-1.62l11.81-6c.49-.25,1.84.07,3,.71l28.24,15.52c1.17.64,1.71,1.36,1.22,1.61Z"/><path class="cls-11" d="M838.75,883.07a2.67,2.67,0,0,1-2.16-.25l-16.81-9.24c-.7-.38-.87-.9-.38-1.15l11.81-6a2.68,2.68,0,0,1,2.15.24l16.81,9.24c.7.39.87.9.38,1.15Z"/><path class="cls-11" d="M812.5,868.64a2.67,2.67,0,0,1-2.16-.25l-16.82-9.24c-.69-.38-.87-.9-.37-1.15l11.8-6a2.68,2.68,0,0,1,2.15.24l16.82,9.24c.7.39.87.9.38,1.15Z"/><path class="cls-11" d="M787.62,855a2.62,2.62,0,0,1-2.16-.24l-16.81-9.24c-.7-.38-.87-.9-.38-1.15l11.8-6a2.71,2.71,0,0,1,2.16.25l16.82,9.24c.69.38.87.9.38,1.15Z"/><path class="cls-11" d="M761.36,840.53a2.68,2.68,0,0,1-2.15-.24l-16.82-9.24c-.69-.38-.86-.9-.37-1.15l11.8-6a2.7,2.7,0,0,1,2.16.24l16.81,9.24c.7.38.87.9.38,1.15Z"/><path class="cls-11" d="M736.5,826.86a2.7,2.7,0,0,1-2.16-.24l-16.82-9.24c-.7-.39-.86-.9-.37-1.15l11.8-6a2.64,2.64,0,0,1,2.15.24l16.82,9.24c.7.38.87.9.38,1.15Z"/><path class="cls-11" d="M710.24,812.43a2.64,2.64,0,0,1-2.15-.24L691.27,803c-.7-.38-.87-.9-.38-1.15l11.8-6a2.71,2.71,0,0,1,2.16.25l16.82,9.24c.69.38.86.9.37,1.15Z"/><path class="cls-11" d="M684,798a2.67,2.67,0,0,1-2.16-.25L665,788.52c-.71-.39-.87-.9-.38-1.15l11.8-6a2.66,2.66,0,0,1,2.16.24l16.82,9.24c.69.39.87.9.38,1.15Z"/><path class="cls-11" d="M659.11,784.33a2.68,2.68,0,0,1-2.15-.24l-16.82-9.24c-.7-.39-.86-.9-.37-1.15l11.8-6a2.66,2.66,0,0,1,2.16.24l16.81,9.24c.7.38.86.89.37,1.14Z"/><path class="cls-11" d="M632.86,769.9c-.49.25-1.82,0-3-.68L602.26,754c-1.14-.63-1.67-1.35-1.18-1.6l11.8-6c.49-.25,1.82.06,3,.69l27.63,15.18c1.14.63,1.67,1.35,1.18,1.6Z"/><path class="cls-11" d="M597,788.22c-.49.25-1.82-.06-3-.69l-27.63-15.19c-1.15-.63-1.68-1.34-1.2-1.59l11.81-6c.49-.26,1.82,0,3,.69l27.63,15.18c1.14.63,1.67,1.34,1.18,1.59Z"/><path class="cls-11" d="M567.07,790.29a2.64,2.64,0,0,1-2.15-.24l-16.82-9.24c-.69-.38-.87-.9-.38-1.15l11.81-6a2.66,2.66,0,0,1,2.16.24l16.81,9.24c.7.38.87.9.37,1.15Z"/><path class="cls-11" d="M593.33,804.73a2.71,2.71,0,0,1-2.16-.25l-16.81-9.24c-.7-.38-.87-.9-.38-1.15l11.8-6a2.7,2.7,0,0,1,2.16.24l16.81,9.24c.7.38.87.9.38,1.15Z"/><path class="cls-11" d="M618.2,818.4a2.67,2.67,0,0,1-2.16-.25l-16.81-9.24c-.7-.38-.87-.9-.38-1.15l11.81-6a2.64,2.64,0,0,1,2.15.24l16.81,9.24c.7.38.88.9.38,1.15Z"/><path class="cls-11" d="M741,905.12c-.49.25-.45,1-2.15.07L590.37,823.58c-1.62-.9-3.24-2.52-2.75-2.77l11.55-5.89c.49-.25,4.15,1.38,5.41,2.07l147.86,81.27c1.6.88.61.71.12,1Z"/><path class="cls-11" d="M804.4,940.14a2,2,0,0,1-1.83.07l-23.63-13c-.64-.35-1.28-1.26-.79-1.51l11.54-5.9a4.92,4.92,0,0,1,2.83.48l23.63,13c.63.35.29.71-.21,1Z"/><path class="cls-11" d="M772.62,922.67a1.67,1.67,0,0,1-1.68.15l-23.64-13c-.64-.35-1.42-1.34-.93-1.59l11.54-5.89a5.38,5.38,0,0,1,3,.55l23.64,13c.63.35.14.63-.35.89Z"/><path class="cls-11" d="M549,799.58c-.49.25-.83.78-1.29.53l-17.47-9.6c-.47-.26-1.12-1.33-.63-1.59L541.12,783c.49-.25,2.19.29,2.66.55l17.47,9.6c.46.25-.25.26-.74.51Z"/><path class="cls-11" d="M580.7,817c-.49.25-.22,1.11-.85.76l-23.64-13c-.64-.35-.88-1.19-.38-1.45l11.54-5.89a3.63,3.63,0,0,1,2.42.41l23.64,13c.63.35-.69,0-1.18.27Z"/><path class="cls-17" d="M869.34,822,736.17,748c-3.56-2-2.93-5.27,1.4-7.35l37.24-20.24c4.33-2.09,10.78-2.18,14.34-.22L923,794.65c3.57,2,2.94,5.27-1.39,7.35l-37.87,19.78C879.36,823.86,872.9,824,869.34,822Z"/><rect class="cls-17" x="733.73" y="734.18" width="16.3" height="10.63"/><rect class="cls-17" x="918.21" y="788.01" width="7.07" height="9.66"/><path class="cls-10" d="M869.35,812.72l-133.17-74c-3.56-2-2.93-5.28,1.4-7.36l37.24-20.24c4.33-2.08,10.79-2.18,14.35-.22L923,785.37c3.56,2,2.93,5.27-1.4,7.35L883.7,812.5C879.37,814.58,872.91,814.68,869.35,812.72Z"/><polygon class="cls-17" points="860.3 668.77 807.08 641.13 807.08 748.03 852.61 780.18 860.3 775.67 860.3 668.77"/><polygon class="cls-19" points="852.86 673.02 799.64 645.38 799.64 752.28 852.86 779.93 852.86 673.02"/><path class="cls-12" d="M650.52,589.48l405.57,223.13c3.52,1.92,11,2.13,15.87-.23,6.24-3,9.58-9.51,9.58-13.82L1087,491.82c0-7.66-6.57-17.52-14.61-21.91l-405-214.83c-14.28-7-29.61,5.94-29.61,13.6V558.56c0,7.73.59,14.37,3,19.62A27.36,27.36,0,0,0,650.52,589.48Z"/><path class="cls-2" d="M657,593l398,216.05c7.85,4.36,14.28,1.71,14.28-5.88L1075,501c0-7.59-6.43-17.36-14.29-21.71l-405-218.08c-13.24-6.55-17.92,1.88-17.92,9.46l.15,294c0,5.08,2.32,12.31,4.9,17.15S653,590.85,657,593Z"/><path class="cls-11" d="M655.66,587.29l396.19,219.54c7.86,4.35,14.28,1.7,14.28-5.88l5.41-298.07c0-7.59-6.42-17.36-14.28-21.71L655.66,265.24c-7.85-4.35-14.28-1.7-14.28,5.88V560.68c0,5.07.38,10.64,3,15.48A30,30,0,0,0,655.66,587.29Z"/><polygon class="cls-11" points="669.15 569.6 1039.61 773.45 1045.02 500.13 669.15 298.11 669.15 569.6"/><path class="cls-20" d="M1186.1,1021.32l-7.54,3.26-3.1-6.16.13-.06L975,903.53c-6.79-4.11-12.2-13.91-12-21.77l-1.52-194c4.71-6.86,10.77-11.29,17.57-7.18l207.85,118.84c6.79,4.11,11.69,13.56,10.47,23.79l-5.8,189.52C1191.4,1017.34,1189.23,1020.38,1186.1,1021.32Z"/><path class="cls-21" d="M961.73,728l-.31-40.19c.21-.31.42-.61.64-.91l-1-1.68,6.26-3.8a14,14,0,0,1,2.26-1.37l.11-.07v0a9.42,9.42,0,0,1,9.33.63l207.85,118.84a21.59,21.59,0,0,1,7.68,8.48L1120,846.49Z"/><path class="cls-22" d="M1176.46,802.45l-204-116.36C965.69,682,957.2,684,957,691.83L954.5,885.35c-.19,7.87,5.22,17.67,12,21.78l203.3,116.34c6.8,4.11,13.06.76,13.25-7.11l5.4-192.13C1188.66,816.37,1183.25,806.57,1176.46,802.45Z"/><path class="cls-23" d="M1174.8,804.08,969.56,686.84c-6.8-4.11-12.52-1-12.71,6.82l-4.41,190.72c-.19,7.86,5.22,17.66,12,21.77l203.3,116.34c6.8,4.11,13.06.76,13.25-7.11l5.22-188.59C1186.73,817.84,1181.6,808.19,1174.8,804.08Z"/><polygon class="cls-11" points="1173.44 813.47 963.78 692.38 959.46 894.49 1168.95 1014.2 1173.44 813.47"/><polygon class="cls-24" points="1191.79 1005.5 1191.87 1002.45 1183.38 1006.62 1183.36 1009.87 1191.79 1005.5"/><polygon class="cls-25" points="1181.23 1008.4 1183.36 1009.87 1183.38 1006.62 1181.29 1005.34 1181.23 1008.4"/><polygon class="cls-26" points="1191.78 1005.49 1191.97 1004.8 1183.36 1009.14 1183.35 1009.86 1191.78 1005.49"/><polygon class="cls-27" points="1181.21 1008.36 1183.36 1009.87 1183.36 1009.14 1181.2 1007.77 1181.21 1008.36"/><path class="cls-20" d="M1228.77,1091.8l-6,2.6-2.47-4.91.1,0-55.06-31.33c-5.42-3.28-9.73-11.1-9.58-17.37l-1.21-154.69c3.75-5.47,8.59-9,14-5.72l60.81,34.52c5.42,3.28,9.32,10.82,8.35,19L1233.08,1085C1233,1088.62,1231.26,1091.05,1228.77,1091.8Z"/><path class="cls-21" d="M1154.78,918.1l-.25-32.05.51-.73-.83-1.34,5-3a12.16,12.16,0,0,1,1.8-1.09l.09-.05h0a7.5,7.5,0,0,1,7.44.51l60.81,34.52a17.19,17.19,0,0,1,6.12,6.77l-59.42,30.75Z"/><path class="cls-28" d="M1221.07,917.25l-57.71-32.55c-5.43-3.28-12.19-1.7-12.35,4.57l-2,154.34c-.15,6.27,4.17,14.09,9.59,17.37l57.18,32.54c5.42,3.27,10.42.6,10.57-5.67l4.3-153.23C1230.81,928.35,1226.49,920.53,1221.07,917.25Z"/><path class="cls-23" d="M1219.75,918.55,1161,885.3c-5.42-3.28-10-.84-10.13,5.44l-3.52,152.09c-.15,6.27,4.16,14.09,9.58,17.37l57.18,32.54c5.43,3.28,10.42.6,10.58-5.67l4.15-150.41C1229.27,929.52,1225.17,921.83,1219.75,918.55Z"/><polygon class="cls-11" points="1225.1 944.93 1154.52 903.79 1150.89 1033.47 1221.34 1073.45 1225.1 944.93"/><ellipse class="cls-29" cx="1190.73" cy="907.84" rx="1.31" ry="2.15" transform="translate(-303.29 808.36) rotate(-33.51)"/><path class="cls-30" d="M1188,1066.69c.18-3.54-3.93-5.58-7.61-7.58s-5.53-3.2-5.7.34,2.22,5.08,5.9,7.08S1187.81,1070.24,1188,1066.69Z"/><path class="cls-31" d="M1221.57,1073.14v.39l-70.63-39.92-.16-.09,3.62-129.84,0-.39,70.94,41.35h0Zm-70.27-39.88,69.93,39.69L1225,945l-70.06-40.83Z"/><polygon class="cls-24" points="1233.3 1079.19 1233.36 1076.76 1226.59 1080.08 1226.58 1082.67 1233.3 1079.19"/><polygon class="cls-25" points="1224.88 1081.49 1226.58 1082.67 1226.59 1080.08 1224.93 1079.06 1224.88 1081.49"/><polygon class="cls-26" points="1233.3 1079.18 1233.45 1078.62 1226.58 1082.09 1226.57 1082.66 1233.3 1079.18"/><polygon class="cls-27" points="1224.86 1081.46 1226.58 1082.67 1226.58 1082.09 1224.85 1081 1224.86 1081.46"/><path class="cls-23" d="M1185.06,1064.42l-7.44-3.88c-.19-.09-.34,0-.34.32h0a.77.77,0,0,0,.33.66l7.44,3.88c.18.09.33-.05.34-.32h0A.79.79,0,0,0,1185.06,1064.42Z"/><path class="cls-32" d="M1272.73,1138.44l-64.14-41.93c-2.58-1.82-3.76-3.11-1.8-3.33l27.59-1.42c2-.23,6.15,1.27,8.32,2.69l64,42c2.18,1.42,2.35,2.76.38,3l-27.82,1.42C1277.28,1141.1,1274.91,1139.86,1272.73,1138.44Z"/><path class="cls-3" d="M1328.27,181.35a67.42,67.42,0,0,1-2.14-13c-1.61-28.48,19.28-41.87,46.65-30,22.26,9.73,42,33.23,49.41,57,5.94-1.42,13.26-.36,21.19,3.62,19.57,9.84,35.41,33.67,35.35,53.18a29.52,29.52,0,0,1-1.14,8.3c16.06,10.55,28.32,31,28.27,48.35,0,19-15,26.92-33.38,17.69a58.06,58.06,0,0,1-6.35-3.78L1336.2,257.45a47.78,47.78,0,0,1-6.71-2.75c-20.06-10.07-36.29-34.52-36.23-54.58C1293.31,180.53,1308.87,172.36,1328.27,181.35Z"/><path class="cls-2" d="M1318.75,185.75a68,68,0,0,1-2.14-13c-1.61-28.48,19.29-41.88,46.65-30,22.27,9.73,42,33.22,49.41,57,5.95-1.42,13.26-.35,21.19,3.63,19.57,9.83,35.42,33.67,35.35,53.18a29.9,29.9,0,0,1-1.13,8.3c16.05,10.54,28.32,31,28.27,48.35-.06,19-15,26.92-33.39,17.69a55.58,55.58,0,0,1-6.34-3.79l-129.94-65.26a47.17,47.17,0,0,1-6.71-2.76c-20.06-10.07-36.29-34.51-36.23-54.57C1283.79,184.94,1299.36,176.76,1318.75,185.75Z"/><path class="cls-3" d="M1353.2,719.29a80.43,80.43,0,0,1-2.58-15.67c-1.94-34.34,23.25-50.48,56.24-36.12,26.84,11.73,50.62,40.06,59.57,68.68,7.17-1.71,16-.43,25.55,4.37,23.59,11.86,42.7,40.59,42.62,64.12a35.81,35.81,0,0,1-1.37,10c19.35,12.72,34.14,37.42,34.08,58.3-.06,22.88-18.11,32.46-40.25,21.33a66.6,66.6,0,0,1-7.65-4.57l-156.66-78.68a57.5,57.5,0,0,1-8.09-3.33c-24.18-12.13-43.75-41.6-43.68-65.79C1311,718.31,1329.81,708.45,1353.2,719.29Z"/><path class="cls-2" d="M1341.72,724.61a81.32,81.32,0,0,1-2.58-15.67c-1.94-34.34,23.25-50.49,56.25-36.12,26.84,11.72,50.61,40,59.57,68.68,7.16-1.72,16-.43,25.54,4.37,23.6,11.85,42.7,40.59,42.62,64.11a35.52,35.52,0,0,1-1.37,10c19.36,12.71,34.15,37.41,34.09,58.29-.07,22.89-18.12,32.46-40.25,21.34a68.67,68.67,0,0,1-7.65-4.57l-156.66-78.69a56.92,56.92,0,0,1-8.09-3.32c-24.18-12.14-43.75-41.61-43.68-65.79C1299.57,723.62,1318.33,713.77,1341.72,724.61Z"/><path class="cls-11" d="M1055.28,200.89l-15-13.36-7,8a57.74,57.74,0,0,0-10.73-5.24l-9.47-16-13.71-.7,3.69,15.7a17.71,17.71,0,0,0-6.74,4.36l-14-9L978,197l12.18,14.26a51.08,51.08,0,0,0,1.19,11.39L981,225.86l7.55,18.19,13.53,4.45a101.15,101.15,0,0,0,8.44,11.76l-.62,13.61,15,13.35,7-8a57.14,57.14,0,0,0,10.72,5.25l9.47,16,13.71.69-3.69-15.7a17.71,17.71,0,0,0,6.74-4.36l14,9,4.35-12.38L1075,263.54a50.67,50.67,0,0,0-1.19-11.41l10.34-3.24-7.55-18.18-13.54-4.45a101.16,101.16,0,0,0-8.43-11.77Zm-7.91,49.62c-2.37,6.72-10.91,6.29-19.07-1s-12.87-18.59-10.51-25.31,10.9-6.29,19.07,1S1049.73,243.79,1047.37,250.51Z"/><path class="cls-11" d="M1111,189.3l-11.51-10.22-3.17,3.51a38.1,38.1,0,0,0-7-3.43L1085,172l-10.5-.53,1.6,7a11.75,11.75,0,0,0-4.42,2.86l-6.28-4-3.33,9.47,5.43,6.41a34.2,34.2,0,0,0,.79,7.48l-4.61,1.52,5.78,13.92,6.09,2.06a67.79,67.79,0,0,0,5.53,7.72l-.22,6.13,11.5,10.22,3.17-3.51a38.56,38.56,0,0,0,7,3.44l4.29,7.16,10.49.53-1.6-7a11.85,11.85,0,0,0,4.42-2.85l6.29,4,3.33-9.47-5.44-6.42a33.57,33.57,0,0,0-.78-7.48l4.6-1.51-5.78-13.93-6.09-2.06a67.24,67.24,0,0,0-5.52-7.71Zm-7.71,27.92c-1.18,3.35-5.43,3.13-9.49-.48s-6.41-9.25-5.23-12.59,5.42-3.13,9.49.48S1104.41,213.88,1103.24,217.22Z"/><path class="cls-11" d="M1109.62,222.89c-2.2,6.24-10.14,5.83-17.72-.9s-12-17.27-9.76-23.51,10.14-5.83,17.71.9S1111.81,216.66,1109.62,222.89ZM1087,202.8c-1.42,4,1.41,10.85,6.31,15.19s10,4.61,11.44.58-1.41-10.84-6.3-15.19S1088.42,198.77,1087,202.8Z"/><path class="cls-11" d="M1103.64,217.58c-1.24,3.53-5.73,3.3-10-.5s-6.75-9.76-5.51-13.29,5.72-3.29,10,.51S1104.88,214.06,1103.64,217.58Zm-14.72-13.07c-1.1,3.16,1.12,8.5,4.95,11.9s7.85,3.61,9,.45-1.11-8.49-4.94-11.89S1090,201.35,1088.92,204.51Z"/><path class="cls-1" d="M881.88,539.07l-14.66-8.46V508.54c0-14.44-11.82-33.09-26.26-41.43l-5.26-3c-14.45-8.34-26.27-3.35-26.27,11.1v22.07l-14.65-8.47c0,.56-.06,1.13-.06,1.72v35.09c0,15.57,11.83,35.13,26.27,43.47l34.68,20c14.44,8.34,26.26,2.43,26.26-13.14V540.85C881.93,540.26,881.91,539.67,881.88,539.07Zm-36.8,25.51-13.71-7.91L832.63,543c-2.37-3.09-3.91-6.77-3.91-9.92,0-5.25,4.26-7.05,9.51-4s9.5,9.75,9.5,15c0,3.15-1.54,5.05-3.9,5.41Zm9.53-41.25-34.67-20V482.82c0-9.53,7.8-12.83,17.34-7.32s17.33,17.81,17.33,27.34Z"/><path class="cls-1" d="M551.35,460.33l-10.78-6.22V437.87c0-10.63-8.7-24.35-19.33-30.48l-3.87-2.24c-10.63-6.13-19.32-2.46-19.32,8.17v16.24l-10.78-6.23c0,.41,0,.83,0,1.26v25.82c0,11.46,8.69,25.85,19.32,32l25.51,14.73c10.63,6.13,19.33,1.78,19.33-9.67V461.64C551.39,461.21,551.37,460.77,551.35,460.33ZM524.28,479.1l-10.09-5.82.92-10.06a12.82,12.82,0,0,1-2.87-7.3c0-3.87,3.13-5.19,7-3s7,7.17,7,11c0,2.32-1.14,3.72-2.87,4Zm7-30.35L505.78,434V419c0-7,5.74-9.45,12.75-5.4s12.76,13.11,12.76,20.12Z"/><path class="cls-1" d="M1090.31,858.05l-8.48-4.9V840.39c0-8.36-6.84-19.15-15.2-24l-3-1.76c-8.36-4.83-15.2-1.94-15.2,6.42v12.77l-8.47-4.9c0,.33,0,.66,0,1v20.3c0,9,6.84,20.33,15.2,25.15L1075.14,887c8.36,4.83,15.2,1.41,15.2-7.6v-20.3C1090.34,858.74,1090.33,858.39,1090.31,858.05ZM1069,872.81l-7.93-4.58.72-7.91a10.15,10.15,0,0,1-2.26-5.74c0-3,2.47-4.08,5.5-2.33s5.5,5.64,5.5,8.68c0,1.82-.89,2.92-2.25,3.13Zm5.52-23.87-20.07-11.58V825.51c0-5.52,4.52-7.43,10-4.24s10,10.3,10,15.82Z"/><path class="cls-1" d="M1208,994.2l-6.48-3.74V980.7c0-6.39-5.23-14.63-11.62-18.32l-2.32-1.34c-6.39-3.69-11.61-1.48-11.61,4.91v9.76l-6.48-3.74q0,.36,0,.75v15.52c0,6.88,5.23,15.53,11.62,19.22l15.33,8.85c6.38,3.69,11.61,1.07,11.61-5.81V995C1208,994.73,1208,994.46,1208,994.2Zm-16.27,11.28-6.06-3.5.55-6.05a7.72,7.72,0,0,1-1.73-4.38c0-2.32,1.89-3.12,4.21-1.78s4.2,4.31,4.2,6.63a2.13,2.13,0,0,1-1.73,2.39Zm4.21-18.24-15.33-8.85v-9.06c0-4.22,3.45-5.67,7.67-3.24s7.66,7.87,7.66,12.09Z"/></g></g></svg>