<svg width="164" height="66" viewBox="0 0 164 66" fill="none" xmlns="http://www.w3.org/2000/svg">
<path fill-rule="evenodd" clip-rule="evenodd" d="M152.541 46.1376L152.459 45.6379L152.377 45.1798L152.253 44.8051L152.13 44.5136L152.007 44.347L151.925 44.2221L151.761 44.0555L151.555 43.9306L151.35 43.889L151.062 43.8473H150.898L150.775 43.889L150.446 44.0139L150.118 44.1805L149.707 44.4303L149.296 44.7218L148.886 45.0549L148.475 45.5129L147.571 45.0965L146.668 44.7634L145.723 44.4719L144.819 44.2221L143.834 43.9723L142.848 43.8473L141.821 43.7641L140.794 43.7224H139.727L138.659 43.8473L137.632 44.0139L136.646 44.347L135.66 44.7218L134.716 45.2631L133.812 45.8461L132.909 46.554L132.457 46.8871L132.046 47.3035L131.635 47.7199L131.307 48.1779L130.978 48.636L130.691 49.1357L130.403 49.677L130.198 50.26L129.951 50.8013L129.787 51.4259L129.541 52.7167L129.417 53.383L129.376 54.0909L129.335 54.7988V55.5483L129.376 56.5476L129.417 57.0057L129.541 57.5054L129.787 58.4215L130.116 59.3376L130.526 60.1704L131.06 61.0032L131.676 61.7943L132.375 62.5439L133.114 63.2517L133.935 63.8764L134.757 64.4177L135.66 64.8757L136.564 65.2088L137.55 65.4587L138.535 65.6253L139.603 65.6669L140.343 65.6253L141.082 65.542L141.246 65.5003V65.4587H141.287H141.328H141.452L141.821 65.4171L142.56 65.2921L142.93 65.1256L143.341 65.0006L144.285 64.5426L144.737 64.2928L145.189 64.0429L145.6 63.7098L145.805 63.5432L146.052 63.3767L146.873 62.6271L147.694 61.7111L147.818 62.1275L147.982 62.5439L148.393 63.2934L148.598 63.6265L148.844 63.918L149.091 64.1678L149.419 64.4177L149.707 64.5842L150.036 64.7508L150.775 65.0839L151.186 65.1672L151.637 65.2505L152.089 65.2921L152.582 65.3338L152.787 65.2921L152.911 65.2505H153.034L153.445 65.2088L153.773 65.0839L154.102 65.0423L154.348 64.8757L154.595 64.7508L154.718 64.5842L154.759 64.501L154.841 64.4593V64.3344V64.5426H154.882L154.841 64.376L154.759 64.1678L154.677 64.0429L154.636 63.9596L154.102 63.8347L153.65 63.6681L153.445 63.5432L153.28 63.4183L152.993 63.1685L152.746 62.877L152.582 62.5022L152.5 62.294L152.459 62.1275L152.418 61.8776V61.6694L152.459 61.2114V46.1376H152.541ZM137.016 48.053L137.632 47.5117L138.248 47.0536L138.864 46.6372L139.562 46.3458L140.26 46.0959L140.959 45.9294L141.657 45.8461H142.437L143.135 45.8877L143.834 45.971L144.532 46.0959L145.23 46.2625L145.846 46.4707L146.503 46.7622L147.119 47.0953L147.736 47.5117V58.8795L147.325 59.3376L147.161 59.5041L147.037 59.7123L146.791 60.0454L146.668 60.1704L146.627 60.2953L146.052 60.8366L145.723 61.0864L145.436 61.3363L144.819 61.7527L144.696 61.7943L144.614 61.836L144.45 61.9609L144.121 62.1275L143.957 62.1691L143.834 62.2107L143.587 62.3357L142.602 62.5439L142.068 62.6271L141.616 62.6688L140.877 62.6271L140.178 62.5022L139.48 62.294L138.864 62.0442L138.248 61.7111L137.673 61.2946L137.098 60.8366L136.605 60.2953L136.112 59.7123L135.866 59.3792L135.701 59.0877L135.373 58.4631L135.085 57.8385L134.839 57.1306L134.716 56.7559L134.675 56.4227L134.551 55.6732L134.51 54.9237L134.551 53.7994L134.675 52.7167L134.839 51.7174L135.126 50.8429L135.455 50.0101L135.619 49.5937L135.866 49.2606L136.359 48.5943L137.016 48.053Z" fill="#8B949B"/>
<path fill-rule="evenodd" clip-rule="evenodd" d="M62.1828 10.7432L62.6757 9.70221L63.1685 8.61956L63.415 7.82839L63.6203 7.07886L63.7435 6.37098L63.8668 5.74637L63.9078 5.08013V4.49716L63.8668 3.95584L63.7846 3.45615L63.6203 2.95647L63.415 2.49842L63.1685 2.08202L62.881 1.70726L62.5114 1.37413L62.1007 1.08265L61.6489 0.832808L61.156 0.624606L60.581 0.416404L59.9649 0.249842L59.3078 0.124921L58.6096 0.0832808L57.8292 0H57.0488L56.1863 0.0416404L55.2417 0.124921L54.297 0.166562L53.2702 0.333123L52.2024 0.458044L51.0523 0.707886L49.8613 0.957729L48.6291 1.24921L47.3559 1.58233L46.0416 1.9571L44.6862 2.29022L43.2898 2.74827L40.579 3.70599L37.7861 4.747L35.0343 5.99621L32.2003 7.32871L30.7628 8.03659L29.4075 8.82776L27.9699 9.61893L26.5324 10.4517L23.6985 12.2839L22.261 13.1584L20.7824 14.1577L17.9073 16.1981L14.9912 18.3634L12.0341 20.6953L9.07688 23.1521L7.55722 24.4013L6.11971 25.7338L4.60005 27.0662L3.08039 28.4404L1.56073 29.8562L0.0821437 31.3552L0 33.5621L0.0410719 35.7691L0.123216 37.8927L0.246431 39.9331L0.410719 41.8486L0.533934 42.8063L0.698222 43.764L1.0268 45.5962L1.39644 47.3451L1.84823 48.9691L2.3411 50.5514L2.9161 52.0505L3.57325 53.5079L3.86076 54.1741L4.2304 54.8404L5.01077 56.1312L5.83221 57.3388L6.73579 58.5047L7.39294 59.2126L8.09116 59.8789L8.83045 60.3786L9.61082 60.8782L10.3912 61.2114L11.2537 61.4612L12.1162 61.6278L13.0609 61.711L14.0055 61.6694L14.9912 61.5445L15.977 61.2946L17.0448 60.9615L18.1127 60.5451L19.2216 60.0038L20.3716 59.4208L21.6038 58.7129L23.5342 57.2972L25.4646 55.8814L23.6163 55.2568L21.8502 54.6322L20.1663 54.0076L18.6056 53.4246L17.0859 52.7584L15.6484 52.1754L14.3341 51.5924L13.1019 51.0095L11.9108 50.3849L10.843 49.8019L9.81618 49.2189L8.95367 48.636L8.09116 48.053L7.35187 47.47L6.69472 46.8871L6.11971 46.3041L5.58577 45.7211L5.17506 45.1798L4.84648 44.5968L4.60005 44.0555L4.43576 43.4726L4.35362 42.9312V42.3899L4.43576 41.8486L4.60005 41.3073L4.88755 40.7659L5.17506 40.2246L5.62685 39.7249L6.11971 39.1836L6.73579 38.6839L7.39294 38.1426L8.1733 37.6845L7.63937 38.1426L7.18758 38.6839L6.98222 38.9338L6.81793 39.1836L6.53043 39.7249L6.284 40.183L6.16078 40.6827L6.11971 41.1823V41.682L6.20185 42.1817L6.40721 42.6398L6.61257 43.1394L6.98222 43.6391L7.35187 44.0972L7.84473 44.5552L8.41973 45.0549L9.07688 45.5129L9.73403 45.9293L10.5144 46.429L11.3769 46.8454L12.3626 47.3451L13.3484 47.7615L13.8823 47.9697L14.4573 48.2196L15.6484 48.636L16.9216 49.094L18.2359 49.5521L19.6324 49.9685L21.1109 50.3849L21.8913 50.5931L22.6717 50.8429L23.4931 51.0095L24.3146 51.2177L26.0396 51.6757L27.8057 52.0921L29.695 52.5085L30.1878 52.0088L30.7628 51.5924L31.2968 51.0511L31.9128 50.5514L32.4879 50.0101L33.1039 49.4688L34.3772 48.3028L35.7325 46.9703L36.4308 46.2625L37.129 45.5962L37.8683 44.8467L38.6076 44.0972L40.1683 42.5148V42.4732L38.1147 42.5148L36.1432 42.5981H35.1986L34.2539 42.6398L32.4879 42.6814H30.7218H29.0789L28.2575 42.6398H27.5182H26.7378H26.0396L24.6021 42.5565L23.2467 42.4732L21.9735 42.3483L20.7824 42.3066L19.6734 42.1401L18.6466 41.9735L17.702 41.8486L16.7984 41.682L16.3877 41.5571L15.977 41.4322L15.2377 41.224L14.4984 40.9741L13.8823 40.7659L13.2662 40.4744L12.7734 40.2246L12.3216 39.9331L11.9519 39.6416L11.6233 39.3085L11.3769 38.9754L11.1715 38.6423L11.0483 38.2675L10.9662 37.8927V37.518L11.0483 37.1016L11.1715 36.7268L11.2126 37.0599L11.3358 37.4347L11.4591 37.7262L11.7055 38.0593L11.993 38.3508L12.1573 38.4757L12.3626 38.6423L12.568 38.7256L12.7734 38.8505L13.2662 39.1003L13.8412 39.2669L14.4162 39.4751L14.7448 39.5167L15.1144 39.6L15.8948 39.7666L16.6752 39.8498L17.5377 39.9748L18.4823 40.0164L19.5091 40.0997H20.577L21.6859 40.1413L22.877 40.0997H24.1503L24.7663 40.0164H25.4646L26.861 39.9331L28.2985 39.8498L29.8593 39.7249L31.3789 39.5584L33.0218 39.4334L34.7468 39.2252L35.6093 39.142L36.5129 39.0587L37.4165 38.9338L38.3611 38.8088L40.2504 38.559L42.2219 38.3092L44.2755 38.0593L44.6862 37.518L44.8916 37.2265L45.0148 37.1016L45.138 37.0183L46.0416 35.9773L46.9041 34.8946L47.7666 33.8536L48.6291 32.771L49.0398 32.2297L49.4916 31.6883L51.1756 29.4814L51.9559 28.3155L52.3256 27.7325L52.7774 27.1912L54.3381 24.8593L55.8577 22.4442L56.597 21.195L57.3363 19.9457H54.297L51.3398 20.1123L48.3416 20.3205L45.4255 20.6953L42.5094 21.07L39.6754 21.6114L36.8004 22.1943L34.0075 22.9438L31.2146 23.6934L28.4628 24.6095L25.711 25.6088L23.0413 26.6915L20.3716 27.8574L17.743 29.1899L15.1144 30.564L12.568 32.0215L14.9912 30.0644L17.5377 28.2322L20.1663 26.4416L22.877 24.776L24.2735 23.9016L25.6699 23.1104L28.545 21.6114L31.5021 20.1539L34.6236 18.7798L37.704 17.489L40.9897 16.2814L44.2755 15.1571L47.7255 14.1161L51.1756 13.1584L54.7488 12.2839L58.4042 11.4511L60.2935 11.0763L62.1828 10.7432Z" fill="#8B949B"/>
<path fill-rule="evenodd" clip-rule="evenodd" d="M120.135 36.5601C120.135 38.9336 120.135 65.75 120.135 65.75H125.228V33.562C125.228 33.562 124.817 33.4788 124.284 33.4788C123.709 33.4788 120.998 33.8952 120.135 36.5601Z" fill="#8B949B"/>
<path fill-rule="evenodd" clip-rule="evenodd" d="M88.3867 47.8031L89.8242 48.7608V46.429L88.6742 45.846L87.5652 45.3463L86.4974 44.9299L85.3884 44.6384L84.3206 44.3469L83.2116 44.1387L82.1437 44.0138L81.1169 43.9722H80.008L78.9401 44.0971L77.9544 44.3053L76.9687 44.6384L75.983 45.0132L75.0383 45.5129L74.0937 46.0958L73.2311 46.8454L72.4097 47.5949L71.999 48.0113L71.6704 48.511L71.3418 48.969L71.0543 49.4687L70.7668 49.9684L70.5615 50.5514L70.315 51.1343L70.1508 51.7173L69.9865 52.3419L69.8633 53.0081L69.74 53.6744L69.699 54.3823L69.6168 55.0902V55.8813L69.699 56.8807L69.74 57.3804L69.8222 57.8801L70.0686 58.7961L70.2329 59.2542L70.4383 59.7122L70.849 60.5867L71.3829 61.4195L71.999 62.2107L72.3276 62.5854L72.7383 63.0018L73.4776 63.6681L74.3401 64.251L75.2847 64.7507L76.2705 65.1671L76.8044 65.3337L77.3383 65.5003L77.8723 65.6252L78.4883 65.7501L79.0634 65.8334L79.6794 65.9167L80.3366 65.9583L80.9937 65.9999L81.0348 65.9583H81.1169H81.2812H81.6098H82.2259L82.5134 65.875H82.842L83.458 65.7917L84.0331 65.7085L84.6081 65.5835L85.1831 65.417L85.7581 65.292L86.2509 65.0838L86.7849 64.9173L86.867 64.834L86.9902 64.7507L87.2777 64.6674L87.3599 64.5842L87.4831 64.5425L87.7706 64.4176L87.9759 64.251L88.0581 64.1678L88.2224 64.1261L88.6742 63.8346L88.8795 63.6681L89.126 63.5015L89.5778 63.1684L89.2081 60.4618L88.3456 61.0864L87.8527 61.3778L87.4009 61.6277L86.9081 61.8359L86.4563 62.0441L85.9224 62.2523L85.6759 62.3356L85.4295 62.4189L84.8956 62.5438L84.3616 62.6271L83.2527 62.7936H82.9241H82.8009H82.7187L82.6366 62.8353L82.0616 62.8769L81.7741 62.8353H81.4866L80.9116 62.7936L80.2955 62.6687L79.7616 62.5021L79.1866 62.2939L78.6937 62.0441L78.1598 61.6693L77.708 61.3362L77.2151 60.9614L76.8044 60.5034L76.2705 59.9204L76.0651 59.5873L75.8597 59.2958L75.5312 58.6712L75.2437 58.0466L74.9972 57.3387L74.9151 56.964L74.8329 56.6308L74.7508 55.8813L74.7097 55.1318L74.7508 54.0075L74.874 52.9249L75.0383 51.9671L75.3258 51.051L75.6955 50.2182L75.8597 49.8435L76.1062 49.4687L76.599 48.8025L77.2151 48.2195L77.7901 47.7198L78.4473 47.2618L79.0634 46.8454L79.7616 46.5539L80.4187 46.304L81.1169 46.1791L81.8562 46.0958H82.6366H83.3348L84.0741 46.1791L85.5527 46.5539L86.2099 46.7621L86.9492 47.0536L87.6474 47.4283L88.3867 47.8031Z" fill="#8B949B"/>
<path fill-rule="evenodd" clip-rule="evenodd" d="M97.176 46.8453L96.56 47.3866L96.026 48.0112L95.5332 48.6775L95.1224 49.3854L94.7117 50.1349L94.3832 50.9677L94.0957 51.8421L93.9314 52.7582L93.8081 53.3828L93.726 54.0907L93.6028 55.5481V55.8813L93.6439 56.8806L93.6849 57.3387L93.8081 57.8384L94.0546 58.7545L94.2189 59.2125L94.4242 59.6705L94.8349 60.5033L95.3689 61.3362L95.985 62.1273L96.3135 62.5021L96.7242 62.9185L97.5046 63.5847L98.3671 64.1677L99.2707 64.6674L100.298 65.0838L100.79 65.2503L101.324 65.4169L101.858 65.5418L102.474 65.6667L103.049 65.75L103.665 65.8333L104.281 65.8749L104.98 65.9166L105.021 65.8749H105.103H105.267H105.596L106.212 65.8333L106.499 65.7917L106.828 65.75L107.444 65.7084L107.978 65.5835L108.553 65.4585L109.087 65.292L109.662 65.1671L110.155 64.9589L110.689 64.7923L110.812 64.709L110.935 64.6674L111.182 64.5425L111.715 64.2926L111.921 64.1261L112.044 64.0428L112.167 64.0011L112.619 63.7097L112.824 63.5431L113.071 63.3765L113.523 63.0434L113.153 60.3368L112.249 60.9614L111.798 61.2112L111.346 61.4611L110.853 61.6693L110.401 61.8775L109.867 62.044L109.621 62.1273L109.374 62.2522L108.84 62.3772L108.307 62.5021L107.198 62.6686H106.869H106.705H106.623L106.581 62.7103L106.006 62.7519L105.678 62.7103H105.39L104.815 62.6686L104.199 62.5437L103.665 62.3772L103.131 62.1273L102.598 61.8775L102.064 61.5444L101.612 61.2112L101.16 60.7948L100.749 60.3368L100.298 59.7955L99.8868 59.2541L99.5582 58.6295L99.2707 58.0466L99.0243 57.422L98.86 56.7973L98.7368 56.0895L98.6957 55.3816H115.658L115.576 54.5904L115.535 53.8409L115.412 53.133L115.33 52.4668L115.042 51.1759L114.878 50.5513L114.714 50.01L114.467 49.427L114.262 48.8857L114.016 48.386L113.769 47.928L113.153 47.0535L112.824 46.6371L112.496 46.304L112.085 45.9292L111.715 45.5961L110.894 45.0548L110.442 44.8049L109.99 44.5967L109.005 44.2636L108.471 44.097L107.937 43.9721L107.362 43.8472L106.828 43.8056L106.212 43.7639H105.596L104.323 43.8472L103.337 43.8888L102.392 44.0554L101.489 44.2636L100.585 44.5967L99.6814 44.9715L98.8189 45.4295L97.9975 45.9709L97.176 46.8453ZM101.16 48.2194L101.899 47.5948L102.68 47.1368L103.46 46.8453L104.281 46.7204L105.021 46.6371L105.76 46.5955L106.458 46.6371L107.115 46.762L107.732 46.8869L108.265 47.1368L108.799 47.4283L109.292 47.7614L109.703 48.1778L110.114 48.6358L110.442 49.1355L110.771 49.7601L111.017 50.3847L111.264 51.0926L111.428 51.8421L111.51 52.2586L111.633 52.7166H98.7778L98.9011 52.0087L99.0653 51.3425L99.2707 50.7179L99.5582 50.1765L99.8457 49.6352L100.215 49.1355L100.626 48.6775L101.16 48.2194Z" fill="#8B949B"/>
<path fill-rule="evenodd" clip-rule="evenodd" d="M60.7453 45.5962L59.8417 45.1798L58.9381 44.8467L58.0345 44.5552L57.1309 44.3054L56.1452 44.0555L55.1595 43.9306L54.1327 43.8473L53.1059 43.8057H51.997L50.9291 43.9306L49.9023 44.0971L48.9166 44.4303L47.9308 44.805L46.9862 45.3464L46.0826 45.9293L45.2201 46.6372L44.7683 46.9703L44.3576 47.3867L43.9469 47.8031L43.6183 48.2612L43.2897 48.7192L43.0022 49.2189L42.7147 49.7602L42.5094 50.3432L42.2629 50.8845L42.0986 51.5091L41.8522 52.8L41.729 53.4662L41.6879 54.1741L41.6469 54.882V55.6315L41.6879 56.6309L41.729 57.0889L41.8522 57.5886L42.0986 58.5047L42.4272 59.4208L42.8379 60.2536L43.3719 61.0864L43.9879 61.8776L44.6862 62.6271L45.4665 63.335L46.288 63.9596L47.1094 64.5009L48.013 64.959L48.9166 65.2921L49.9023 65.5419L50.888 65.7085L51.9559 65.7501L52.6952 65.7085L53.0648 65.6669V65.7918H53.1059H53.147H53.2702H53.4755L53.6398 65.7501V65.7085H53.6809H53.722H53.8452L54.2148 65.6669L54.9541 65.5419L55.3238 65.3754L55.7345 65.2505L55.9399 65.1255L56.1863 65.0006L56.6381 64.7508L57.0899 64.5009L57.5417 64.2511L57.9524 63.918L58.1577 63.7514L58.4042 63.5848L59.2256 62.8353L60.047 61.9192L60.1703 62.3356L60.3345 62.752L60.7453 63.5016L60.9506 63.8347L61.1971 64.1262L61.4435 64.376L61.7721 64.6259L62.0596 64.7924L62.3881 64.959L63.1685 65.2921L63.5792 65.3754L64.031 65.4587L64.4828 65.5003L64.9757 65.5419L65.181 65.5003L65.3042 65.4587H65.4275L65.8382 65.417L66.1668 65.2921L66.4953 65.2505L66.7418 65.0839L66.9471 64.959L67.0703 64.7924L67.1114 64.7091L67.1936 64.6675V64.5426H67.2346L67.1936 64.376L67.1114 64.1678L67.0293 64.0429L66.9882 63.9596L66.4953 63.8347L66.0435 63.6681L65.8382 63.5432L65.6739 63.4183L65.3864 63.1684L65.14 62.877L64.9757 62.5022L64.8525 62.0858L64.8114 61.8359V61.6277L64.8525 61.1697V46.0959L64.7703 45.5962L64.6882 45.1382L64.565 44.7634L64.4417 44.4719L64.3185 44.3054L64.2364 44.1804L64.0721 44.0139L63.8667 43.8889L63.6614 43.8473L63.3739 43.8057H63.2096L63.0864 43.8473L62.7578 43.9722L62.4292 44.1388L62.0185 44.3886L61.6078 44.6801L61.1971 45.0132L60.7453 45.5962ZM54.6256 45.8877L55.3238 45.9293L56.022 46.0126L56.7202 46.1375L57.4184 46.3041L58.0345 46.5123L58.6917 46.8038L59.3078 47.1369L59.9238 47.5533V58.9211L59.5131 59.3792L59.3488 59.5457L59.2256 59.7539L59.0613 59.9205L58.9381 60.0871L58.8149 60.212L58.7738 60.3369L58.1988 60.8782L57.8702 61.1281L57.5827 61.3779L56.9667 61.7943L56.3506 62.1691L55.8166 62.3356L54.8309 62.5438L54.297 62.6271L53.8452 62.6688L53.1059 62.6271L52.4077 62.5022L51.7095 62.294L51.0934 62.0441L50.4773 61.711L49.9023 61.2946L49.3273 60.8366L48.7934 60.2953L48.3005 59.7123L48.0541 59.3792L47.8898 59.0877L47.5612 58.4631L47.2737 57.8385L47.0273 57.1306L46.904 56.7558L46.863 56.4227L46.7398 55.6732L46.6987 54.9236L46.7398 53.7994L46.863 52.7167L47.0273 51.7173L47.3148 50.8429L47.6433 50.0101L47.8076 49.5937L48.0541 49.2606L48.5469 48.5943L49.163 48.0113L49.7791 47.47L50.3952 47.012L51.0112 46.5956L51.7095 46.3041L52.4077 46.0542L53.1059 45.8877L53.8452 45.8044H54.6256V45.8877Z" fill="#8B949B"/>
<path d="M160.468 43.9722C160.961 43.9722 161.412 44.0555 161.823 44.2637C162.275 44.4302 162.645 44.7217 162.973 45.0548C163.302 45.3879 163.548 45.7627 163.713 46.2208C163.877 46.6372 163.959 47.0952 163.959 47.5949C163.959 48.0946 163.877 48.5526 163.713 48.969C163.548 49.3854 163.261 49.7602 162.932 50.0933C162.604 50.4264 162.193 50.7179 161.741 50.8845C161.289 51.051 160.879 51.176 160.386 51.176C159.934 51.176 159.482 51.0927 159.03 50.8845C158.62 50.7179 158.209 50.4264 157.88 50.0933C157.552 49.7602 157.305 49.3438 157.1 48.9274C156.936 48.511 156.854 48.0529 156.854 47.5949C156.854 47.1368 156.936 46.6788 157.141 46.2208C157.305 45.7627 157.593 45.3879 157.921 45.0132C158.25 44.6801 158.62 44.4302 159.03 44.2637C159.523 44.0555 159.975 43.9722 160.468 43.9722ZM163.548 47.5532C163.548 47.1368 163.466 46.7204 163.343 46.3457C163.179 45.9709 162.973 45.6378 162.686 45.3463C162.398 45.0548 162.07 44.805 161.7 44.6801C161.33 44.5135 160.92 44.4302 160.509 44.4302C160.098 44.4302 159.687 44.5135 159.318 44.6384C158.948 44.805 158.62 45.0132 158.373 45.3047C158.086 45.5961 157.839 45.9709 157.675 46.3457C157.511 46.7204 157.429 47.1368 157.429 47.5532C157.429 47.9696 157.511 48.3444 157.675 48.7192C157.839 49.0939 158.045 49.4271 158.332 49.7185C158.62 50.01 158.948 50.2599 159.318 50.3848C159.687 50.5514 160.057 50.6346 160.468 50.6346C160.879 50.6346 161.289 50.5514 161.659 50.3848C162.029 50.2182 162.357 50.01 162.686 49.7185C162.973 49.4271 163.179 49.0939 163.343 48.7192C163.466 48.3861 163.548 47.9696 163.548 47.5532ZM160.55 45.4296C161.125 45.4296 161.536 45.5129 161.823 45.7211C162.111 45.8876 162.234 46.1791 162.234 46.5539C162.234 46.8454 162.152 47.0952 161.987 47.2618C161.823 47.47 161.618 47.5949 161.289 47.6365L162.193 49.4687H161.33L160.509 47.7198H159.77V49.4687H159.03V45.3879H160.55V45.4296ZM160.427 45.9293H159.811V47.2618H160.427C160.796 47.2618 161.043 47.2201 161.207 47.0952C161.371 47.0119 161.454 46.8454 161.454 46.5955C161.454 46.3457 161.371 46.1791 161.207 46.0542C161.043 45.9709 160.796 45.9293 160.427 45.9293Z" fill="#8B949B"/>
</svg>
