<svg width="220" height="36" viewBox="0 0 220 36" fill="none" xmlns="http://www.w3.org/2000/svg">
<path d="M57.2232 9.37939H60.1299L71.2812 35.3711H67.6346L64.9921 28.978H51.8854L49.19 35.3711H45.6491L57.2232 9.37939ZM58.5973 13.362H58.5444L53.1009 26.1482H63.8294L58.5973 13.362Z" fill="#8B949B"/>
<path d="M73.7123 30.8645C74.2936 31.5981 74.9278 32.1222 75.562 32.5414C76.2491 32.9606 77.0947 33.1702 78.1516 33.1702C78.5744 33.1702 79.0501 33.1178 79.5257 33.013C80.0014 32.9082 80.3713 32.751 80.7413 32.5414C81.1112 32.3318 81.4283 32.0698 81.6397 31.7029C81.8511 31.3885 81.9568 30.9693 81.9568 30.4977C81.9568 30.0261 81.8511 29.6592 81.6397 29.3448C81.4283 29.0304 81.1641 28.8208 80.7941 28.6112C80.4242 28.4016 80.0542 28.2444 79.6314 28.1396C79.2086 28.0348 78.733 27.93 78.2573 27.8251C77.4646 27.6679 76.6719 27.4583 75.932 27.2487C75.1921 27.0391 74.5579 26.7247 73.9765 26.4103C73.3952 26.0959 72.9724 25.5718 72.6553 25.0478C72.3382 24.4714 72.1796 23.7377 72.1796 22.8993C72.1796 22.0609 72.391 21.3272 72.761 20.6984C73.1309 20.0696 73.6066 19.5455 74.2408 19.1263C74.875 18.7071 75.562 18.3927 76.3019 18.1831C77.0418 17.9735 77.8345 17.8687 78.6801 17.8687C79.8957 17.8687 81.0584 18.1307 82.1154 18.6023C83.1724 19.0739 83.9651 19.86 84.5993 21.0128L82.1682 22.5849C81.7983 21.9561 81.3226 21.4844 80.6884 21.1176C80.1071 20.7508 79.3672 20.5412 78.4687 20.5412C78.0988 20.5412 77.676 20.5936 77.2532 20.6984C76.8304 20.8032 76.4605 20.9604 76.1434 21.1176C75.8263 21.3272 75.562 21.5892 75.3506 21.8513C75.1392 22.1657 75.0335 22.5325 75.0335 22.8993C75.0335 23.2661 75.1392 23.5805 75.4035 23.8425C75.6149 24.1046 75.932 24.3142 76.3548 24.5238C76.7776 24.7334 77.2532 24.8906 77.7817 25.0478C78.3102 25.205 78.8387 25.3098 79.42 25.4146C80.1599 25.5718 80.8998 25.729 81.5869 25.9911C82.2739 26.2007 82.9081 26.5151 83.3838 26.9343C83.9123 27.3011 84.335 27.8251 84.5993 28.4016C84.9164 28.978 85.0221 29.7116 85.0221 30.5501C85.0221 31.5457 84.8107 32.3842 84.4407 33.0654C84.0708 33.7466 83.5423 34.3231 82.8553 34.7423C82.2211 35.1615 81.4812 35.4759 80.6356 35.6855C79.79 35.8951 78.9444 36 78.0988 36C76.619 36 75.3506 35.7903 74.2408 35.3187C73.1838 34.8471 72.1796 34.0087 71.334 32.8034L73.7123 30.8645Z" fill="#8B949B"/>
<path d="M97.706 20.646H92.5796V29.24C92.5796 29.8165 92.5796 30.3405 92.6324 30.8121C92.6324 31.2837 92.7381 31.703 92.9495 32.0698C93.1081 32.4366 93.3723 32.6986 93.7423 32.9082C94.1122 33.1178 94.5879 33.2226 95.2221 33.2226C95.6449 33.2226 96.0677 33.1702 96.5433 33.0654C96.9661 32.9606 97.3889 32.8034 97.8117 32.6462L97.9174 35.2663C97.4418 35.4759 96.8604 35.6332 96.2791 35.738C95.6977 35.8428 95.1164 35.8952 94.535 35.8952C93.478 35.8952 92.6853 35.738 92.0511 35.476C91.4169 35.2139 90.9413 34.8471 90.6242 34.3231C90.2542 33.8515 90.0428 33.2226 89.9371 32.489C89.8314 31.7554 89.7786 30.9693 89.7786 30.0785V20.646H85.9734V18.2355H89.7786V13.3621H92.6853V18.2355H97.8117V20.646H97.706Z" fill="#8B949B"/>
<path d="M100.296 22.2705C100.296 21.4845 100.296 20.7509 100.243 20.0696C100.19 19.3884 100.19 18.7596 100.19 18.1831H102.938C102.938 18.6548 102.938 19.1264 102.991 19.598C102.991 20.0696 103.044 20.5413 103.044 21.0129H103.097C103.308 20.5937 103.572 20.1744 103.942 19.8076C104.312 19.4408 104.735 19.074 105.211 18.7596C105.686 18.4451 106.268 18.1831 106.902 18.0259C107.536 17.8163 108.17 17.7639 108.91 17.7639C109.122 17.7639 109.28 17.7639 109.491 17.8163C109.703 17.8163 109.861 17.8687 110.073 17.9735L109.861 20.8557C109.386 20.6985 108.857 20.6461 108.329 20.6461C106.532 20.6461 105.263 21.2225 104.471 22.3754C103.678 23.5282 103.255 25.1003 103.255 27.0392V35.4236H100.348V22.2705H100.296Z" fill="#8B949B"/>
<path d="M110.496 26.8294C110.496 25.4669 110.707 24.2617 111.183 23.1612C111.658 22.0608 112.292 21.1175 113.085 20.3315C113.878 19.5454 114.882 18.9166 115.992 18.4974C117.102 18.0782 118.37 17.8162 119.691 17.8162C121.013 17.8162 122.281 18.0258 123.391 18.4974C124.501 18.9166 125.505 19.5454 126.298 20.3315C127.09 21.1175 127.777 22.0608 128.2 23.1612C128.676 24.2617 128.887 25.4669 128.887 26.8294C128.887 28.1919 128.676 29.3971 128.2 30.4976C127.725 31.5981 127.09 32.5413 126.298 33.3273C125.505 34.1134 124.501 34.7422 123.391 35.1614C122.228 35.5807 121.013 35.8427 119.691 35.8427C118.37 35.8427 117.102 35.6331 115.992 35.1614C114.829 34.7422 113.878 34.1134 113.085 33.3273C112.292 32.5413 111.605 31.5981 111.183 30.4976C110.707 29.3971 110.496 28.1395 110.496 26.8294ZM113.561 26.8294C113.561 27.7203 113.719 28.5587 113.984 29.3447C114.248 30.1308 114.671 30.812 115.199 31.3884C115.728 31.9649 116.415 32.4365 117.155 32.7509C117.895 33.0653 118.74 33.2225 119.691 33.2225C120.643 33.2225 121.488 33.0653 122.228 32.7509C122.968 32.4365 123.655 31.9649 124.184 31.3884C124.712 30.812 125.135 30.1308 125.399 29.3447C125.663 28.5587 125.822 27.7203 125.822 26.8294C125.822 25.9386 125.663 25.1001 125.399 24.3141C125.135 23.528 124.712 22.8468 124.184 22.2704C123.655 21.694 122.968 21.2223 122.228 20.9079C121.488 20.5935 120.643 20.4363 119.691 20.4363C118.74 20.4363 117.895 20.5935 117.155 20.9079C116.415 21.2223 115.728 21.694 115.199 22.2704C114.671 22.8468 114.248 23.528 113.984 24.3141C113.719 25.0477 113.561 25.8862 113.561 26.8294Z" fill="#8B949B"/>
<path d="M131.794 9.37939H137.977L150.714 28.7159H150.767V9.37939H155.471V35.4235H149.499L136.55 15.4581H136.498V35.4235H131.794V9.37939Z" fill="#8B949B"/>
<path d="M158.166 26.5674C158.166 25.1525 158.43 23.8949 158.906 22.742C159.434 21.5892 160.121 20.6459 160.967 19.8075C161.813 19.0214 162.87 18.3926 164.032 17.921C165.195 17.5018 166.463 17.2397 167.837 17.2397C169.159 17.2397 170.427 17.4494 171.59 17.921C172.752 18.3402 173.809 18.969 174.655 19.8075C175.501 20.5935 176.188 21.5892 176.716 22.742C177.245 23.8949 177.456 25.1525 177.456 26.5674C177.456 27.9823 177.192 29.2399 176.716 30.3928C176.188 31.5457 175.501 32.4889 174.655 33.3274C173.809 34.1134 172.752 34.7422 171.59 35.2138C170.427 35.6331 169.159 35.8951 167.837 35.8951C166.516 35.8951 165.248 35.6855 164.032 35.2138C162.87 34.7946 161.813 34.1658 160.967 33.3274C160.121 32.5413 159.434 31.5457 158.906 30.3928C158.43 29.2399 158.166 27.9823 158.166 26.5674ZM162.605 26.5674C162.605 27.2487 162.711 27.9299 162.975 28.5587C163.187 29.1875 163.557 29.764 164.032 30.2356C164.508 30.7072 165.036 31.1264 165.671 31.3884C166.305 31.7029 167.045 31.8077 167.837 31.8077C168.63 31.8077 169.37 31.6505 170.004 31.3884C170.638 31.074 171.22 30.7072 171.643 30.2356C172.118 29.764 172.435 29.1875 172.7 28.5587C172.911 27.9299 173.07 27.2487 173.07 26.5674C173.07 25.8862 172.964 25.2049 172.7 24.5761C172.488 23.9473 172.118 23.3709 171.643 22.8992C171.167 22.4276 170.638 22.0084 170.004 21.7464C169.37 21.432 168.63 21.3272 167.837 21.3272C167.045 21.3272 166.305 21.4844 165.671 21.7464C165.036 22.0608 164.455 22.4276 164.032 22.8992C163.557 23.3709 163.24 23.9473 162.975 24.5761C162.711 25.2573 162.605 25.8862 162.605 26.5674Z" fill="#8B949B"/>
<path d="M177.403 17.7639H182.213L186.969 30.1309H187.075L191.831 17.7639H196.376L189.4 35.4236H184.644L177.403 17.7639Z" fill="#8B949B"/>
<path d="M208.267 32.9606H208.162C207.528 33.9563 206.682 34.6899 205.731 35.1615C204.726 35.6331 203.669 35.8427 202.454 35.8427C201.661 35.8427 200.816 35.7379 200.076 35.5283C199.283 35.3187 198.596 35.0043 198.015 34.5327C197.38 34.1135 196.905 33.537 196.535 32.8558C196.165 32.1746 196.006 31.4409 196.006 30.5501C196.006 29.6068 196.165 28.7684 196.535 28.0872C196.905 27.4059 197.328 26.8295 197.909 26.4103C198.49 25.9387 199.177 25.5718 199.917 25.3098C200.657 25.0478 201.503 24.8382 202.295 24.681C203.141 24.5238 203.934 24.4714 204.779 24.419C205.625 24.3666 206.418 24.3666 207.158 24.3666H208.267V23.895C208.267 22.7945 207.897 21.9561 207.105 21.432C206.365 20.8556 205.361 20.5936 204.198 20.5936C203.247 20.5936 202.401 20.7508 201.556 21.0652C200.763 21.3796 200.023 21.8513 199.442 22.4277L197.116 20.122C198.12 19.1263 199.283 18.3927 200.604 17.9735C201.925 17.5542 203.3 17.2922 204.674 17.2922C205.942 17.2922 206.999 17.4494 207.845 17.7115C208.69 17.9735 209.43 18.3403 210.011 18.8119C210.593 19.2311 211.016 19.7552 211.333 20.3316C211.65 20.908 211.861 21.4844 212.02 22.0609C212.178 22.6373 212.231 23.2137 212.284 23.7902C212.284 24.3666 212.337 24.8382 212.337 25.2574V35.4235H208.32V32.9606H208.267ZM208.003 27.5107H207.105C206.471 27.5107 205.783 27.5107 205.044 27.5631C204.304 27.6155 203.564 27.7203 202.877 27.93C202.19 28.1396 201.608 28.4016 201.133 28.716C200.657 29.0828 200.446 29.5544 200.446 30.1833C200.446 30.6025 200.551 30.9693 200.71 31.2313C200.921 31.4933 201.133 31.7553 201.45 31.965C201.767 32.1746 202.084 32.2794 202.454 32.3842C202.824 32.489 203.194 32.489 203.564 32.489C205.096 32.489 206.206 32.1222 206.946 31.3885C207.686 30.6549 208.056 29.6592 208.056 28.454V27.5107H208.003Z" fill="#8B949B"/>
<path d="M220 20.2793C220 21.9562 218.679 23.2662 216.935 23.2662C215.244 23.2662 213.869 21.9562 213.869 20.2793C213.869 18.6548 215.244 17.3447 216.935 17.3447C218.626 17.3447 220 18.6548 220 20.2793ZM214.609 20.2793C214.609 21.5893 215.613 22.6374 216.935 22.6374C218.256 22.6374 219.207 21.5893 219.207 20.2793C219.207 18.9692 218.256 17.9212 216.935 17.9212C215.613 17.9212 214.609 18.9692 214.609 20.2793ZM216.459 21.8514H215.772V18.8644C216.036 18.812 216.406 18.7596 216.935 18.7596C217.516 18.7596 217.78 18.8644 217.992 18.9692C218.15 19.074 218.309 19.336 218.309 19.598C218.309 19.9124 218.045 20.1745 217.675 20.2793V20.3317C217.992 20.4365 218.15 20.6461 218.203 21.0653C218.309 21.5369 218.362 21.6941 218.415 21.7989H217.675C217.569 21.6941 217.516 21.4321 217.41 21.0653C217.358 20.7509 217.199 20.5937 216.776 20.5937H216.459V21.8514ZM216.459 20.1745H216.776C217.146 20.1745 217.463 20.0697 217.463 19.7553C217.463 19.4932 217.252 19.2836 216.829 19.2836C216.67 19.2836 216.512 19.2836 216.459 19.336V20.1745Z" fill="#8B949B"/>
<path d="M13.9394 0.366211C4.74352 2.35751 -1.33419 11.2135 0.251303 20.4888C0.885498 23.9998 2.47099 27.0391 4.74352 29.502C5.06062 17.6067 8.44299 7.17855 13.9394 0.366211Z" fill="#8B949B"/>
<path d="M32.5424 7.91219C29.0015 2.56712 22.6067 -0.629431 15.8419 0.104206C16.3704 3.45797 17.9031 7.65018 20.1756 12.1044C18.7487 12.8904 17.3746 13.6765 16.1062 14.5149C15.4191 13.0476 14.8378 11.6328 14.415 10.2179C13.358 12.052 12.5653 13.9385 11.7725 16.0346C10.2399 20.384 9.55283 24.5238 9.71138 28.1396C12.3539 24.1046 16.529 19.8076 21.7611 15.9298C21.9196 15.825 22.0253 15.7202 22.1839 15.6678C22.6595 15.3534 23.0823 15.0389 23.558 14.7245C23.558 14.7245 23.6108 14.7245 23.6108 14.6721C25.0378 13.7289 26.4119 12.838 27.8388 12.052C27.8388 12.052 27.8917 12.052 27.8917 11.9996C29.2657 11.2135 30.6398 10.5323 32.0139 9.95589C32.0668 9.95589 32.1196 9.90348 32.1196 9.90348C32.5424 9.74627 32.9124 9.53666 33.3352 9.37946C35.2378 8.64582 37.0346 8.0694 38.673 7.70258C38.7787 7.65018 38.9372 7.65017 39.0429 7.59777C36.9818 7.54537 34.815 7.59777 32.5424 7.91219Z" fill="#8B949B"/>
<path d="M18.4316 27.9824C15.3134 28.4016 12.1953 30.3405 9.92279 33.2227C13.1466 34.7948 16.8989 35.4236 20.757 34.7424C22.0254 34.5328 23.2937 34.1659 24.4564 33.6943C23.6108 33.2227 22.7124 32.6463 21.814 31.9126C20.2285 30.7074 19.0658 29.2925 18.4316 27.9824Z" fill="#8B949B"/>
<path d="M33.9165 10.375C29.16 13.7288 26.2005 18.3402 26.359 23.0564C26.4119 25.9386 27.6274 28.4539 29.6357 30.55C33.9693 26.6722 36.2419 20.6983 35.1849 14.5672C34.9206 13.0475 34.4978 11.6851 33.9165 10.375Z" fill="#8B949B"/>
</svg>
