<svg fill="none" xmlns="http://www.w3.org/2000/svg" viewBox="0 0 175 47">
  <path fill-rule="evenodd" clip-rule="evenodd" d="M17 14c-1.6569 0-3 1.3431-3 3v27c0 1.6569 1.3431 3 3 3h27c1.6569 0 3-1.3431 3-3V17c0-1.6569-1.3431-3-3-3H17zm.5 2c-.8284 0-1.5.6716-1.5 1.5v26c0 .8284.6716 1.5 1.5 1.5h26c.8284 0 1.5-.6716 1.5-1.5v-26c0-.8284-.6716-1.5-1.5-1.5h-26z" fill="url(#paint0_linear)"/>
  <path fill-rule="evenodd" clip-rule="evenodd" d="M17 14.3c-1.4912 0-2.7 1.2088-2.7 2.7v27c0 1.4912 1.2088 2.7 2.7 2.7h27c1.4912 0 2.7-1.2088 2.7-2.7V17c0-1.4912-1.2088-2.7-2.7-2.7H17zm-1.3 3.2c0-.9941.8059-1.8 1.8-1.8h26c.9941 0 1.8.8059 1.8 1.8v26c0 .9941-.8059 1.8-1.8 1.8h-26c-.9941 0-1.8-.8059-1.8-1.8v-26zM14 17c0-1.6569 1.3431-3 3-3h27c1.6569 0 3 1.3431 3 3v27c0 1.6569-1.3431 3-3 3H17c-1.6569 0-3-1.3431-3-3V17zm2 .5c0-.8284.6716-1.5 1.5-1.5h26c.8284 0 1.5.6716 1.5 1.5v26c0 .8284-.6716 1.5-1.5 1.5h-26c-.8284 0-1.5-.6716-1.5-1.5v-26z" fill="#6C9BAA" fill-opacity=".5"/>
  <path fill-rule="evenodd" clip-rule="evenodd" d="M10 7c-1.65685 0-3 1.34314-3 3v27c0 1.6569 1.34314 3 3 3h27c1.6569 0 3-1.3431 3-3V10c0-1.65685-1.3431-3-3-3H10zm.5 2C9.67157 9 9 9.67157 9 10.5v26c0 .8284.67157 1.5 1.5 1.5h26c.8284 0 1.5-.6716 1.5-1.5v-26c0-.82843-.6716-1.5-1.5-1.5h-26z" fill="url(#paint1_linear)"/>
  <path fill-rule="evenodd" clip-rule="evenodd" d="M10 7.3c-1.49117 0-2.7 1.20883-2.7 2.7v27c0 1.4912 1.20883 2.7 2.7 2.7h27c1.4912 0 2.7-1.2088 2.7-2.7V10c0-1.49117-1.2088-2.7-2.7-2.7H10zm-1.3 3.2c0-.99411.80589-1.8 1.8-1.8h26c.9941 0 1.8.80589 1.8 1.8v26c0 .9941-.8059 1.8-1.8 1.8h-26c-.99411 0-1.8-.8059-1.8-1.8v-26zM7 10c0-1.65686 1.34315-3 3-3h27c1.6569 0 3 1.34315 3 3v27c0 1.6569-1.3431 3-3 3H10c-1.65686 0-3-1.3431-3-3V10zm2 .5c0-.82843.67157-1.5 1.5-1.5h26c.8284 0 1.5.67157 1.5 1.5v26c0 .8284-.6716 1.5-1.5 1.5h-26c-.82843 0-1.5-.6716-1.5-1.5v-26z" fill="#6C9BAA" fill-opacity=".5"/>
  <path fill-rule="evenodd" clip-rule="evenodd" d="M3 0C1.34315 0 0 1.34314 0 3v27c0 1.6569 1.34314 3 3 3h27c1.6569 0 3-1.3431 3-3V3c0-1.65685-1.3431-3-3-3H3zm.5 2C2.67157 2 2 2.67157 2 3.5v26c0 .8284.67157 1.5 1.5 1.5h26c.8284 0 1.5-.6716 1.5-1.5v-26c0-.82843-.6716-1.5-1.5-1.5h-26z" fill="url(#paint2_linear)"/>
  <path fill-rule="evenodd" clip-rule="evenodd" d="M3 .3C1.50883.3.3 1.50883.3 3v27c0 1.4912 1.20883 2.7 2.7 2.7h27c1.4912 0 2.7-1.2088 2.7-2.7V3c0-1.49117-1.2088-2.7-2.7-2.7H3zM1.7 3.5c0-.99411.80589-1.8 1.8-1.8h26c.9941 0 1.8.80589 1.8 1.8v26c0 .9941-.8059 1.8-1.8 1.8h-26c-.99411 0-1.8-.8059-1.8-1.8v-26zM0 3c0-1.65686 1.34315-3 3-3h27c1.6569 0 3 1.34315 3 3v27c0 1.6569-1.3431 3-3 3H3c-1.65686 0-3-1.3431-3-3V3zm2 .5C2 2.67157 2.67157 2 3.5 2h26c.8284 0 1.5.67157 1.5 1.5v26c0 .8284-.6716 1.5-1.5 1.5h-26c-.82843 0-1.5-.6716-1.5-1.5v-26z" fill="#6C9BAA" fill-opacity=".5"/>
  <path fill-rule="evenodd" clip-rule="evenodd" d="M59.5796 7.11987h11.378v3.93443h-7.4397v3.8205h7.4397v3.8624h-7.4397v5.5572h7.4397v3.9488h-11.378V7.11987zM75.7822 12.6199h3.8677v1.6011c.8771-.7494 1.672-1.2711 2.3847-1.5637.7112-.2925 1.4411-.4395 2.1855-.4395 1.5278 0 2.8247.5404 3.8908 1.6227.8958.9195 1.3445 2.2785 1.3445 4.0786v10.3246h-3.8258v-6.8428c0-1.8634-.0823-3.1014-.2482-3.7139-.1644-.6125-.4515-1.078-.8612-1.3993-.4112-.32-.9161-.48-1.5205-.48-.7819 0-1.4528.2652-2.0139.7956-.5598.5318-.9493 1.2653-1.1657 2.2021-.1139.4885-.1702 1.5449-.1702 3.1706v6.2677h-3.8677V12.6199zM91.9222 12.6199h3.9412l3.8937 9.2192 3.8859-9.2192h3.922l-6.562 15.6238h-2.5068l-6.574-15.6238zM112.572 6.18628c.678 0 1.259.24932 1.744.74653.486.49865.729 1.10106.729 1.81012 0 .69897-.241 1.29417-.722 1.78707-.48.4929-1.054.7393-1.722.7393-.688 0-1.275-.2508-1.76-.7537-.485-.503-.727-1.11261-.727-1.83032 0-.69032.239-1.27832.72-1.76688.48-.48856 1.06-.73212 1.738-.73212zm-1.934 22.05722h3.867V12.6197h-3.867v15.6238zM128.73 14.8023l-2.395 2.4269c-.972-.9771-1.857-1.4642-2.649-1.4642-.435 0-.774.0922-1.021.2796-.245.1873-.368.4193-.368.696 0 .2105.078.405.234.5823.156.1772.541.4179 1.155.7249l1.417.7177c1.492.7465 2.516 1.5075 3.074 2.2828.557.7754.836 1.6862.836 2.7296 0 1.3879-.502 2.5466-1.509 3.4747-1.006.9281-2.355 1.3922-4.045 1.3922-2.248 0-4.043-.8892-5.384-2.6705l2.38-2.6273c.454.5361.985.9685 1.594 1.2985.609.3315 1.15.4958 1.623.4958.509 0 .92-.124 1.232-.3733.312-.2493.467-.5361.467-.8618 0-.6024-.561-1.1919-1.685-1.7655l-1.304-.6615c-2.494-1.2725-3.74-2.8665-3.74-4.7818 0-1.2351.47-2.29 1.409-3.1663.941-.8762 2.142-1.3143 3.607-1.3143 1.001 0 1.943.2234 2.826.6687.884.4453 1.631 1.0838 2.246 1.9168M134.819 6.18628c.678 0 1.26.24932 1.744.74653.486.49865.729 1.10106.729 1.81012 0 .69897-.241 1.29417-.721 1.78707-.481.4929-1.055.7393-1.723.7393-.688 0-1.275-.2508-1.76-.7537-.485-.503-.727-1.11261-.727-1.83032 0-.69032.239-1.27832.72-1.76688.48-.48856 1.06-.73212 1.738-.73212zm-1.934 22.05722h3.867V12.6197h-3.867v15.6238zM148.679 12.2175c1.454 0 2.822.369 4.102 1.1054 1.279.7379 2.279 1.7381 2.997 3.002.717 1.2639 1.077 2.6272 1.077 4.0929 0 1.4729-.363 2.8521-1.084 4.1348-.723 1.2826-1.708 2.2857-2.954 3.0091-1.247.7221-2.622 1.0838-4.123 1.0838-2.211 0-4.097-.797-5.661-2.3909-1.563-1.594-2.345-3.5309-2.345-5.8094 0-2.4399.883-4.4748 2.649-6.1019 1.55-1.4167 3.33-2.1258 5.342-2.1258m.064 3.6909c-1.202 0-2.202.4237-3.001 1.2711-.801.8474-1.2 1.9312-1.2 3.2513 0 1.3605.395 2.4615 1.186 3.3032.789.8431 1.79 1.2639 3.002 1.2639 1.21 0 2.217-.4266 3.022-1.2783.804-.8518 1.206-1.9471 1.206-3.2888 0-1.3389-.395-2.4284-1.184-3.2657-.791-.8388-1.801-1.2567-3.031-1.2567M160.998 12.6199h3.867v1.6011c.877-.7494 1.672-1.2711 2.385-1.5637.711-.2925 1.44-.4395 2.185-.4395 1.528 0 2.825.5404 3.891 1.6227.896.9195 1.345 2.2785 1.345 4.0786v10.3246h-3.826v-6.8428c0-1.8634-.082-3.1014-.248-3.7139-.165-.6125-.452-1.078-.863-1.3993-.408-.32-.916-.48-1.519-.48-.782 0-1.453.2652-2.014.7956-.56.5318-.949 1.2653-1.166 2.2021-.114.4885-.17 1.5449-.17 3.1706v6.2677h-3.867V12.6199z" fill="#fff"/>
  <path d="M61.6052 34.9366h1.7081v-.8327H59v.8327h1.7082v6.4683h.897v-6.4683zM67.5641 39.2843v-.1355c0-1.346-.668-2.4111-2.0898-2.4111-1.441 0-2.1758 1.0458-2.1758 2.4401 0 1.3363.8302 2.3821 2.1949 2.3821.8684 0 1.6509-.4551 2.0707-1.2395l-.7252-.4164c-.3245.5423-.6775.8812-1.336.8812-.8207 0-1.336-.7262-1.3455-1.5009h3.4067zm-3.359-.6584c.1049-.6488.6012-1.1329 1.2692-1.1329.6871 0 1.126.4551 1.231 1.1329h-2.5002zM72.2523 37.0379c-.3435-.2034-.7825-.3002-1.1833-.3002-1.3741 0-2.4429 1.0361-2.4429 2.4401 0 1.3557 1.0783 2.3821 2.3952 2.3821.4485 0 .8398-.0872 1.231-.3002v-1.1136c-.3244.368-.7252.6004-1.2214.6004-.9066 0-1.546-.6778-1.546-1.6074 0-.8328.6489-1.588 1.4887-1.588.5153 0 .9352.213 1.2787.61v-1.1232zM73.8499 33v8.4049h.8588v-2.0818c0-.8231 0-1.8108 1.107-1.8108.8779 0 .9829.5229.9829 1.2976v2.595h.8588v-2.7016c0-1.1038-.3244-1.9656-1.5841-1.9656-.5439 0-1.0783.2614-1.3455.7456h-.0191V33h-.8588zM80.3718 36.8732h-.8589v4.5317h.8589v-2.0818c0-.8231 0-1.8108 1.1069-1.8108.878 0 .983.5229.983 1.2976v2.595h.8588v-2.7016c0-1.1038-.3245-1.9656-1.5841-1.9656-.5439 0-1.0783.2614-1.3455.7456h-.0191v-.6101zM87.1609 36.7377c-1.336 0-2.3857 1.0458-2.3857 2.4111 0 1.3653 1.0497 2.4111 2.3857 2.4111 1.336 0 2.3857-1.0458 2.3857-2.4111 0-1.3653-1.0497-2.4111-2.3857-2.4111zm0 .8327c.8493 0 1.5268.7166 1.5268 1.5784 0 .8521-.6775 1.5783-1.5268 1.5783-.8493 0-1.5269-.7262-1.5269-1.5783 0-.8618.6776-1.5784 1.5269-1.5784zM91.8945 34h-.8589v7.4049h.8589V34zM95.7658 36.7377c-1.336 0-2.3857 1.0458-2.3857 2.4111 0 1.3653 1.0497 2.4111 2.3857 2.4111 1.336 0 2.3857-1.0458 2.3857-2.4111 0-1.3653-1.0497-2.4111-2.3857-2.4111zm0 .8327c.8493 0 1.5269.7166 1.5269 1.5784 0 .8521-.6776 1.5783-1.5269 1.5783-.8493 0-1.5268-.7262-1.5268-1.5783 0-.8618.6775-1.5784 1.5268-1.5784zM101.52 40.7852c-.906 0-1.412-.794-1.412-1.6461 0-.8424.525-1.6268 1.412-1.6268.926 0 1.451.7456 1.451 1.6268 0 .8908-.515 1.6461-1.451 1.6461zm2.262-3.912h-.859v.7747h-.019c-.353-.5616-.887-.9102-1.555-.9102-1.289 0-2.0997 1.1329-2.0997 2.3723 0 1.2976.7637 2.4499 2.1377 2.4499.63 0 1.174-.3486 1.517-.8618h.019v.8618c0 .9295-.219 1.6655-1.278 1.6655-.783 0-1.336-.4648-1.336-1.2782h-.8593C99.4688 43.2254 100.366 44 101.606 44c1.737 0 2.176-1.1232 2.176-2.6822v-4.4446zM106.89 40.6303L105.134 44h.974l3.616-7.1268h-.964l-1.402 2.8759-1.508-2.8759h-1.002l2.042 3.7571zM118.699 39.5748l.82 1.8301h.964l-3.435-7.6109-3.436 7.6109h.964l.821-1.8301h3.302zm-.372-.8327h-2.558l1.279-2.9534 1.279 2.9534zM123.586 40.7852c-.907 0-1.412-.794-1.412-1.6461 0-.8424.524-1.6268 1.412-1.6268.925 0 1.45.7456 1.45 1.6268 0 .8908-.515 1.6461-1.45 1.6461zm1.403.6197h.858V34h-.858v3.6285h-.019c-.354-.5422-.888-.8908-1.556-.8908-1.288 0-2.099 1.1329-2.099 2.3723 0 1.2976.763 2.4499 2.137 2.4499.63 0 1.174-.3486 1.518-.8618h.019v.7068zM127.877 36.8732h-.964l2.243 4.6867 2.252-4.6867h-.964l-1.288 2.8275-1.279-2.8275zM133.596 36.8732h-.859v4.5317h.859v-4.5317zm-.429-2.6822c-.325 0-.592.2711-.592.6101 0 .3292.267.5906.592.5906.324 0 .591-.2614.591-.5906 0-.339-.267-.6101-.591-.6101zM138.128 37.5317c-.239-.4938-.678-.794-1.222-.794-.725 0-1.316.581-1.316 1.3169 0 .6197.362.8715.858 1.1426l.84.4551c.201.1356.315.2517.315.4938 0 .3874-.315.6391-.677.6391-.411 0-.63-.2421-.812-.581l-.734.3389c.238.6391.897 1.0168 1.546 1.0168.83 0 1.536-.6391 1.536-1.5009 0-.7166-.506-1.0458-1.031-1.2879-.525-.2421-1.04-.4163-1.04-.8134 0-.2517.229-.4454.468-.4454.248 0 .467.1743.572.397l.697-.3776zM141.953 36.7377c-1.336 0-2.386 1.0458-2.386 2.4111 0 1.3653 1.05 2.4111 2.386 2.4111s2.385-1.0458 2.385-2.4111c0-1.3653-1.049-2.4111-2.385-2.4111zm0 .8327c.849 0 1.526.7166 1.526 1.5784 0 .8521-.677 1.5783-1.526 1.5783-.85 0-1.527-.7262-1.527-1.5783 0-.8618.677-1.5784 1.527-1.5784zM146.705 36.8732h-.859v4.5317h.859v-2.2271c0-.7359.115-1.6074 1.04-1.6074.201 0 .373.0484.525.184l.392-.794c-.21-.1356-.458-.2227-.707-.2227-.572 0-1.011.3389-1.221.8715h-.029v-.736zM152.293 37.5317c-.238-.4938-.677-.794-1.221-.794-.725 0-1.317.581-1.317 1.3169 0 .6197.363.8715.859 1.1426l.84.4551c.2.1356.315.2517.315.4938 0 .3874-.315.6391-.678.6391-.41 0-.63-.2421-.811-.581l-.735.3389c.239.6391.897 1.0168 1.546 1.0168.83 0 1.536-.6391 1.536-1.5009 0-.7166-.505-1.0458-1.03-1.2879-.525-.2421-1.04-.4163-1.04-.8134 0-.2517.229-.4454.467-.4454.248 0 .468.1743.573.397l.696-.3776zM155 40.5431l-.943 2.3724.525.2227 1.162-2.2949-.744-.3002zM161.979 34.1039h-.897v7.301h3.082v-.8327h-2.185v-6.4683zM166.318 34.1039h-.897v7.301h3.083v-.8327h-2.186v-6.4683zM175 34.4428c-.544-.3389-1.183-.4939-1.813-.4939-2.119 0-3.827 1.6849-3.827 3.8442 0 2.1109 1.699 3.7668 3.751 3.7668.629 0 1.336-.184 1.889-.5132v-1.0749c-.534.4842-1.212.7553-1.918.7553-1.603 0-2.825-1.3653-2.825-2.963 0-1.6171 1.231-2.9824 2.844-2.9824.678 0 1.384.2518 1.899.7165v-1.0554z" fill="#fff"/>
  <defs>
    <linearGradient id="paint0_linear" x1="45.5" y1="46" x2="15" y2="15" gradientUnits="userSpaceOnUse">
      <stop stop-color="#94C6D9"/>
      <stop offset=".205649" stop-color="#6C9BAA"/>
      <stop offset=".771831" stop-color="#6C9BAA"/>
      <stop offset="1" stop-color="#8CBDCF"/>
    </linearGradient>
    <linearGradient id="paint1_linear" x1="38.5" y1="39" x2="8" y2="8" gradientUnits="userSpaceOnUse">
      <stop stop-color="#94C6D9"/>
      <stop offset=".205649" stop-color="#6C9BAA"/>
      <stop offset=".771831" stop-color="#6C9BAA"/>
      <stop offset="1" stop-color="#8CBDCF"/>
    </linearGradient>
    <linearGradient id="paint2_linear" x1="31.5" y1="32" x2=".999999" y2=".999999" gradientUnits="userSpaceOnUse">
      <stop stop-color="#94C6D9"/>
      <stop offset=".205649" stop-color="#6C9BAA"/>
      <stop offset=".771831" stop-color="#6C9BAA"/>
      <stop offset="1" stop-color="#8CBDCF"/>
    </linearGradient>
  </defs>
</svg>
